<svg width="160" height="173" viewBox="0 0 160 173" fill="none" xmlns="http://www.w3.org/2000/svg">
<path d="M79.5976 159.195C121.03 159.195 154.617 125.608 154.617 84.1761C154.617 42.744 121.03 9.15662 79.5976 9.15662C38.1655 9.15662 4.57812 42.744 4.57812 84.1761C4.57812 125.608 38.1655 159.195 79.5976 159.195Z" fill="url(#paint0_linear_1635_23265)"/>
<path d="M130.282 30.1492C130.282 31.6299 129.081 32.8302 127.601 32.8302C126.12 32.8302 124.92 31.6299 124.92 30.1492C124.92 28.6685 126.12 27.4682 127.601 27.4682C129.081 27.4682 130.282 28.6685 130.282 30.1492Z" stroke="url(#paint1_linear_1635_23265)" stroke-width="2.61276"/>
<circle cx="109.288" cy="155.071" r="2.68096" stroke="url(#paint2_linear_1635_23265)" stroke-width="2.61276"/>
<path d="M148.711 110.895C148.38 109.595 149.58 108.425 150.871 108.788L154.56 109.824C155.851 110.187 156.265 111.811 155.305 112.748L152.563 115.424C151.603 116.361 149.99 115.907 149.658 114.608L148.711 110.895Z" fill="url(#paint3_linear_1635_23265)"/>
<path d="M71.8109 8.41711C72.3258 6.28414 75.3597 6.28414 75.8746 8.41711L76.2014 9.77086C76.3854 10.5331 76.9805 11.1282 77.7427 11.3122L79.0965 11.639C81.2295 12.1539 81.2295 15.1878 79.0965 15.7027L77.7427 16.0295C76.9805 16.2135 76.3854 16.8086 76.2014 17.5709L75.8746 18.9246C75.3597 21.0576 72.3258 21.0576 71.8109 18.9246L71.4841 17.5709C71.3001 16.8086 70.705 16.2135 69.9427 16.0295L68.589 15.7027C66.456 15.1878 66.456 12.1539 68.589 11.639L69.9427 11.3122C70.705 11.1282 71.3001 10.5331 71.4841 9.77086L71.8109 8.41711Z" fill="url(#paint4_linear_1635_23265)"/>
<path d="M37.1468 153.615C37.6617 151.482 40.6956 151.482 41.2105 153.615L41.5373 154.969C41.7213 155.731 42.3164 156.326 43.0787 156.51L44.4324 156.837C46.5654 157.352 46.5654 160.386 44.4324 160.9L43.0787 161.227C42.3164 161.411 41.7213 162.006 41.5373 162.769L41.2105 164.122C40.6956 166.255 37.6617 166.255 37.1468 164.122L36.82 162.769C36.636 162.006 36.0409 161.411 35.2787 161.227L33.9249 160.9C31.792 160.386 31.792 157.352 33.9249 156.837L35.2787 156.51C36.0409 156.326 36.636 155.731 36.82 154.969L37.1468 153.615Z" fill="url(#paint5_linear_1635_23265)"/>
<path d="M6.4834 100.396C14.1388 133.702 43.9675 158.541 79.5976 158.541C113.695 158.541 142.479 135.794 151.602 104.647C147.77 117.728 139.638 115.439 137.349 114.785C135.06 114.131 128.192 110.533 125.576 111.841C122.96 113.149 57.2358 114.16 54.6124 114.785C47.745 116.42 42.5126 115.112 37.6073 110.533C32.702 105.955 30.0858 102.32 24.5264 100.396C17.986 98.1316 11.7726 99.0876 6.4834 100.396Z" fill="#4976BC" fill-opacity="0.4"/>
<path d="M6.4834 100.396C14.1388 133.702 43.9675 158.541 79.5976 158.541C113.695 158.541 142.479 135.794 151.602 104.647C147.77 117.728 139.638 115.439 137.349 114.785C135.06 114.131 128.192 110.533 125.576 111.841C122.96 113.149 57.2358 114.16 54.6124 114.785C47.745 116.42 42.5126 115.112 37.6073 110.533C32.702 105.955 30.0858 102.32 24.5264 100.396C17.986 98.1316 11.7726 99.0876 6.4834 100.396Z" fill="#ACD0FF"/>
<path d="M13.3243 114.777C14.6483 114.565 15.7053 115.866 15.2269 117.118L13.8597 120.698C13.3813 121.951 11.7263 122.216 10.8807 121.175L8.46394 118.201C7.61831 117.161 8.21629 115.595 9.54028 115.383L13.3243 114.777Z" fill="url(#paint6_linear_1635_23265)"/>
<g clip-path="url(#clip0_1635_23265)">
<path fill-rule="evenodd" clip-rule="evenodd" d="M85.7661 19.6495L64.1971 29.654C64.682 31.1497 64.8451 32.7313 64.6758 34.2946C64.5065 35.8579 64.0085 37.3676 63.2146 38.7246C62.4207 40.0816 61.3489 41.2551 60.0695 42.168C58.7902 43.081 57.3322 43.7126 55.7915 44.0215C54.8266 44.2107 53.8404 44.2678 52.8601 44.1909C51.1112 44.0555 49.4197 43.5056 47.9251 42.5868C46.4306 41.6679 45.1759 40.4064 44.2648 38.9064L18.7861 50.7164C60.5364 111.148 59.2934 143.917 59.2285 145.647L86.1598 133.358C85.4771 131.829 85.1469 130.167 85.1937 128.494C85.2406 126.821 85.6632 125.179 86.4304 123.692C87.1975 122.204 88.2894 120.909 89.6251 119.901C90.9608 118.893 92.506 118.2 94.1462 117.871C95.1127 117.687 96.0992 117.63 97.0805 117.702C99.0553 117.857 100.952 118.539 102.574 119.677C104.197 120.815 105.485 122.366 106.304 124.171L127.783 114.383C117.763 64.2376 87.3662 21.878 85.7661 19.6495Z" fill="url(#paint7_linear_1635_23265)"/>
<path fill-rule="evenodd" clip-rule="evenodd" d="M86.5253 19.6307L83.4068 20.2607L61.7814 30.2936L64.8999 29.6635L86.5253 19.6307ZM44.9122 38.9347L41.7937 39.5646L16.255 51.4028L19.3734 50.7823L44.9122 38.9347ZM94.9195 118.097L91.8011 118.727C92.7692 118.538 93.7585 118.481 94.742 118.558C96.7228 118.711 98.626 119.394 100.253 120.536C101.88 121.677 103.17 123.235 103.99 125.046L107.11 124.415C106.288 122.606 104.997 121.049 103.37 119.908C101.744 118.767 99.8416 118.083 97.8613 117.928C96.8788 117.851 95.8905 117.908 94.9233 118.097H94.9195ZM94.9195 118.097L91.8011 118.727C92.7692 118.538 93.7585 118.481 94.742 118.558C96.7228 118.711 98.626 119.394 100.253 120.536C101.88 121.677 103.17 123.235 103.99 125.046L107.11 124.415C106.288 122.606 104.997 121.049 103.37 119.908C101.744 118.767 99.8416 118.083 97.8613 117.928C96.8788 117.851 95.8905 117.908 94.9233 118.097H94.9195ZM94.9195 118.097L91.8011 118.727C92.7692 118.538 93.7585 118.481 94.742 118.558C96.4405 118.689 98.0858 119.21 99.5504 120.081C101.015 120.952 102.259 122.149 103.187 123.579L106.306 122.958C105.381 121.526 104.137 120.327 102.672 119.454C101.207 118.581 99.5609 118.059 97.8613 117.928C96.8776 117.851 95.888 117.908 94.9195 118.097ZM106.306 122.958L103.187 123.579C103.49 124.048 103.758 124.538 103.99 125.046L107.11 124.415C106.879 123.91 106.611 123.423 106.306 122.958ZM64.8961 29.6635L61.7777 30.2936C62.2296 31.6717 62.404 33.1259 62.2907 34.5719C62.1161 37.0074 61.1463 39.3178 59.5307 41.1477C57.9152 42.9775 55.7433 44.2252 53.3496 44.6985L56.469 44.0686C58.0139 43.759 59.4758 43.1258 60.7588 42.2105C62.0417 41.2953 63.1167 40.1189 63.9129 38.7584C64.7092 37.3979 65.2088 35.8841 65.3789 34.3166C65.549 32.7492 65.3858 31.1633 64.8999 29.6635H64.8961ZM64.8961 29.6635L61.7777 30.2936C62.2296 31.6717 62.404 33.1259 62.2907 34.5719C62.1161 37.0074 61.1463 39.3178 59.5307 41.1477C57.9152 42.9775 55.7433 44.2252 53.3496 44.6985L56.469 44.0686C58.0139 43.759 59.4758 43.1258 60.7588 42.2105C62.0417 41.2953 63.1167 40.1189 63.9129 38.7584C64.7092 37.3979 65.2088 35.8841 65.3789 34.3166C65.549 32.7492 65.3858 31.1633 64.8999 29.6635H64.8961ZM64.8961 29.6635L61.7777 30.2936C61.8284 30.444 61.8716 30.6039 61.9205 30.7637L65.039 30.1336C64.9948 29.9737 64.945 29.8233 64.8961 29.6635ZM65.039 30.1336L61.9205 30.7637C62.0502 31.23 62.1491 31.7043 62.2165 32.1836L65.3359 31.5534C65.2667 31.0744 65.1676 30.6002 65.039 30.1336ZM65.3359 31.5534L62.2165 32.1836C62.2847 32.6633 62.3205 33.1471 62.3236 33.6316L65.443 33.0109C65.4393 32.5233 65.4035 32.0364 65.3359 31.5534ZM65.443 33.0109L62.3236 33.6316C62.3236 33.9513 62.3151 34.2616 62.2907 34.5719C62.2719 34.8258 62.2456 35.0701 62.2118 35.3145L65.3302 34.6846C65.3647 34.4402 65.391 34.1957 65.4091 33.9512C65.4336 33.6315 65.4449 33.3212 65.443 33.0109ZM65.3302 34.6846L62.2118 35.3145C62.1142 36.0115 61.9516 36.6979 61.726 37.3645L64.8445 36.7344C65.0721 36.0684 65.2348 35.382 65.3302 34.6846ZM64.8445 36.7344L61.726 37.3645C61.0255 39.4255 59.7376 41.2361 58.0212 42.5735L61.1397 41.9436C62.8561 40.6062 64.1439 38.7953 64.8445 36.7344ZM61.1397 41.9436L58.0212 42.5735C57.4655 43.0025 56.8721 43.3803 56.2482 43.702L59.3667 43.0719C59.9925 42.7536 60.5863 42.3758 61.1397 41.9436ZM59.3667 43.0719L56.2482 43.702C55.7621 43.9461 55.2598 44.1565 54.7449 44.3319L57.8634 43.702C58.3799 43.5309 58.8825 43.3201 59.3667 43.0719ZM57.8634 43.702L54.7449 44.3319C54.2867 44.4832 53.8194 44.6056 53.3459 44.6985L56.4653 44.0686C56.9385 43.9755 57.4054 43.8532 57.8634 43.702ZM19.3631 50.7823L16.2446 51.4028C58.103 111.985 56.8571 144.838 56.7923 146.569L59.9107 145.939C59.984 144.208 61.2299 111.355 19.3706 50.7823H19.3631ZM19.3631 50.7823L16.2446 51.4028C58.103 111.985 56.8571 144.838 56.7923 146.569L59.9107 145.939C59.984 144.208 61.2299 111.355 19.3706 50.7823H19.3631ZM19.3631 50.7823L16.2446 51.4028C18.3925 54.5152 20.4283 57.5522 22.3519 60.5141L25.4704 59.8842C23.5436 56.9223 21.5079 53.8884 19.3631 50.7823ZM25.4704 59.8842L22.3519 60.5141C31.0904 73.7326 38.7205 87.6525 45.164 102.131L48.2834 101.51C41.8415 87.028 34.211 73.1049 25.4704 59.8842ZM48.2834 101.51L45.164 102.131C48.3948 109.445 51.112 116.977 53.2961 124.669L56.4145 124.039C54.2318 116.349 51.5148 108.821 48.2834 101.51ZM56.4145 124.039L53.2961 124.669C54.5576 129.115 55.5275 133.638 56.1994 138.21L59.3178 137.579C58.645 133.008 57.6752 128.485 56.4145 124.039ZM59.3178 137.579L56.1994 138.21C56.5601 140.616 56.7626 143.044 56.8054 145.478L59.9239 144.848C59.881 142.414 59.6786 139.986 59.3178 137.579ZM59.9239 144.848L56.8054 145.478C56.8054 146.051 56.796 146.418 56.7904 146.569L59.9088 145.939C59.9145 145.788 59.9286 145.431 59.9239 144.848Z" fill="url(#paint8_linear_1635_23265)"/>
<path fill-rule="evenodd" clip-rule="evenodd" d="M35.7305 66.908L41.7438 64.2375L42.8854 66.8233L36.8721 69.4844L35.7305 66.908Z" fill="white"/>
<path fill-rule="evenodd" clip-rule="evenodd" d="M45.9399 61.9339L51.9533 59.2728L53.0948 61.8492L47.0815 64.5197L45.9399 61.9339Z" fill="white"/>
<path fill-rule="evenodd" clip-rule="evenodd" d="M56.1484 56.9692L62.1618 54.299L63.3033 56.8847L57.29 59.5456L56.1484 56.9692Z" fill="white"/>
<path fill-rule="evenodd" clip-rule="evenodd" d="M66.3579 51.9951L72.3712 49.3342L73.5128 51.9106L67.4995 54.5808L66.3579 51.9951Z" fill="white"/>
<path fill-rule="evenodd" clip-rule="evenodd" d="M76.5674 47.0306L82.5807 44.3601L83.7214 46.9459L77.708 49.6069L76.5674 47.0306Z" fill="white"/>
<path fill-rule="evenodd" clip-rule="evenodd" d="M86.7773 42.0565L92.7907 39.3954L93.9313 41.9717L87.918 44.6422L86.7773 42.0565Z" fill="white"/>
<path fill-rule="evenodd" clip-rule="evenodd" d="M0.939581 47.8579L0 51.619L12.2146 52.5593L11.275 50.6788L0.939581 47.8579Z" fill="#87B8FF"/>
<path fill-rule="evenodd" clip-rule="evenodd" d="M12.2144 42.2162L15.0331 39.3954L16.9123 47.8579L14.0935 46.9176L12.2144 42.2162Z" fill="#87B8FF"/>
<g filter="url(#filter0_d_1635_23265)">
<path fill-rule="evenodd" clip-rule="evenodd" d="M74.3612 69.1697C75.4167 68.6846 76.6474 69.2343 77.1101 70.3974L77.5206 71.4295C80.3572 70.6052 83.2626 70.7507 85.5385 71.9761C86.5796 72.5367 87.0232 73.9062 86.5292 75.0348C86.0353 76.1635 84.7907 76.624 83.7495 76.0634C82.6851 75.4903 81.0569 75.2767 79.2174 75.6953L82.2856 83.4086C84.2435 82.8389 85.0676 82.7967 86.8368 83.1732C89.1849 83.6731 91.4325 85.0951 92.4577 87.6724C93.4828 90.2497 93.3392 93.8636 92.0531 96.0337C91.0841 97.6687 90.3487 98.1872 88.6128 99.3152L89.0231 100.347C89.4857 101.51 89.0051 102.846 87.9496 103.331C86.8941 103.816 85.6634 103.266 85.2008 102.103L84.7903 101.071C81.9537 101.895 79.0483 101.75 76.7725 100.525C75.7313 99.964 75.2877 98.5945 75.7817 97.4659C76.2757 96.3372 77.5202 95.8766 78.5614 96.4373C79.6258 97.0103 81.254 97.224 83.0935 96.8054L80.0253 89.0922C78.0673 89.6618 76.0985 89.7617 74.3293 89.3851C71.9812 88.8853 69.7337 87.4633 68.7085 84.886C67.6833 82.3087 68.2797 79.5796 69.5658 77.4096C70.5348 75.7745 71.9622 74.3136 73.6981 73.1855L73.2878 72.1541C72.8252 70.991 73.3057 69.6548 74.3612 69.1697ZM75.3955 77.4527C74.3801 78.1989 73.5958 79.0696 73.0801 79.9398C72.2776 81.2938 72.2401 82.3985 72.5308 83.1293C72.8215 83.8601 73.5904 84.5942 75.0555 84.906C75.997 85.1065 77.1246 85.0986 78.328 84.825L75.3955 77.4527ZM83.9829 87.6757L86.9154 95.048C87.3877 94.546 87.6281 94.6343 88.1438 93.7642C89.7029 91.1334 88.9261 90.1599 88.6354 89.4291C88.2443 88.7604 87.8332 88.123 86.3009 87.5589C85.9731 87.4383 84.7236 87.215 83.9829 87.6757Z" fill="#65A1FF"/>
</g>
<path fill-rule="evenodd" clip-rule="evenodd" d="M74.3612 69.1697C75.4167 68.6846 76.6474 69.2343 77.1101 70.3974L77.5206 71.4295C80.3572 70.6052 83.2626 70.7507 85.5385 71.9761C86.5796 72.5367 87.0232 73.9062 86.5292 75.0348C86.0353 76.1635 84.7907 76.624 83.7495 76.0634C82.6851 75.4903 81.0569 75.2767 79.2174 75.6953L82.2856 83.4086C84.2435 82.8389 85.0676 82.7967 86.8368 83.1732C89.1849 83.6731 91.4325 85.0951 92.4577 87.6724C93.4828 90.2497 93.3392 93.8636 92.0531 96.0337C91.0841 97.6687 90.3487 98.1872 88.6128 99.3152L89.0231 100.347C89.4857 101.51 89.0051 102.846 87.9496 103.331C86.8941 103.816 85.6634 103.266 85.2008 102.103L84.7903 101.071C81.9537 101.895 79.0483 101.75 76.7725 100.525C75.7313 99.964 75.2877 98.5945 75.7817 97.4659C76.2757 96.3372 77.5202 95.8766 78.5614 96.4373C79.6258 97.0103 81.254 97.224 83.0935 96.8054L80.0253 89.0922C78.0673 89.6618 76.0985 89.7617 74.3293 89.3851C71.9812 88.8853 69.7337 87.4633 68.7085 84.886C67.6833 82.3087 68.2797 79.5796 69.5658 77.4096C70.5348 75.7745 71.9622 74.3136 73.6981 73.1855L73.2878 72.1541C72.8252 70.991 73.3057 69.6548 74.3612 69.1697ZM75.3955 77.4527C74.3801 78.1989 73.5958 79.0696 73.0801 79.9398C72.2776 81.2938 72.2401 82.3985 72.5308 83.1293C72.8215 83.8601 73.5904 84.5942 75.0555 84.906C75.997 85.1065 77.1246 85.0986 78.328 84.825L75.3955 77.4527ZM83.9829 87.6757L86.9154 95.048C87.3877 94.546 87.6281 94.6343 88.1438 93.7642C89.7029 91.1334 88.9261 90.1599 88.6354 89.4291C88.2443 88.7604 87.8332 88.123 86.3009 87.5589C85.9731 87.4383 84.7236 87.215 83.9829 87.6757Z" fill="white"/>
<g filter="url(#filter1_d_1635_23265)">
<path d="M73.4289 79.9397C73.9446 79.0695 74.7289 78.1987 75.7443 77.4526L78.6768 84.8248C77.4734 85.0984 76.3459 85.1063 75.4043 84.9059C73.9393 84.594 73.1703 83.86 72.8796 83.1292C72.5889 82.3984 72.6265 81.2937 73.4289 79.9397Z" fill="url(#paint9_linear_1635_23265)"/>
<path d="M87.2643 95.0478L84.3318 87.6756C85.0724 87.2149 86.322 87.4382 86.6497 87.5588C88.1821 88.1229 88.5931 88.7602 88.9843 89.4289C89.0158 89.5083 89.0531 89.5904 89.0925 89.6773C89.4161 90.3906 89.8825 91.4188 88.4926 93.764C88.1607 94.324 87.9429 94.487 87.7039 94.6659C87.5715 94.765 87.4326 94.8689 87.2643 95.0478Z" fill="url(#paint10_linear_1635_23265)"/>
<path fill-rule="evenodd" clip-rule="evenodd" d="M64.5457 29.654L86.1147 19.6495C87.7148 21.878 118.111 64.2376 128.132 114.383L106.653 124.171C105.833 122.366 104.545 120.815 102.923 119.677C101.301 118.539 99.4039 117.857 97.4291 117.702C96.4478 117.63 95.4614 117.687 94.4948 117.871C92.8547 118.2 91.3094 118.893 89.9737 119.901C88.638 120.909 87.5461 122.204 86.779 123.692C86.0119 125.179 85.5892 126.821 85.5424 128.494C85.4955 130.167 85.8257 131.829 86.5084 133.358L59.5772 145.647L59.5772 145.645C59.6428 143.894 60.8708 111.128 19.1348 50.7164L44.6134 38.9064C45.5245 40.4064 46.7792 41.6679 48.2738 42.5868C49.7683 43.5056 51.4599 44.0555 53.2087 44.1909C54.189 44.2678 55.1752 44.2107 56.1402 44.0215C57.6809 43.7126 59.1388 43.081 60.4182 42.168C61.6975 41.2551 62.7693 40.0816 63.5632 38.7246C64.3571 37.3676 64.8551 35.8579 65.0244 34.2946C65.1937 32.7313 65.0306 31.1497 64.5457 29.654ZM77.4589 70.3973C76.9963 69.2342 75.7656 68.6845 74.7101 69.1696C73.6546 69.6547 73.174 70.9908 73.6367 72.154L74.047 73.1854C72.3111 74.3134 70.8836 75.7744 69.9146 77.4094C68.6285 79.5795 68.0322 82.3085 69.0574 84.8858C70.0825 87.4632 72.3301 88.8852 74.6782 89.385C76.4474 89.7616 78.4162 89.6617 80.3742 89.092L83.4423 96.8053C81.6029 97.2239 79.9746 97.0102 78.9102 96.4371C77.869 95.8765 76.6245 96.337 76.1305 97.4657C75.6365 98.5944 76.0801 99.9638 77.1213 100.524C79.3972 101.75 82.3025 101.895 85.1391 101.071L85.5496 102.103C86.0123 103.266 87.2429 103.816 88.2984 103.331C89.3539 102.846 89.8345 101.51 89.3719 100.347L88.9616 99.315C90.6975 98.187 91.433 97.6686 92.402 96.0335C93.6881 93.8634 93.8317 90.2496 92.8065 87.6723C91.7813 85.0949 89.5338 83.6729 87.1857 83.1731C85.4165 82.7965 84.5924 82.8388 82.6344 83.4084L79.5663 75.6951C81.4057 75.2765 83.034 75.4902 84.0984 76.0633C85.1396 76.6239 86.3841 76.1634 86.8781 75.0347C87.3721 73.906 86.9285 72.5366 85.8873 71.976C83.6114 70.7506 80.7061 70.6051 77.8695 71.4293L77.4589 70.3973Z" fill="url(#paint11_linear_1635_23265)"/>
</g>
<g opacity="0.85">
<path fill-rule="evenodd" clip-rule="evenodd" d="M126.843 115.558C126.843 115.558 129.406 111.167 127.043 111.355C125.307 111.487 124.587 111.233 123.085 111.797C119.71 112.977 116.256 113.919 112.75 114.618C108.728 115.521 104.557 115.521 100.535 114.618C97.4388 114.015 94.2935 113.701 91.1393 113.677C87.6243 113.527 82.9443 115.671 79.4284 115.831C72.3665 116.16 67.4731 115.22 61.0727 114.618C57.0748 114.242 55.7801 113.743 50.3408 115.765C50.3408 115.765 57.0457 133.546 55.4352 148.468C55.3826 148.957 102.414 126.841 102.414 126.841L126.843 115.558Z" fill="white"/>
<path fill-rule="evenodd" clip-rule="evenodd" d="M126.843 115.558C126.843 115.558 129.406 111.167 127.043 111.355C125.307 111.487 124.587 111.233 123.085 111.797C119.71 112.977 116.256 113.919 112.75 114.618C108.728 115.521 104.557 115.521 100.535 114.618C97.4388 114.015 94.2935 113.701 91.1393 113.677C87.6243 113.527 82.9443 115.671 79.4284 115.831C72.3665 116.16 67.4731 115.22 61.0727 114.618C57.0748 114.242 55.7801 113.743 50.3408 115.765C50.3408 115.765 57.0457 133.546 55.4352 148.468C55.3826 148.957 102.414 126.841 102.414 126.841L126.843 115.558Z" fill="#FFEEF7" fill-opacity="0.6"/>
<path fill-rule="evenodd" clip-rule="evenodd" d="M126.843 115.558C126.843 115.558 129.406 111.167 127.043 111.355C125.307 111.487 124.587 111.233 123.085 111.797C119.71 112.977 116.256 113.919 112.75 114.618C108.728 115.521 104.557 115.521 100.535 114.618C97.4388 114.015 94.2935 113.701 91.1393 113.677C87.6243 113.527 82.9443 115.671 79.4284 115.831C72.3665 116.16 67.4731 115.22 61.0727 114.618C57.0748 114.242 55.7801 113.743 50.3408 115.765C50.3408 115.765 57.0457 133.546 55.4352 148.468C55.3826 148.957 102.414 126.841 102.414 126.841L126.843 115.558Z" fill="#629FFF"/>
</g>
</g>
<defs>
<filter id="filter0_d_1635_23265" x="64.188" y="68.9933" width="32.9468" height="42.5142" filterUnits="userSpaceOnUse" color-interpolation-filters="sRGB">
<feFlood flood-opacity="0" result="BackgroundImageFix"/>
<feColorMatrix in="SourceAlpha" type="matrix" values="0 0 0 0 0 0 0 0 0 0 0 0 0 0 0 0 0 0 127 0" result="hardAlpha"/>
<feOffset dy="4"/>
<feGaussianBlur stdDeviation="2"/>
<feComposite in2="hardAlpha" operator="out"/>
<feColorMatrix type="matrix" values="0 0 0 0 0.129789 0 0 0 0 0.397721 0 0 0 0 0.819385 0 0 0 1 0"/>
<feBlend mode="normal" in2="BackgroundImageFix" result="effect1_dropShadow_1635_23265"/>
<feBlend mode="normal" in="SourceGraphic" in2="effect1_dropShadow_1635_23265" result="shape"/>
</filter>
<filter id="filter1_d_1635_23265" x="15.1348" y="19.6495" width="116.997" height="133.997" filterUnits="userSpaceOnUse" color-interpolation-filters="sRGB">
<feFlood flood-opacity="0" result="BackgroundImageFix"/>
<feColorMatrix in="SourceAlpha" type="matrix" values="0 0 0 0 0 0 0 0 0 0 0 0 0 0 0 0 0 0 127 0" result="hardAlpha"/>
<feOffset dy="4"/>
<feGaussianBlur stdDeviation="2"/>
<feComposite in2="hardAlpha" operator="out"/>
<feColorMatrix type="matrix" values="0 0 0 0 0 0 0 0 0 0 0 0 0 0 0 0 0 0 0.25 0"/>
<feBlend mode="normal" in2="BackgroundImageFix" result="effect1_dropShadow_1635_23265"/>
<feBlend mode="normal" in="SourceGraphic" in2="effect1_dropShadow_1635_23265" result="shape"/>
</filter>
<linearGradient id="paint0_linear_1635_23265" x1="79.0193" y1="-15.2716" x2="80.5561" y2="248.185" gradientUnits="userSpaceOnUse">
<stop stop-color="#CAE0FF" stop-opacity="0"/>
<stop offset="1" stop-color="#BCD8FF"/>
</linearGradient>
<linearGradient id="paint1_linear_1635_23265" x1="122.7" y1="27.6571" x2="135.16" y2="38.4561" gradientUnits="userSpaceOnUse">
<stop stop-color="#94BFFF"/>
<stop offset="1" stop-color="#4C94FE"/>
</linearGradient>
<linearGradient id="paint2_linear_1635_23265" x1="104.387" y1="152.579" x2="116.847" y2="163.378" gradientUnits="userSpaceOnUse">
<stop stop-color="#94BFFF"/>
<stop offset="1" stop-color="#4C94FE"/>
</linearGradient>
<linearGradient id="paint3_linear_1635_23265" x1="147.966" y1="107.971" x2="155.923" y2="116.124" gradientUnits="userSpaceOnUse">
<stop stop-color="#70A8FF"/>
<stop offset="1" stop-color="#5597FD"/>
</linearGradient>
<linearGradient id="paint4_linear_1635_23265" x1="73.8427" y1="0" x2="73.8427" y2="27.3417" gradientUnits="userSpaceOnUse">
<stop stop-color="#70A8FF"/>
<stop offset="1" stop-color="#5597FD"/>
</linearGradient>
<linearGradient id="paint5_linear_1635_23265" x1="39.1787" y1="145.198" x2="39.1787" y2="172.539" gradientUnits="userSpaceOnUse">
<stop stop-color="#70A8FF"/>
<stop offset="1" stop-color="#5597FD"/>
</linearGradient>
<linearGradient id="paint6_linear_1635_23265" x1="16.3033" y1="114.3" x2="7.46202" y2="121.484" gradientUnits="userSpaceOnUse">
<stop stop-color="#70A8FF"/>
<stop offset="1" stop-color="#5597FD"/>
</linearGradient>
<linearGradient id="paint7_linear_1635_23265" x1="73.2875" y1="145.647" x2="83.6379" y2="51.1226" gradientUnits="userSpaceOnUse">
<stop stop-color="#609EFE"/>
<stop offset="1" stop-color="#D7E8FB"/>
<stop offset="1" stop-color="#D7EEFB"/>
</linearGradient>
<linearGradient id="paint8_linear_1635_23265" x1="61.6743" y1="146.559" x2="61.6743" y2="19.6213" gradientUnits="userSpaceOnUse">
<stop stop-color="#609EFE"/>
<stop offset="1" stop-color="#C7D0F5"/>
</linearGradient>
<linearGradient id="paint9_linear_1635_23265" x1="73.636" y1="145.647" x2="83.9865" y2="51.1226" gradientUnits="userSpaceOnUse">
<stop stop-color="#609EFE"/>
<stop offset="1" stop-color="#D7E8FB"/>
<stop offset="1" stop-color="#D7EEFB"/>
</linearGradient>
<linearGradient id="paint10_linear_1635_23265" x1="73.636" y1="145.647" x2="83.9865" y2="51.1226" gradientUnits="userSpaceOnUse">
<stop stop-color="#609EFE"/>
<stop offset="1" stop-color="#D7E8FB"/>
<stop offset="1" stop-color="#D7EEFB"/>
</linearGradient>
<linearGradient id="paint11_linear_1635_23265" x1="73.636" y1="145.647" x2="83.9865" y2="51.1226" gradientUnits="userSpaceOnUse">
<stop stop-color="#609EFE"/>
<stop offset="1" stop-color="#D7E8FB"/>
<stop offset="1" stop-color="#D7EEFB"/>
</linearGradient>
<clipPath id="clip0_1635_23265">
<rect width="142.581" height="128.847" fill="white" transform="translate(0 19.6213)"/>
</clipPath>
</defs>
</svg>
