<svg width="24" height="24" viewBox="0 0 24 24" fill="none" xmlns="http://www.w3.org/2000/svg">
<g clip-path="url(#clip0_7_31221)">
<path fill-rule="evenodd" clip-rule="evenodd" d="M8.91752 5.09313C7.80215 5.34095 6.95285 5.61397 5.90227 6.06242C5.72857 6.13657 5.70104 6.16677 5.45881 6.54962C4.29739 8.3852 3.54617 10.2734 3.20617 12.2117C3.02937 13.2196 2.99594 13.6569 3.00037 14.9031C3.00265 15.5412 3.01788 16.1497 3.03426 16.2555L3.064 16.4478L3.52103 16.7584C4.6634 17.535 5.85225 18.1342 7.09572 18.5602C7.35156 18.6478 7.58035 18.712 7.60415 18.7029C7.69018 18.6699 8.56596 17.2712 8.56596 17.1668C8.56596 17.1541 8.47501 17.1078 8.36381 17.0639C8.08847 16.9554 7.18871 16.5084 7.12919 16.4506C7.06837 16.3916 7.08381 16.3681 7.27154 16.2333L7.42429 16.1236L7.7754 16.2734C9.63 17.0651 11.7523 17.3216 13.7164 16.9915C14.6211 16.8394 15.442 16.5903 16.4077 16.1746C16.5312 16.1214 16.5345 16.1222 16.689 16.2445C16.7749 16.3125 16.8453 16.3865 16.8453 16.409C16.8453 16.4582 16.1121 16.8427 15.7203 16.999C15.5656 17.0606 15.4246 17.1239 15.407 17.1395C15.3375 17.2011 16.249 18.7126 16.358 18.7162C16.38 18.7169 16.5856 18.6529 16.815 18.5739C18.1098 18.1281 19.2813 17.54 20.4312 16.7586L20.8882 16.448L20.9116 16.2556C20.9244 16.1498 20.9462 15.6994 20.9599 15.2546C21.056 12.1542 20.254 9.32591 18.4913 6.54811L18.2313 6.13847L17.7492 5.93811C16.8599 5.56851 15.7007 5.21748 14.844 5.05829L14.5302 5L14.4674 5.08241C14.4328 5.12769 14.3211 5.34453 14.2193 5.56422L14.034 5.96367L13.8576 5.94205C13.7606 5.93016 13.5309 5.90148 13.3472 5.87834C12.9115 5.82347 11.0806 5.82318 10.6226 5.87792C10.4292 5.90106 10.1919 5.92904 10.0953 5.94011L9.91947 5.96029L9.69096 5.49222C9.42454 4.94649 9.4706 4.97026 8.91752 5.09313ZM9.63618 10.8908C10.0936 11.1169 10.4284 11.5559 10.556 12.0971C10.6259 12.3934 10.6041 12.881 10.5083 13.1662C10.102 14.376 8.77612 14.7429 7.91578 13.8835C7.35286 13.3213 7.21575 12.4089 7.58207 11.6629C7.78159 11.2566 8.10991 10.962 8.52574 10.8162C8.72114 10.7477 8.80998 10.7367 9.06908 10.7489C9.33757 10.7617 9.41308 10.7806 9.63618 10.8908ZM15.6191 10.894C16.2207 11.1913 16.5825 11.8061 16.5811 12.5286C16.58 13.0557 16.415 13.4933 16.083 13.849C15.168 14.8296 13.6907 14.317 13.3963 12.9167C13.2417 12.1814 13.5629 11.3636 14.1557 10.9832C14.4446 10.7978 14.6875 10.7341 15.0456 10.75C15.317 10.7619 15.3881 10.7798 15.6191 10.894Z" fill="#D2D8E0"/>
<path fill-rule="evenodd" clip-rule="evenodd" d="M8.91752 5.09313C7.80215 5.34095 6.95285 5.61397 5.90227 6.06242C5.72857 6.13657 5.70104 6.16677 5.45881 6.54962C4.29739 8.3852 3.54617 10.2734 3.20617 12.2117C3.02937 13.2196 2.99594 13.6569 3.00037 14.9031C3.00265 15.5412 3.01788 16.1497 3.03426 16.2555L3.064 16.4478L3.52103 16.7584C4.6634 17.535 5.85225 18.1342 7.09572 18.5602C7.35156 18.6478 7.58035 18.712 7.60415 18.7029C7.69018 18.6699 8.56596 17.2712 8.56596 17.1668C8.56596 17.1541 8.47501 17.1078 8.36381 17.0639C8.08847 16.9554 7.18871 16.5084 7.12919 16.4506C7.06837 16.3916 7.08381 16.3681 7.27154 16.2333L7.42429 16.1236L7.7754 16.2734C9.63 17.0651 11.7523 17.3216 13.7164 16.9915C14.6211 16.8394 15.442 16.5903 16.4077 16.1746C16.5312 16.1214 16.5345 16.1222 16.689 16.2445C16.7749 16.3125 16.8453 16.3865 16.8453 16.409C16.8453 16.4582 16.1121 16.8427 15.7203 16.999C15.5656 17.0606 15.4246 17.1239 15.407 17.1395C15.3375 17.2011 16.249 18.7126 16.358 18.7162C16.38 18.7169 16.5856 18.6529 16.815 18.5739C18.1098 18.1281 19.2813 17.54 20.4312 16.7586L20.8882 16.448L20.9116 16.2556C20.9244 16.1498 20.9462 15.6994 20.9599 15.2546C21.056 12.1542 20.254 9.32591 18.4913 6.54811L18.2313 6.13847L17.7492 5.93811C16.8599 5.56851 15.7007 5.21748 14.844 5.05829L14.5302 5L14.4674 5.08241C14.4328 5.12769 14.3211 5.34453 14.2193 5.56422L14.034 5.96367L13.8576 5.94205C13.7606 5.93016 13.5309 5.90148 13.3472 5.87834C12.9115 5.82347 11.0806 5.82318 10.6226 5.87792C10.4292 5.90106 10.1919 5.92904 10.0953 5.94011L9.91947 5.96029L9.69096 5.49222C9.42454 4.94649 9.4706 4.97026 8.91752 5.09313ZM9.63618 10.8908C10.0936 11.1169 10.4284 11.5559 10.556 12.0971C10.6259 12.3934 10.6041 12.881 10.5083 13.1662C10.102 14.376 8.77612 14.7429 7.91578 13.8835C7.35286 13.3213 7.21575 12.4089 7.58207 11.6629C7.78159 11.2566 8.10991 10.962 8.52574 10.8162C8.72114 10.7477 8.80998 10.7367 9.06908 10.7489C9.33757 10.7617 9.41308 10.7806 9.63618 10.8908ZM15.6191 10.894C16.2207 11.1913 16.5825 11.8061 16.5811 12.5286C16.58 13.0557 16.415 13.4933 16.083 13.849C15.168 14.8296 13.6907 14.317 13.3963 12.9167C13.2417 12.1814 13.5629 11.3636 14.1557 10.9832C14.4446 10.7978 14.6875 10.7341 15.0456 10.75C15.317 10.7619 15.3881 10.7798 15.6191 10.894Z" fill="#D2D8E0"/>
</g>
<defs>
<clipPath id="clip0_7_31221">
<rect width="24" height="24" fill="white"/>
</clipPath>
</defs>
</svg>
