<svg width="24" height="24" viewBox="0 0 24 24" fill="none" xmlns="http://www.w3.org/2000/svg">
<path fill-rule="evenodd" clip-rule="evenodd" d="M4.99902 6C3.89445 6 2.99902 6.89543 2.99902 8V18C2.99902 19.1046 3.89445 20 4.99902 20H20.999C22.1036 20 22.999 19.1046 22.999 18V8C22.999 6.89543 22.1036 6 20.999 6H4.99902ZM6.43495 8.3897C6.09789 8.14894 5.62948 8.22701 5.38872 8.56407C5.14797 8.90113 5.22604 9.36954 5.56309 9.6103L11.4006 13.78C12.3568 14.4629 13.6413 14.4629 14.5974 13.78L20.435 9.6103C20.772 9.36954 20.8501 8.90113 20.6093 8.56407C20.3686 8.22701 19.9002 8.14894 19.5631 8.3897L13.7256 12.5594C13.2909 12.8698 12.7071 12.8698 12.2725 12.5594L6.43495 8.3897Z" fill="#949494"/>
</svg>
