<svg width="24" height="24" viewBox="0 0 24 24" fill="none" xmlns="http://www.w3.org/2000/svg">
<g clip-path="url(#clip0_7_31127)">
<path d="M9.60633 19.4797C9.51482 19.5033 9.39944 19.5077 9.26417 19.4841L9.42827 19.5395C10.3922 19.8387 11.4181 20 12.4829 20C13.6089 20 14.715 19.8171 15.7295 19.4831C15.2203 19.584 15.0293 19.2697 15.0293 19.0061L15.0333 18.4322L15.0412 16.2365C15.0412 15.2918 14.7229 14.6874 14.3569 14.3731C16.6207 14.1214 19 13.2652 19 9.39984C19 8.29188 18.6061 7.39833 17.9576 6.69362C18.061 6.44183 18.4151 5.4096 17.8541 4.02477C17.8541 4.02477 17.0027 3.74642 15.0531 5.05601C14.2415 4.82931 13.3741 4.71669 12.5068 4.71669C11.6474 4.71472 10.792 4.82931 9.96044 5.057C8.01486 3.7597 7.15944 4.02378 7.15944 4.02378C6.60243 5.40861 6.95653 6.44084 7.05998 6.69263C6.65813 7.12834 6.35177 7.64077 6.18069 8.22696C6.07326 8.58989 6.01358 8.98085 6.01358 9.39984C6.01358 13.2519 8.38488 14.1214 10.6487 14.3731C10.3543 14.6249 10.0878 15.0651 10.0002 15.7196C9.41536 15.9837 7.9512 16.4115 7.03213 14.8885C6.84115 14.5866 6.26822 13.8435 5.4685 13.8563C4.61309 13.8686 5.12236 14.3348 5.48044 14.5231C5.91412 14.7626 6.40747 15.6562 6.52285 15.9463C6.72975 16.5133 7.39021 17.5957 9.9485 17.1295C9.9485 17.9734 9.96044 18.7661 9.96044 19.0051C9.96044 19.1994 9.86097 19.4138 9.60633 19.4797Z" fill="#D2D8E0"/>
</g>
<defs>
<clipPath id="clip0_7_31127">
<rect width="24" height="24" fill="white"/>
</clipPath>
</defs>
</svg>
