<svg width="24" height="24" viewBox="0 0 24 24" fill="none" xmlns="http://www.w3.org/2000/svg">
<g clip-path="url(#clip0_7_31204)">
<path d="M12.0004 2.40002C6.69827 2.40002 2.40039 6.69791 2.40039 12C2.40039 17.3021 6.69827 21.6 12.0004 21.6C17.3025 21.6 21.6004 17.3021 21.6004 12C21.6004 6.69791 17.3025 2.40002 12.0004 2.40002ZM10.9822 5.91733C12.2398 5.92545 13.36 6.33129 14.316 7.14749C15.4758 8.13955 16.071 9.4121 16.1481 10.93C16.172 11.2573 16.1008 11.5432 15.8162 11.7389C15.7098 11.815 15.5858 11.8625 15.4558 11.8771C15.3258 11.8916 15.1943 11.8727 15.0738 11.8221C14.9532 11.7715 14.8476 11.6909 14.7669 11.5879C14.6863 11.4849 14.6334 11.3631 14.6131 11.2339C14.5649 10.9399 14.568 10.6355 14.509 10.3446C14.342 9.54465 13.9082 8.82514 13.2786 8.30412C12.649 7.78309 11.861 7.49149 11.044 7.47713C10.593 7.4672 10.2656 7.22054 10.2039 6.8413C10.1218 6.33761 10.4681 5.91373 10.9822 5.91733ZM6.1567 14.1988C5.75085 14.1361 5.5078 13.7902 5.51682 13.2874C5.56191 10.7645 7.55415 8.57561 10.0623 8.29377C10.2882 8.26741 10.5157 8.25566 10.7432 8.2586C11.1391 8.26581 11.4457 8.57426 11.4823 8.9801C11.4949 9.16715 11.4386 9.35235 11.3239 9.50068C11.2092 9.649 11.0442 9.75016 10.86 9.78502C10.5529 9.83598 10.2359 9.83327 9.93239 9.89685C9.13627 10.0661 8.42088 10.4998 7.90266 11.1274C7.38444 11.755 7.09393 12.5395 7.07841 13.3533C7.06624 13.9224 6.67843 14.2791 6.1567 14.1988ZM13.0136 18.8831C11.7488 18.8714 10.6237 18.4611 9.66679 17.6354C8.52276 16.6496 7.93429 15.387 7.85673 13.8827C7.83148 13.5571 7.89551 13.2681 8.1769 13.0683C8.28332 12.9888 8.40859 12.9382 8.54041 12.9217C8.67224 12.9052 8.8061 12.9232 8.92887 12.974C9.05164 13.0248 9.1591 13.1066 9.24072 13.2114C9.32233 13.3163 9.3753 13.4405 9.39443 13.572C9.44268 13.8728 9.43952 14.183 9.50265 14.4802C9.84175 16.1036 11.2884 17.2886 12.9492 17.3211C13.4768 17.3319 13.8222 17.6498 13.8154 18.1192C13.8055 18.5521 13.4664 18.8872 13.0136 18.8831ZM17.2525 14.7174C16.2604 15.8767 14.9865 16.4715 13.4682 16.5459C13.171 16.5712 12.9045 16.5098 12.7075 16.2754C12.5185 16.0499 12.4667 15.7852 12.5722 15.5088C12.6777 15.2323 12.8878 15.0497 13.1927 15.0091C13.4885 14.9699 13.7911 14.9663 14.0819 14.9054C15.7053 14.5659 16.8931 13.1197 16.9264 11.4607C16.9354 11.0003 17.1704 10.677 17.5469 10.6075C18.0542 10.5133 18.4903 10.8659 18.4867 11.3881C18.4754 12.6426 18.0682 13.7636 17.2511 14.7174H17.2525Z" fill="#D2D8E0"/>
</g>
<defs>
<clipPath id="clip0_7_31204">
<rect width="24" height="24" fill="white"/>
</clipPath>
</defs>
</svg>
