<svg width="24" height="24" viewBox="0 0 24 24" fill="none" xmlns="http://www.w3.org/2000/svg">
<g clip-path="url(#clip0_7_31187)">
<path fill-rule="evenodd" clip-rule="evenodd" d="M12.0562 7.37328C7.25029 9.22793 3.27807 10.7716 3.22908 10.8037C3.11039 10.8815 3.00014 11.0681 3 11.1915C2.99978 11.3432 3.08766 11.5215 3.20229 11.602C3.25886 11.6417 4.2505 12.0257 5.40598 12.4554C6.56145 12.885 7.52437 13.2549 7.54581 13.2773C7.56721 13.2998 7.94479 14.4817 8.38486 15.9038C8.82493 17.3259 9.21012 18.5439 9.24083 18.6104C9.27157 18.6769 9.34648 18.7617 9.40732 18.7988C9.53197 18.8749 9.78716 18.8884 9.90517 18.8252C9.94765 18.8025 10.5001 18.3612 11.1328 17.8446C12.5144 16.7165 12.4682 16.751 12.6553 16.709C12.9508 16.6426 13.0085 16.6764 14.7455 17.9371C17.7937 20.1494 17.5716 19.9978 17.7644 19.9978C17.964 19.9978 18.105 19.9098 18.2005 19.7255C18.2957 19.5419 21.398 4.55398 21.3708 4.40904C21.3294 4.18836 21.098 3.99695 20.8763 4.00004C20.8313 4.00065 16.8622 5.51859 12.0562 7.37328ZM17.3935 7.34591C17.4172 7.36961 17.4366 7.41529 17.4366 7.44743C17.4366 7.47958 16.1159 8.73284 14.5018 10.2324C10.5758 13.8799 10.4203 14.0275 10.3158 14.2059C10.1773 14.4421 10.1242 14.6801 10.0009 15.6165C9.93627 16.1072 9.86549 16.5132 9.83651 16.5592C9.78386 16.6428 9.63493 16.6675 9.54134 16.6082C9.5147 16.5913 9.28181 15.8442 9.02381 14.9478C8.52539 13.2163 8.49676 13.0648 8.61624 12.7892C8.64817 12.7155 8.72675 12.6058 8.79085 12.5454C8.93468 12.4097 17.2174 7.30393 17.2947 7.30328C17.3254 7.30303 17.3698 7.32221 17.3935 7.34591Z" fill="#D2D8E0"/>
</g>
<defs>
<clipPath id="clip0_7_31187">
<rect width="24" height="24" fill="white"/>
</clipPath>
</defs>
</svg>
