<svg width="24" height="24" viewBox="0 0 24 24" fill="none" xmlns="http://www.w3.org/2000/svg">
<g clip-path="url(#clip0_7_31170)">
<path fill-rule="evenodd" clip-rule="evenodd" d="M15.0929 4.06439C14.7315 4.14857 14.5115 4.22943 14.1981 4.39337C13.1768 4.92758 12.4452 5.8776 12.1535 7.04857C12.0495 7.46562 12.0138 8.26199 12.0803 8.67861L12.1179 8.91452L11.6896 8.88452C10.1626 8.7775 8.48639 8.20507 7.06242 7.30423C6.27603 6.8067 5.70601 6.32946 4.93494 5.52285C4.11189 4.66192 4.18389 4.68196 3.97133 5.25435C3.60932 6.22912 3.58022 7.11794 3.88125 8.00551C4.11551 8.6963 4.61212 9.45205 5.11226 9.87886L5.37295 10.1014H5.22918C4.9622 10.1014 4.38015 9.95165 4.02231 9.79093L3.66668 9.63118V9.86829C3.66668 10.715 4.09339 11.7421 4.73836 12.4479C5.21606 12.9706 5.68793 13.2831 6.35115 13.5161L6.71826 13.6451L6.32312 13.7069C6.09496 13.7425 5.73092 13.7586 5.46179 13.7451C4.91457 13.7174 4.92934 13.6746 5.25846 14.3351C5.61717 15.055 6.20628 15.6725 6.87887 16.0336C7.3696 16.297 7.62676 16.3844 8.13846 16.4618L8.54536 16.5234L8.36602 16.6714C8.26741 16.7529 8.04738 16.9085 7.87708 17.0174C6.54898 17.8663 5.06403 18.274 3.51226 18.2156C2.83036 18.1899 2.83036 18.1909 3.50561 18.5709C5.8149 19.8702 8.30821 20.2873 10.8941 19.8068C14.8083 19.0795 17.9218 16.1598 19.1999 12.0179C19.5439 10.9032 19.7276 9.72565 19.7276 8.6364V7.99758L19.9915 7.79018C20.4869 7.40077 21.2505 6.54354 21.5846 6.00202L21.6667 5.8689L21.4518 5.96538C20.9861 6.17451 19.6268 6.55027 19.566 6.48662C19.5561 6.47618 19.6951 6.35003 19.8749 6.20634C20.3837 5.79986 20.8717 5.09911 21.083 4.47159L21.1431 4.29332L20.5845 4.5736C20.0604 4.83657 19.4358 5.07459 18.9371 5.20142L18.7202 5.25661L18.4782 5.02748C17.9962 4.57105 17.4158 4.2514 16.7782 4.09126C16.342 3.9817 15.5053 3.96838 15.0929 4.06439Z" fill="#D2D8E0"/>
</g>
<defs>
<clipPath id="clip0_7_31170">
<rect width="24" height="24" fill="white"/>
</clipPath>
</defs>
</svg>
