<svg xmlns="http://www.w3.org/2000/svg" width="14" height="14" viewBox="0 0 14 14" fill="none">
  <path d="M12.4142 1.45127L11.99 1.87553V1.87553L12.4142 1.45127ZM1.58579 1.45127L1.16152 1.027L1.16152 1.027L1.58579 1.45127ZM9.66667 0.866638L9.67001 0.266638H9.66667V0.866638ZM4.33333 0.866638V0.266629L4.32999 0.266647L4.33333 0.866638ZM4.33333 6.59995C4.00196 6.59995 3.73333 6.86858 3.73333 7.19995C3.73333 7.53132 4.00196 7.79995 4.33333 7.79995V6.59995ZM9.66667 7.79995C9.99804 7.79995 10.2667 7.53132 10.2667 7.19995C10.2667 6.86858 9.99804 6.59995 9.66667 6.59995V7.79995ZM3.66667 4.26662C3.3353 4.26662 3.06667 4.53525 3.06667 4.86662C3.06667 5.19799 3.3353 5.46662 3.66667 5.46662V4.26662ZM10.3333 5.46662C10.6647 5.46662 10.9333 5.19799 10.9333 4.86662C10.9333 4.53525 10.6647 4.26662 10.3333 4.26662V5.46662ZM5 8.93329C4.66863 8.93329 4.4 9.20191 4.4 9.53329C4.4 9.86466 4.66863 10.1333 5 10.1333V8.93329ZM9 10.1333C9.33137 10.1333 9.6 9.86466 9.6 9.53329C9.6 9.20191 9.33137 8.93329 9 8.93329V10.1333ZM12.4 4.86548V8.86548H13.6V4.86548H12.4ZM9 12.2655H5V13.4655H9V12.2655ZM1.6 8.86548V4.86548H0.4V8.86548H1.6ZM5 12.2655C4.04023 12.2655 3.38076 12.2642 2.8854 12.1976C2.40731 12.1333 2.17288 12.0183 2.01005 11.8554L1.16152 12.704C1.58448 13.1269 2.11435 13.3047 2.72551 13.3869C3.31941 13.4668 4.07415 13.4655 5 13.4655V12.2655ZM0.4 8.86548C0.4 9.79133 0.398726 10.5461 0.478574 11.14C0.560742 11.7511 0.738568 12.281 1.16152 12.704L2.01005 11.8554C1.84722 11.6926 1.73215 11.4582 1.66787 10.9801C1.60127 10.4847 1.6 9.82525 1.6 8.86548H0.4ZM12.4 8.86548C12.4 9.82525 12.3987 10.4847 12.3321 10.9801C12.2678 11.4582 12.1528 11.6926 11.99 11.8554L12.8385 12.704C13.2614 12.281 13.4393 11.7511 13.5214 11.14C13.6013 10.5461 13.6 9.79133 13.6 8.86548H12.4ZM9 13.4655C9.92585 13.4655 10.6806 13.4668 11.2745 13.3869C11.8857 13.3047 12.4155 13.1269 12.8385 12.704L11.99 11.8554C11.8271 12.0183 11.5927 12.1333 11.1146 12.1976C10.6192 12.2642 9.95977 12.2655 9 12.2655V13.4655ZM13.6 4.86548C13.6 3.93963 13.6013 3.18489 13.5214 2.59099C13.4393 1.97983 13.2614 1.44996 12.8385 1.027L11.99 1.87553C12.1528 2.03836 12.2678 2.27279 12.3321 2.75088C12.3987 3.24624 12.4 3.90571 12.4 4.86548H13.6ZM1.6 4.86548C1.6 3.90571 1.60127 3.24624 1.66787 2.75088C1.73215 2.27279 1.84722 2.03836 2.01005 1.87553L1.16152 1.027C0.738568 1.44996 0.560742 1.97983 0.478574 2.59099C0.398726 3.18489 0.4 3.93963 0.4 4.86548H1.6ZM9.66333 1.46663C10.3931 1.47069 10.9014 1.48979 11.2837 1.56001C11.6488 1.62708 11.8464 1.73199 11.99 1.87553L12.8385 1.027C12.4698 0.658283 12.0186 0.474919 11.5005 0.379756C10.9996 0.287743 10.3902 0.270656 9.67001 0.266647L9.66333 1.46663ZM4.32999 0.266647C3.60977 0.270656 3.00043 0.287743 2.4995 0.379756C1.98142 0.474919 1.53024 0.658283 1.16152 1.027L2.01005 1.87553C2.15359 1.73199 2.35117 1.62708 2.7163 1.56001C3.09857 1.48979 3.60688 1.47069 4.33667 1.46663L4.32999 0.266647ZM4.33333 1.46664H9.66667V0.266638H4.33333V1.46664ZM4.33333 7.79995H9.66667V6.59995H4.33333V7.79995ZM3.66667 5.46662H10.3333V4.26662H3.66667V5.46662ZM5 10.1333H9V8.93329H5V10.1333Z" fill="#485F7D"/>
</svg>