<svg xmlns="http://www.w3.org/2000/svg" width="16" height="16" viewBox="0 0 16 16" fill="none">
  <g clip-path="url(#clip0_1878_16160)">
    <path d="M7.99992 14.6666C4.31792 14.6666 1.33325 11.682 1.33325 7.99998C1.33325 4.31798 4.31792 1.33331 7.99992 1.33331C11.6819 1.33331 14.6666 4.31798 14.6666 7.99998C14.6666 11.682 11.6819 14.6666 7.99992 14.6666ZM7.99992 13.3333C9.41441 13.3333 10.771 12.7714 11.7712 11.7712C12.7713 10.771 13.3333 9.41447 13.3333 7.99998C13.3333 6.58549 12.7713 5.22894 11.7712 4.22874C10.771 3.22855 9.41441 2.66665 7.99992 2.66665C6.58543 2.66665 5.22888 3.22855 4.22868 4.22874C3.22849 5.22894 2.66659 6.58549 2.66659 7.99998C2.66659 9.41447 3.22849 10.771 4.22868 11.7712C5.22888 12.7714 6.58543 13.3333 7.99992 13.3333ZM5.66658 9.99998C5.66658 9.63179 5.96506 9.33331 6.33325 9.33331H9.33325C9.42166 9.33331 9.50644 9.29819 9.56895 9.23568C9.63147 9.17317 9.66658 9.08838 9.66658 8.99998C9.66658 8.91157 9.63147 8.82679 9.56895 8.76428C9.50644 8.70176 9.42166 8.66665 9.33325 8.66665H6.66658C6.22456 8.66665 5.80063 8.49105 5.48807 8.17849C5.17551 7.86593 4.99992 7.44201 4.99992 6.99998C4.99992 6.55795 5.17551 6.13403 5.48807 5.82147C5.80063 5.50891 6.22456 5.33331 6.66658 5.33331H7.33325V4.66665C7.33325 4.29846 7.63173 3.99998 7.99992 3.99998C8.36811 3.99998 8.66658 4.29846 8.66658 4.66665V5.33331H9.66658C10.0348 5.33331 10.3333 5.63179 10.3333 5.99998C10.3333 6.36817 10.0348 6.66665 9.66658 6.66665H6.66658C6.57818 6.66665 6.49339 6.70176 6.43088 6.76428C6.36837 6.82679 6.33325 6.91157 6.33325 6.99998C6.33325 7.08838 6.36837 7.17317 6.43088 7.23568C6.49339 7.29819 6.57818 7.33331 6.66658 7.33331H9.33325C9.77528 7.33331 10.1992 7.50891 10.5118 7.82147C10.8243 8.13403 10.9999 8.55795 10.9999 8.99998C10.9999 9.44201 10.8243 9.86593 10.5118 10.1785C10.1992 10.4911 9.77528 10.6666 9.33325 10.6666H8.66658V11.3333C8.66658 11.7015 8.36811 12 7.99992 12C7.63173 12 7.33325 11.7015 7.33325 11.3333V10.6666H6.33325C5.96506 10.6666 5.66658 10.3682 5.66658 9.99998Z" fill="#485F7D"/>
  </g>
  <defs>
    <clipPath id="clip0_1878_16160">
      <rect width="16" height="16" fill="white"/>
    </clipPath>
  </defs>
</svg>