<svg xmlns="http://www.w3.org/2000/svg" width="16" height="16" viewBox="0 0 16 16" fill="none">
  <path d="M1.33325 12C1.33325 11.3715 1.33325 11.0572 1.52851 10.8619C1.72378 10.6667 2.03805 10.6667 2.66659 10.6667H13.3333C13.9618 10.6667 14.2761 10.6667 14.4713 10.8619C14.6666 11.0572 14.6666 11.3715 14.6666 12C14.6666 12.6286 14.6666 12.9428 14.4713 13.1381C14.2761 13.3334 13.9618 13.3334 13.3333 13.3334H2.66659C2.03805 13.3334 1.72378 13.3334 1.52851 13.1381C1.33325 12.9428 1.33325 12.6286 1.33325 12Z" stroke="#485F7D" stroke-width="1.2"/>
  <path d="M13.6666 10V7.33333C13.6666 4.81918 13.6666 3.5621 12.8855 2.78105C12.1045 2 10.8474 2 8.33325 2H7.66659C5.15243 2 3.89535 2 3.1143 2.78105C2.33325 3.5621 2.33325 4.81918 2.33325 7.33333V10" stroke="#485F7D" stroke-width="1.2" stroke-linecap="round"/>
  <path d="M6.33325 6.26669L7.28563 7.33335L9.66659 4.66669" stroke="#485F7D" stroke-width="1.2" stroke-linecap="round" stroke-linejoin="round"/>
</svg>