<svg width="107" height="68" viewBox="0 0 107 68" fill="none" xmlns="http://www.w3.org/2000/svg">
<path d="M106.038 0.0263672L59.5 0.0263674L5.98113e-07 37.6559L0 67.0882L106.038 0.0263672Z" fill="url(#paint0_linear_61_62304)"/>
<path d="M32.3862 32.6087C32.8315 32.4289 33.2855 32.4192 33.7483 32.5793C34.2112 32.7395 34.576 33.0286 34.8429 33.4467C35.0839 33.8243 35.2025 34.2184 35.1987 34.6289C35.1974 35.0283 35.0731 35.4209 34.8257 35.8065C34.5783 36.1922 34.2152 36.5378 33.7364 36.8433L30.6916 38.7865L26.1856 31.7259L29.0988 29.8666C29.5776 29.561 30.0385 29.3761 30.4814 29.3117C30.9311 29.243 31.3318 29.2909 31.6836 29.4555C32.0421 29.6158 32.3333 29.8713 32.5571 30.222C32.8196 30.6333 32.9278 31.0483 32.8818 31.4668C32.8424 31.881 32.6772 32.2616 32.3862 32.6087ZM29.461 33.7353L30.7558 32.909C31.0929 32.6938 31.3052 32.4539 31.3926 32.1894C31.4757 31.9181 31.4269 31.6408 31.2461 31.3576C31.0654 31.0743 30.8345 30.9133 30.5534 30.8744C30.2723 30.8355 29.9632 30.9236 29.626 31.1388L28.3312 31.9651L29.461 33.7353ZM32.7981 35.8193C33.1421 35.5998 33.3568 35.3489 33.4423 35.0665C33.5346 34.7799 33.4861 34.4882 33.2967 34.1914C33.103 33.888 32.8512 33.7165 32.5413 33.677C32.2271 33.6308 31.8981 33.7174 31.5541 33.9369L30.1582 34.8278L31.3719 36.7295L32.7981 35.8193ZM40.6366 28.3256C40.7657 28.5279 40.8684 28.7186 40.9448 28.8977L36.848 31.5122C37.1399 31.8953 37.4838 32.1219 37.8797 32.1919C38.2755 32.262 38.6555 32.1808 39.0197 31.9484C39.5457 31.6127 39.7758 31.1479 39.71 30.5541L41.2374 29.5793C41.4199 30.2221 41.3937 30.8651 41.1589 31.5084C40.9198 32.145 40.4665 32.6764 39.7989 33.1024C39.2594 33.4467 38.6985 33.6386 38.1163 33.678C37.5365 33.7064 36.9853 33.5789 36.4628 33.2954C35.947 33.0077 35.5062 32.5773 35.1404 32.0041C34.7703 31.4241 34.5634 30.8396 34.5197 30.2507C34.4759 29.6617 34.5912 29.1136 34.8654 28.6065C35.1396 28.0993 35.5532 27.6693 36.1062 27.3163C36.639 26.9763 37.1876 26.7876 37.752 26.75C38.3232 26.7082 38.859 26.8265 39.3594 27.105C39.8623 27.3725 40.288 27.7794 40.6366 28.3256ZM38.9116 28.8571C38.6725 28.4972 38.3559 28.2911 37.9619 28.2389C37.5637 28.1799 37.1791 28.2687 36.8082 28.5055C36.4575 28.7292 36.2296 29.0265 36.1246 29.3972C36.022 29.7569 36.0642 30.1428 36.2513 30.5549L38.9116 28.8571ZM42.4519 25.0317L44.1821 27.7427C44.3026 27.9315 44.4346 28.0418 44.5782 28.0735C44.7243 28.0942 44.9052 28.0357 45.121 27.898L45.7785 27.4783L46.5403 28.672L45.6501 29.2401C44.4565 30.0018 43.4896 29.8028 42.7493 28.6428L41.0256 25.942L40.358 26.3681L39.6156 25.2048L40.2832 24.7787L39.3988 23.3929L40.8251 22.4826L41.7095 23.8685L42.9639 23.068L43.7063 24.2312L42.4519 25.0317ZM45.4948 25.3675C45.1332 24.801 44.9239 24.2276 44.8667 23.6473C44.8162 23.0626 44.9079 22.5296 45.1416 22.0482C45.3821 21.5626 45.7418 21.167 46.2206 20.8614C46.6387 20.5946 47.0566 20.4465 47.4745 20.4171C47.899 20.3834 48.2875 20.4344 48.6398 20.5702L48.1298 19.7711L49.5561 18.8608L53.1326 24.4648L51.7063 25.3751L51.1834 24.5557C51.1691 24.9349 51.0561 25.3155 50.8443 25.6974C50.635 26.0683 50.3212 26.3871 49.9031 26.654C49.4311 26.9552 48.922 27.1093 48.3759 27.1161C47.8366 27.1187 47.3124 26.9739 46.8034 26.6819C46.2968 26.3789 45.8606 25.9407 45.4948 25.3675ZM49.918 22.5731C49.6986 22.2291 49.4439 21.9788 49.1541 21.8221C48.86 21.6587 48.5574 21.5861 48.2463 21.6043C47.931 21.6157 47.6418 21.7054 47.3788 21.8732C47.1158 22.0411 46.9139 22.2601 46.7731 22.5302C46.6324 22.8004 46.5708 23.1054 46.5884 23.4453C46.6085 23.7742 46.7261 24.1072 46.9413 24.4444C47.1565 24.7815 47.4133 25.0352 47.7117 25.2054C48.0126 25.3645 48.3173 25.4405 48.6259 25.4334C48.9413 25.4219 49.2271 25.3344 49.4833 25.1709C49.7463 25.003 49.9516 24.7819 50.0991 24.5074C50.2423 24.2262 50.3039 23.9212 50.2838 23.5924C50.2595 23.2568 50.1375 22.917 49.918 22.5731Z" fill="white"/>
<defs>
<linearGradient id="paint0_linear_61_62304" x1="39.7233" y1="12.5335" x2="51.5" y2="31.71" gradientUnits="userSpaceOnUse">
<stop stop-color="#5D34D3"/>
<stop offset="0.46875" stop-color="#C764E4"/>
<stop offset="0.651042" stop-color="#DD6EE7"/>
<stop offset="1" stop-color="#9710B9"/>
</linearGradient>
</defs>
</svg>