<svg width="24" height="25" viewBox="0 0 24 25" fill="none" xmlns="http://www.w3.org/2000/svg">
<path fill-rule="evenodd" clip-rule="evenodd" d="M13.9548 2.69293C15.8949 3.07964 17.6767 4.03311 19.0748 5.4327C20.0034 6.3605 20.7401 7.46221 21.2427 8.67486C21.7453 9.88751 22.004 11.1873 22.004 12.5C22.004 13.8127 21.7453 15.1125 21.2427 16.3251C20.7401 17.5378 20.0034 18.6395 19.0748 19.5673C17.6767 20.9669 15.8949 21.9204 13.9548 22.3071C12.0147 22.6938 10.0035 22.4964 8.17562 21.7398C6.34774 20.9832 4.78533 19.7015 3.68604 18.0568C2.58676 16.4121 2 14.4783 2 12.5C2 10.5217 2.58676 8.58792 3.68604 6.94319C4.78533 5.29847 6.34774 4.01676 8.17562 3.26019C10.0035 2.50363 12.0147 2.30622 13.9548 2.69293ZM8.16136 14.9216V15.1424C8.16136 15.5673 8.50575 15.9117 8.93059 15.9117H10.1913V16.9017C10.1913 17.3265 10.5357 17.6709 10.9605 17.6709H11.046C11.4708 17.6709 11.8152 17.3265 11.8152 16.9017V15.9117H13.4391C13.9775 15.9117 14.4938 15.68 14.8745 15.2676C15.2552 14.8552 15.469 14.2958 15.469 13.7126C15.469 13.1294 15.2552 12.57 14.8745 12.1576C14.4938 11.7452 13.9775 11.5135 13.4391 11.5135H10.1913C10.0836 11.5135 9.98033 11.4672 9.9042 11.3847C9.82806 11.3022 9.78529 11.1904 9.78529 11.0737C9.78529 10.9571 9.82806 10.8452 9.9042 10.7627C9.98033 10.6802 10.0836 10.6339 10.1913 10.6339H13.9306C14.3554 10.6339 14.6998 10.2895 14.6998 9.86467V9.64387C14.6998 9.21904 14.3554 8.87464 13.9306 8.87464H12.6699V7.88461C12.6699 7.45978 12.3255 7.11538 11.9007 7.11538H11.8152C11.3904 7.11538 11.046 7.45978 11.046 7.88461V8.87464H10.1913C9.6529 8.87464 9.13659 9.10633 8.7559 9.51873C8.37522 9.93114 8.16136 10.4905 8.16136 11.0737C8.16136 11.6569 8.37522 12.2163 8.7559 12.6287C9.13659 13.0411 9.6529 13.2728 10.1913 13.2728H13.4391C13.5468 13.2728 13.6501 13.3191 13.7262 13.4016C13.8023 13.4841 13.8451 13.596 13.8451 13.7126C13.8451 13.8292 13.8023 13.9411 13.7262 14.0236C13.6501 14.1061 13.5468 14.1524 13.4391 14.1524H8.93059C8.50575 14.1524 8.16136 14.4968 8.16136 14.9216Z" fill="#39B70D"/>
</svg>
