<svg width="16" height="16" viewBox="0 0 16 16" fill="none" xmlns="http://www.w3.org/2000/svg">
<path d="M6.33301 1.33325C5.78072 1.33325 5.33301 1.78097 5.33301 2.33325V2.99992C5.33301 3.5522 5.78072 3.99992 6.33301 3.99992H9.66634C10.2186 3.99992 10.6663 3.5522 10.6663 2.99992V2.33325C10.6663 1.78097 10.2186 1.33325 9.66634 1.33325H6.33301Z" fill="white"/>
<path fill-rule="evenodd" clip-rule="evenodd" d="M4.33333 2.69116C3.49473 2.73821 2.96532 2.87184 2.58579 3.25138C2 3.83717 2 4.77997 2 6.66559V10.6656C2 12.5512 2 13.494 2.58579 14.0798C3.17157 14.6656 4.11438 14.6656 6 14.6656H10C11.8856 14.6656 12.8284 14.6656 13.4142 14.0798C14 13.494 14 12.5512 14 10.6656V6.66559C14 4.77997 14 3.83717 13.4142 3.25138C13.0347 2.87184 12.5053 2.73821 11.6667 2.69116V3.00009C11.6667 4.10465 10.7712 5.00009 9.66667 5.00009H6.33333C5.22876 5.00009 4.33333 4.10465 4.33333 3.00009V2.69116ZM4.66667 9.16675C4.39052 9.16675 4.16667 9.39061 4.16667 9.66675C4.16667 9.94289 4.39052 10.1668 4.66667 10.1668H10C10.2761 10.1668 10.5 9.94289 10.5 9.66675C10.5 9.39061 10.2761 9.16675 10 9.16675H4.66667ZM4.66667 11.5001C4.39052 11.5001 4.16667 11.7239 4.16667 12.0001C4.16667 12.2762 4.39052 12.5001 4.66667 12.5001H8.33333C8.60948 12.5001 8.83333 12.2762 8.83333 12.0001C8.83333 11.7239 8.60948 11.5001 8.33333 11.5001H4.66667Z" fill="white"/>
<path d="M10.6667 2.99992V2.33325C10.6667 1.78097 10.219 1.33325 9.66667 1.33325H8V3.99992H9.66667C10.219 3.99992 10.6667 3.5522 10.6667 2.99992Z" fill="white"/>
<path d="M13.4142 14.0798C12.8284 14.6656 11.8856 14.6656 10 14.6656H8V12.5001H8.33333C8.60948 12.5001 8.83333 12.2762 8.83333 12.0001C8.83333 11.7239 8.60948 11.5001 8.33333 11.5001H8V10.1667H10C10.2761 10.1667 10.5 9.94289 10.5 9.66675C10.5 9.39061 10.2761 9.16675 10 9.16675H8V5.00009H9.66667C10.7712 5.00009 11.6667 4.10465 11.6667 3.00009V2.69116C12.5053 2.73821 13.0347 2.87184 13.4142 3.25138C14 3.83717 14 4.77997 14 6.66559V10.6656C14 12.5512 14 13.494 13.4142 14.0798Z" fill="white"/>
</svg>
