<svg width="20" height="20" viewBox="0 0 20 20" fill="none" xmlns="http://www.w3.org/2000/svg">
<path d="M13.1581 3.20175C13.1581 2.81419 12.8439 2.5 12.4563 2.5H4.737C3.96508 2.5 3.3335 3.13158 3.3335 3.90351V13.0263C3.3335 13.4139 3.64768 13.7281 4.03525 13.7281C4.42282 13.7281 4.737 13.4139 4.737 13.0263V3.90351H12.4563C12.8439 3.90351 13.1581 3.58932 13.1581 3.20175ZM15.2633 5.30702H7.54402C6.77209 5.30702 6.14051 5.9386 6.14051 6.71053V16.5351C6.14051 17.307 6.77209 17.9386 7.54402 17.9386H15.2633C16.0353 17.9386 16.6668 17.307 16.6668 16.5351V6.71053C16.6668 5.9386 16.0353 5.30702 15.2633 5.30702ZM15.2633 16.5351H7.54402V6.71053H15.2633V16.5351Z" fill="#485F7D"/>
</svg>
