<svg width="32" height="32" viewBox="0 0 32 32" fill="none" xmlns="http://www.w3.org/2000/svg">
<rect x="0.5" y="0.5" width="31" height="31" rx="15.5" stroke="#9E9E9E"/>
<path d="M16 23.5C13.9167 23.5 12.1458 22.7708 10.6875 21.3125C9.22917 19.8542 8.5 18.0833 8.5 16C8.5 13.9167 9.22917 12.1458 10.6875 10.6875C12.1458 9.22917 13.9167 8.5 16 8.5C16.1111 8.5 16.2292 8.50347 16.3542 8.51042C16.4792 8.51736 16.6389 8.52778 16.8333 8.54167C16.3333 8.98611 15.9444 9.53472 15.6667 10.1875C15.3889 10.8403 15.25 11.5278 15.25 12.25C15.25 13.5 15.6875 14.5625 16.5625 15.4375C17.4375 16.3125 18.5 16.75 19.75 16.75C20.4722 16.75 21.1597 16.6215 21.8125 16.3646C22.4653 16.1076 23.0139 15.75 23.4583 15.2917C23.4722 15.4583 23.4826 15.5937 23.4896 15.6979C23.4965 15.8021 23.5 15.9028 23.5 16C23.5 18.0833 22.7708 19.8542 21.3125 21.3125C19.8542 22.7708 18.0833 23.5 16 23.5ZM16 22.25C17.5139 22.25 18.8333 21.7812 19.9583 20.8438C21.0833 19.9063 21.7847 18.8056 22.0625 17.5417C21.7153 17.6944 21.3426 17.809 20.9444 17.8854C20.5463 17.9618 20.1482 18 19.75 18C18.1571 18 16.8005 17.4399 15.6803 16.3197C14.5601 15.1995 14 13.8429 14 12.25C14 11.9167 14.0347 11.559 14.1042 11.1771C14.1736 10.7951 14.2986 10.3611 14.4792 9.875C13.1181 10.25 11.9896 11.0104 11.0937 12.1562C10.1979 13.3021 9.75 14.5833 9.75 16C9.75 17.7361 10.3576 19.2118 11.5729 20.4271C12.7882 21.6424 14.2639 22.25 16 22.25Z" fill="#9E9E9E"/>
</svg>
