<svg width="24" height="24" viewBox="0 0 24 24" fill="none" xmlns="http://www.w3.org/2000/svg">
<mask id="path-1-outside-1_7_31257" maskUnits="userSpaceOnUse" x="4" y="3" width="17" height="17" fill="black">
<rect fill="white" x="4" y="3" width="17" height="17"/>
<path d="M14.5858 6.41421L7.39171 13.6083C7.19706 13.8029 7.09974 13.9003 7.03276 14.0186C6.96579 14.1368 6.93241 14.2704 6.86564 14.5374L6.20211 17.1915C6.11186 17.5526 6.06673 17.7331 6.16682 17.8332C6.2669 17.9333 6.44742 17.8881 6.80844 17.7979L6.80845 17.7979L9.46257 17.1344C9.72963 17.0676 9.86316 17.0342 9.98145 16.9672C10.0997 16.9003 10.1971 16.8029 10.3917 16.6083L17.5858 9.41421L17.5858 9.41421C18.2525 8.74755 18.5858 8.41421 18.5858 8C18.5858 7.58579 18.2525 7.25245 17.5858 6.58579L17.4142 6.41421C16.7475 5.74755 16.4142 5.41421 16 5.41421C15.5858 5.41421 15.2525 5.74755 14.5858 6.41421Z"/>
</mask>
<path d="M7.39171 13.6083L8.80593 15.0225L8.80593 15.0225L7.39171 13.6083ZM14.5858 6.41421L13.1716 5L13.1716 5L14.5858 6.41421ZM17.4142 6.41421L16 7.82843L16 7.82843L17.4142 6.41421ZM17.5858 6.58579L19 5.17157L19 5.17157L17.5858 6.58579ZM17.5858 9.41421L19 10.8284L17.5858 9.41421ZM10.3917 16.6083L8.9775 15.1941L8.9775 15.1941L10.3917 16.6083ZM6.86564 14.5374L8.80593 15.0225L8.80593 15.0225L6.86564 14.5374ZM6.20211 17.1915L4.26183 16.7065H4.26183L6.20211 17.1915ZM6.80845 17.7979L6.32338 15.8576L6.23624 15.8794L6.15141 15.9089L6.80845 17.7979ZM9.46257 17.1344L8.97751 15.1941L8.9775 15.1941L9.46257 17.1344ZM6.16682 17.8332L7.58103 16.419L7.58103 16.419L6.16682 17.8332ZM6.80844 17.7979L7.29351 19.7382L7.38065 19.7164L7.46549 19.6869L6.80844 17.7979ZM9.98145 16.9672L8.99605 15.2268L8.99605 15.2268L9.98145 16.9672ZM17.5858 9.41421L19 10.8284L19 10.8284L17.5858 9.41421ZM7.03276 14.0186L5.29236 13.0332L5.29236 13.0332L7.03276 14.0186ZM8.80593 15.0225L16 7.82843L13.1716 5L5.9775 12.1941L8.80593 15.0225ZM16 7.82843L16.1716 8L19 5.17157L18.8284 5L16 7.82843ZM16.1716 8L8.9775 15.1941L11.8059 18.0225L19 10.8284L16.1716 8ZM4.92536 14.0524L4.26183 16.7065L8.1424 17.6766L8.80593 15.0225L4.92536 14.0524ZM7.29352 19.7382L9.94764 19.0746L8.9775 15.1941L6.32338 15.8576L7.29352 19.7382ZM4.26183 16.7065C4.233 16.8218 4.15055 17.1296 4.12259 17.4155C4.0922 17.7261 4.06509 18.5599 4.7526 19.2474L7.58103 16.419C7.84671 16.6847 7.99914 17.0005 8.06644 17.2928C8.12513 17.5478 8.10965 17.7429 8.10358 17.8049C8.09699 17.8724 8.08792 17.904 8.097 17.8631C8.10537 17.8253 8.11788 17.7747 8.1424 17.6766L4.26183 16.7065ZM6.15141 15.9089L6.1514 15.9089L7.46549 19.6869L7.46549 19.6869L6.15141 15.9089ZM6.32338 15.8576C6.22531 15.8821 6.17467 15.8946 6.13694 15.903C6.09595 15.9121 6.12762 15.903 6.19506 15.8964C6.25712 15.8903 6.45223 15.8749 6.70717 15.9336C6.99955 16.0009 7.31535 16.1533 7.58103 16.419L4.7526 19.2474C5.44011 19.9349 6.27387 19.9078 6.58449 19.8774C6.87039 19.8494 7.17822 19.767 7.29351 19.7382L6.32338 15.8576ZM8.9775 15.1941C8.95279 15.2188 8.9317 15.2399 8.91214 15.2593C8.89271 15.2787 8.87671 15.2945 8.86293 15.308C8.84916 15.3215 8.83911 15.3312 8.83172 15.3382C8.82812 15.3416 8.82545 15.3441 8.8236 15.3458C8.82176 15.3475 8.8209 15.3483 8.82092 15.3482C8.82094 15.3482 8.82198 15.3473 8.82395 15.3456C8.82592 15.3439 8.82893 15.3413 8.83291 15.338C8.84086 15.3314 8.85292 15.3216 8.86866 15.3098C8.88455 15.2979 8.90362 15.2843 8.92564 15.2699C8.94776 15.2553 8.97131 15.2408 8.99605 15.2268L10.9668 18.7076C11.376 18.476 11.6864 18.1421 11.8059 18.0225L8.9775 15.1941ZM9.94764 19.0746C10.1117 19.0336 10.5577 18.9393 10.9669 18.7076L8.99605 15.2268C9.02079 15.2128 9.0453 15.2001 9.06917 15.1886C9.09292 15.1772 9.11438 15.1678 9.13277 15.1603C9.15098 15.1529 9.16553 15.1475 9.17529 15.1441C9.18017 15.1424 9.18394 15.1412 9.18642 15.1404C9.1889 15.1395 9.19024 15.1391 9.19026 15.1391C9.19028 15.1391 9.18918 15.1395 9.18677 15.1402C9.18435 15.1409 9.18084 15.1419 9.17606 15.1432C9.16625 15.1459 9.15278 15.1496 9.13414 15.1544C9.11548 15.1593 9.09368 15.1649 9.0671 15.1716C9.04034 15.1784 9.0114 15.1856 8.97751 15.1941L9.94764 19.0746ZM16.1716 8C16.3435 8.17192 16.4698 8.29842 16.5738 8.40785C16.6786 8.518 16.7263 8.57518 16.7457 8.60073C16.7644 8.62524 16.7226 8.57638 16.6774 8.46782C16.6254 8.34332 16.5858 8.18102 16.5858 8H20.5858C20.5858 7.17978 20.2282 6.57075 19.9258 6.1744C19.6586 5.82421 19.2934 5.46493 19 5.17157L16.1716 8ZM19 10.8284L19 10.8284L16.1716 7.99999L16.1716 8L19 10.8284ZM19 10.8284C19.2934 10.5351 19.6586 10.1758 19.9258 9.8256C20.2282 9.42925 20.5858 8.82022 20.5858 8H16.5858C16.5858 7.81898 16.6254 7.65668 16.6774 7.53218C16.7226 7.42362 16.7644 7.37476 16.7457 7.39927C16.7263 7.42482 16.6786 7.482 16.5738 7.59215C16.4698 7.70157 16.3435 7.82807 16.1716 8L19 10.8284ZM16 7.82843C16.1719 7.6565 16.2984 7.53019 16.4078 7.42615C16.518 7.32142 16.5752 7.27375 16.6007 7.25426C16.6252 7.23555 16.5764 7.27736 16.4678 7.32264C16.3433 7.37455 16.181 7.41421 16 7.41421V3.41421C15.1798 3.41421 14.5707 3.77177 14.1744 4.07417C13.8242 4.34136 13.4649 4.70664 13.1716 5L16 7.82843ZM18.8284 5C18.5351 4.70665 18.1758 4.34136 17.8256 4.07417C17.4293 3.77177 16.8202 3.41421 16 3.41421V7.41421C15.819 7.41421 15.6567 7.37455 15.5322 7.32264C15.4236 7.27736 15.3748 7.23555 15.3993 7.25426C15.4248 7.27375 15.482 7.32142 15.5922 7.42615C15.7016 7.53019 15.8281 7.6565 16 7.82843L18.8284 5ZM5.9775 12.1941C5.85793 12.3136 5.52401 12.624 5.29236 13.0332L8.77316 15.0039C8.75915 15.0287 8.7447 15.0522 8.73014 15.0744C8.71565 15.0964 8.70207 15.1155 8.69016 15.1313C8.67837 15.1471 8.66863 15.1591 8.66202 15.1671C8.65871 15.1711 8.65613 15.1741 8.65442 15.1761C8.65271 15.178 8.65178 15.1791 8.65176 15.1791C8.65174 15.1791 8.65252 15.1782 8.65422 15.1764C8.65593 15.1745 8.65842 15.1719 8.66184 15.1683C8.66884 15.1609 8.67852 15.1508 8.692 15.1371C8.7055 15.1233 8.72132 15.1073 8.74066 15.0879C8.76013 15.0683 8.78122 15.0472 8.80593 15.0225L5.9775 12.1941ZM8.80593 15.0225C8.8144 14.9886 8.82164 14.9597 8.82839 14.9329C8.8351 14.9063 8.84068 14.8845 8.84556 14.8659C8.85043 14.8472 8.85407 14.8337 8.8568 14.8239C8.85813 14.8192 8.85914 14.8157 8.85984 14.8132C8.86054 14.8108 8.86088 14.8097 8.86088 14.8097C8.86087 14.8098 8.86046 14.8111 8.85965 14.8136C8.85884 14.8161 8.85758 14.8198 8.85588 14.8247C8.85246 14.8345 8.84713 14.849 8.8397 14.8672C8.8322 14.8856 8.82284 14.9071 8.81141 14.9308C8.79993 14.9547 8.78717 14.9792 8.77316 15.0039L5.29236 13.0332C5.06071 13.4423 4.96637 13.8883 4.92536 14.0524L8.80593 15.0225Z" fill="#243A57" mask="url(#path-1-outside-1_7_31257)"/>
<path d="M13.5 6.5L16.5 4.5L19.5 7.5L17.5 10.5L13.5 6.5Z" fill="#243A57"/>
</svg>
