<svg width="24" height="24" viewBox="0 0 24 24" fill="none" xmlns="http://www.w3.org/2000/svg">
<path d="M16 7.5C16 7.77614 16.2239 8 16.5 8H19C19.5523 8 20 8.44772 20 9C20 9.55228 19.5523 10 19 10H15.5C14.6716 10 14 9.32843 14 8.5V5C14 4.44772 14.4477 4 15 4C15.5523 4 16 4.44772 16 5V7.5ZM10 8.5C10 9.32843 9.32843 10 8.5 10H5C4.44772 10 4 9.55228 4 9C4 8.44772 4.44772 8 5 8H7.5C7.77614 8 8 7.77614 8 7.5V5C8 4.44772 8.44772 4 9 4C9.55228 4 10 4.44772 10 5V8.5ZM16.5 16C16.2239 16 16 16.2239 16 16.5V19C16 19.5523 15.5523 20 15 20C14.4477 20 14 19.5523 14 19V15.5C14 14.6716 14.6716 14 15.5 14H19C19.5523 14 20 14.4477 20 15C20 15.5523 19.5523 16 19 16H16.5ZM8.5 14C9.32843 14 10 14.6716 10 15.5V19C10 19.5523 9.55228 20 9 20C8.44772 20 8 19.5523 8 19V16.5C8 16.2239 7.77614 16 7.5 16H5C4.44772 16 4 15.5523 4 15C4 14.4477 4.44772 14 5 14H8.5Z" fill="#485F7D"/>
</svg>
