<svg width="17" height="16" viewBox="0 0 17 16" fill="none" xmlns="http://www.w3.org/2000/svg">
<path d="M7.44629 4.66658H8.77962V5.99992H7.44629V4.66658ZM7.44629 7.33325H8.77962V11.3333H7.44629V7.33325ZM8.11296 1.33325C4.43296 1.33325 1.44629 4.31992 1.44629 7.99992C1.44629 11.6799 4.43296 14.6666 8.11296 14.6666C11.793 14.6666 14.7796 11.6799 14.7796 7.99992C14.7796 4.31992 11.793 1.33325 8.11296 1.33325ZM8.11296 13.3333C5.17296 13.3333 2.77962 10.9399 2.77962 7.99992C2.77962 5.05992 5.17296 2.66659 8.11296 2.66659C11.053 2.66659 13.4463 5.05992 13.4463 7.99992C13.4463 10.9399 11.053 13.3333 8.11296 13.3333Z" fill="#485F7D"/>
</svg>
