<svg width="32" height="32" viewBox="0 0 32 32" fill="none" xmlns="http://www.w3.org/2000/svg">
<rect x="0.5" y="0.5" width="31" height="31" rx="15.5" stroke="#9E9E9E"/>
<path d="M15.9948 18.9168C16.8036 18.9168 17.4927 18.6337 18.0622 18.0676C18.6316 17.5014 18.9163 16.8139 18.9163 16.0051C18.9163 15.1962 18.6333 14.5071 18.0671 13.9377C17.5009 13.3682 16.8134 13.0835 16.0046 13.0835C15.1958 13.0835 14.5066 13.3666 13.9372 13.9328C13.3677 14.4989 13.083 15.1864 13.083 15.9953C13.083 16.8041 13.3661 17.4932 13.9323 18.0627C14.4984 18.6321 15.1859 18.9168 15.9948 18.9168ZM15.9997 20.1668C14.8469 20.1668 13.8643 19.7606 13.0518 18.9481C12.2393 18.1356 11.833 17.1529 11.833 16.0002C11.833 14.8474 12.2393 13.8647 13.0518 13.0522C13.8643 12.2397 14.8469 11.8335 15.9997 11.8335C17.1525 11.8335 18.1351 12.2397 18.9476 13.0522C19.7601 13.8647 20.1663 14.8474 20.1663 16.0002C20.1663 17.1529 19.7601 18.1356 18.9476 18.9481C18.1351 19.7606 17.1525 20.1668 15.9997 20.1668ZM7.45801 16.6252C7.28092 16.6252 7.13249 16.5649 7.0127 16.4444C6.8929 16.3239 6.83301 16.1746 6.83301 15.9965C6.83301 15.8184 6.8929 15.6703 7.0127 15.5522C7.13249 15.4342 7.28092 15.3752 7.45801 15.3752H9.54134C9.71842 15.3752 9.86686 15.4354 9.98665 15.5559C10.1064 15.6764 10.1663 15.8257 10.1663 16.0038C10.1663 16.1819 10.1064 16.33 9.98665 16.4481C9.86686 16.5661 9.71842 16.6252 9.54134 16.6252H7.45801ZM22.458 16.6252C22.2809 16.6252 22.1325 16.5649 22.0127 16.4444C21.8929 16.3239 21.833 16.1746 21.833 15.9965C21.833 15.8184 21.8929 15.6703 22.0127 15.5522C22.1325 15.4342 22.2809 15.3752 22.458 15.3752H24.5413C24.7184 15.3752 24.8669 15.4354 24.9867 15.5559C25.1064 15.6764 25.1663 15.8257 25.1663 16.0038C25.1663 16.1819 25.1064 16.33 24.9867 16.4481C24.8669 16.5661 24.7184 16.6252 24.5413 16.6252H22.458ZM15.996 10.1668C15.8179 10.1668 15.6698 10.1069 15.5518 9.98714C15.4337 9.86735 15.3747 9.71891 15.3747 9.54183V7.4585C15.3747 7.28141 15.4349 7.13298 15.5554 7.01318C15.6759 6.89339 15.8252 6.8335 16.0033 6.8335C16.1814 6.8335 16.3295 6.89339 16.4476 7.01318C16.5656 7.13298 16.6247 7.28141 16.6247 7.4585V9.54183C16.6247 9.71891 16.5644 9.86735 16.4439 9.98714C16.3234 10.1069 16.1741 10.1668 15.996 10.1668ZM15.996 25.1668C15.8179 25.1668 15.6698 25.1069 15.5518 24.9871C15.4337 24.8674 15.3747 24.7189 15.3747 24.5418V22.4585C15.3747 22.2814 15.4349 22.133 15.5554 22.0132C15.6759 21.8934 15.8252 21.8335 16.0033 21.8335C16.1814 21.8335 16.3295 21.8934 16.4476 22.0132C16.5656 22.133 16.6247 22.2814 16.6247 22.4585V24.5418C16.6247 24.7189 16.5644 24.8674 16.4439 24.9871C16.3234 25.1069 16.1741 25.1668 15.996 25.1668ZM10.9997 11.8752L9.81217 10.7085C9.68717 10.5835 9.62725 10.4335 9.6324 10.2584C9.63754 10.0834 9.69675 9.93407 9.81003 9.81052C9.93358 9.68695 10.0829 9.62516 10.2579 9.62516C10.433 9.62516 10.583 9.68766 10.708 9.81266L11.8747 11.0002C11.9858 11.1252 12.0413 11.271 12.0413 11.4377C12.0413 11.6043 11.9858 11.7467 11.8747 11.8647C11.7636 11.9828 11.6212 12.0418 11.4476 12.0418C11.274 12.0418 11.1247 11.9863 10.9997 11.8752ZM21.2913 22.1877L20.1247 21.0002C20.0136 20.8752 19.958 20.7267 19.958 20.5549C19.958 20.383 20.017 20.2397 20.1351 20.1252C20.2531 20.0002 20.3955 19.9377 20.5622 19.9377C20.7288 19.9377 20.8747 20.0002 20.9997 20.1252L22.1872 21.2918C22.3122 21.4168 22.3721 21.5669 22.3669 21.7419C22.3618 21.9169 22.3026 22.0663 22.1893 22.1898C22.0658 22.3134 21.9165 22.3752 21.7414 22.3752C21.5664 22.3752 21.4163 22.3127 21.2913 22.1877ZM20.1247 11.8752C19.9997 11.7502 19.9372 11.6043 19.9372 11.4377C19.9372 11.271 19.9997 11.1252 20.1247 11.0002L21.2913 9.81266C21.4163 9.68766 21.5664 9.62774 21.7414 9.63289C21.9165 9.63803 22.0658 9.69724 22.1893 9.81052C22.3129 9.93407 22.3747 10.0834 22.3747 10.2584C22.3747 10.4335 22.3122 10.5835 22.1872 10.7085L20.9997 11.8752C20.8886 11.9863 20.7471 12.0418 20.5754 12.0418C20.4037 12.0418 20.2535 11.9863 20.1247 11.8752ZM9.81003 22.1898C9.68646 22.0663 9.62467 21.9169 9.62467 21.7419C9.62467 21.5669 9.68717 21.4168 9.81217 21.2918L10.9997 20.1252C11.1219 20.0002 11.267 19.9377 11.4351 19.9377C11.6031 19.9377 11.747 20.0002 11.8665 20.1252C11.997 20.2502 12.0622 20.396 12.0622 20.5627C12.0622 20.7293 11.9997 20.8752 11.8747 21.0002L10.708 22.1877C10.583 22.3127 10.433 22.3726 10.2579 22.3674C10.0829 22.3623 9.93358 22.3031 9.81003 22.1898Z" fill="#9E9E9E"/>
</svg>
