<svg width="20" height="20" viewBox="0 0 20 20" fill="none" xmlns="http://www.w3.org/2000/svg">
<path d="M10.3516 4.78912L11.1016 4.0313C11.7565 3.43437 12.6162 3.11274 13.5022 3.13325C14.3881 3.15376 15.232 3.51483 15.8586 4.14143C16.4852 4.76804 16.8463 5.61198 16.8668 6.4979C16.8873 7.38381 16.5657 8.24356 15.9688 8.89849L13.6016 11.2579C13.2829 11.5777 12.9043 11.8315 12.4873 12.0046C12.0704 12.1778 11.6233 12.2669 11.1719 12.2669C10.7204 12.2669 10.2734 12.1778 9.85643 12.0046C9.43948 11.8315 9.06083 11.5777 8.74219 11.2579" stroke="#F32D2D" stroke-width="1.8" stroke-linecap="round" stroke-linejoin="round"/>
<path d="M9.64849 15.211L8.89849 15.9688C8.24356 16.5657 7.38381 16.8874 6.4979 16.8668C5.61198 16.8463 4.76804 16.4853 4.14143 15.8587C3.51483 15.2321 3.15376 14.3881 3.13325 13.5022C3.11274 12.6163 3.43437 11.7565 4.0313 11.1016L6.39849 8.74223C6.71713 8.42239 7.09579 8.16861 7.51273 7.99545C7.92967 7.82229 8.37671 7.73315 8.82818 7.73315C9.27965 7.73315 9.72668 7.82229 10.1436 7.99545C10.5606 8.16861 10.9392 8.42239 11.2579 8.74223" stroke="#F32D2D" stroke-width="1.8" stroke-linecap="round" stroke-linejoin="round"/>
</svg>
