<svg width="16" height="16" viewBox="0 0 16 16" fill="none" xmlns="http://www.w3.org/2000/svg">
<path d="M12.0003 1.33343L8.66699 1.33276V1.33343V3.3661C9.51437 3.44999 10.3376 3.69649 11.0917 4.0921L12.0003 3.33343V1.33343Z" fill="white"/>
<path d="M8.00033 4.66675C6.58584 4.66675 5.22928 5.22865 4.22909 6.22885C3.22889 7.22904 2.66699 8.58559 2.66699 10.0001C2.66699 11.4146 3.22889 12.7711 4.22909 13.7713C5.22928 14.7715 6.58584 15.3334 8.00033 15.3334V11.5002L6.95451 12.0501C6.66107 12.2045 6.31806 11.9553 6.37408 11.6285L6.5738 10.4634L5.72774 9.6391C5.49026 9.40773 5.62121 9.00448 5.94932 8.95676L7.11847 8.78675L7.64186 7.72652C7.71519 7.57797 7.85774 7.50365 8.00033 7.50358V4.66675Z" fill="white"/>
<path d="M8 4.66675C9.41449 4.66675 10.771 5.22865 11.7712 6.22885C12.7714 7.22904 13.3333 8.58559 13.3333 10.0001C13.3333 11.4146 12.7714 12.7711 11.7712 13.7713C10.771 14.7715 9.41449 15.3334 8 15.3334V11.5002L9.04621 12.0498C9.33965 12.204 9.68256 11.9548 9.62653 11.6281L9.42681 10.4634L10.2732 9.6384C10.5106 9.407 10.3796 9.00384 10.0515 8.95613L8.88214 8.78608L8.35886 7.72646C8.28544 7.5778 8.1427 7.50351 8 7.50358V4.66675Z" fill="white"/>
<path d="M7.33333 3.3661V1.33276L4 1.33343V3.33343L4.90933 4.09143C5.66322 3.69613 6.48623 3.44986 7.33333 3.3661Z" fill="white"/>
</svg>
