<svg width="19" height="14" viewBox="0 0 19 14" fill="none" xmlns="http://www.w3.org/2000/svg">
<path d="M1.24941 6.22304L1.24948 6.22301C1.28826 6.20608 1.3274 6.20007 1.34425 6.19755C1.36803 6.194 1.39527 6.19127 1.42472 6.18899C1.48404 6.1844 1.566 6.18062 1.67472 6.1774C1.89294 6.17092 2.23153 6.16633 2.73929 6.16325C3.75555 6.15707 5.45788 6.15687 8.24947 6.1602L18.0345 6.16827L18.1174 6.16834L18.1839 6.21794L18.2875 6.29534C18.4006 6.37976 18.499 6.47384 18.5636 6.60003C18.6288 6.72717 18.6465 6.86095 18.6465 7.00018C18.6465 7.13941 18.6288 7.27318 18.5636 7.40033C18.499 7.52651 18.4006 7.62059 18.2875 7.70501L18.1839 7.78241L18.1175 7.83199L18.0346 7.83208L8.28714 7.84312C8.28709 7.84312 8.28705 7.84312 8.28701 7.84312C5.95759 7.84693 4.2595 7.84662 3.13173 7.84194C2.56798 7.8396 2.1459 7.83616 1.85845 7.83157C1.71493 7.82928 1.60361 7.82669 1.52449 7.82374C1.48514 7.82228 1.45188 7.82066 1.42579 7.8188L1.42348 7.81864C1.40736 7.81751 1.36708 7.8147 1.33249 7.80471L1.33244 7.8047C1.18826 7.76305 1.06114 7.66486 0.969506 7.56352C0.877747 7.46204 0.793001 7.32583 0.765354 7.17848L1.24941 6.22304ZM1.24941 6.22304C0.884678 6.3824 0.692627 6.7909 0.76535 7.17845L1.24941 6.22304ZM1.33234 13.2109L1.33226 13.2109C1.18815 13.1691 1.06108 13.0709 0.969467 12.9696L1.33234 13.2109ZM1.33234 13.2109C1.36269 13.2197 1.39432 13.2229 1.40887 13.2244M1.33234 13.2109L1.40887 13.2244M1.24941 0.814737L1.24948 0.814704C1.28826 0.797776 1.3274 0.79176 1.34425 0.789243C1.36803 0.785693 1.39527 0.782964 1.42472 0.780684C1.48404 0.776092 1.566 0.772316 1.67472 0.769091C1.89294 0.762617 2.23153 0.758028 2.73929 0.754942C3.75554 0.748765 5.45784 0.74857 8.24938 0.751892C8.24941 0.751892 8.24944 0.751892 8.24947 0.751892L18.0345 0.759963L18.1174 0.760032L18.1839 0.809639L18.2875 0.887038C18.2875 0.887043 18.2875 0.887047 18.2876 0.887052C18.4006 0.97147 18.499 1.06554 18.5636 1.19172C18.6288 1.31887 18.6465 1.45264 18.6465 1.59187C18.6465 1.7311 18.6288 1.86487 18.5636 1.99202C18.499 2.1182 18.4006 2.21227 18.2876 2.29669C18.2875 2.2967 18.2875 2.2967 18.2875 2.29671L18.1839 2.3741L18.1175 2.42369L18.0346 2.42378L8.28714 2.43482C8.28709 2.43482 8.28705 2.43482 8.28701 2.43482C5.95759 2.43863 4.2595 2.43832 3.13173 2.43363C2.56797 2.43129 2.1459 2.42785 1.85845 2.42327C1.71493 2.42098 1.60361 2.41838 1.52449 2.41544C1.48514 2.41397 1.45188 2.41235 1.42579 2.41049C1.42509 2.41044 1.42432 2.41039 1.42348 2.41033C1.40736 2.4092 1.36708 2.40639 1.33249 2.39641L1.33244 2.39639C1.18826 2.35475 1.06114 2.25655 0.969506 2.15521C0.877747 2.05374 0.793001 1.91753 0.765354 1.77017L1.24941 0.814737ZM1.24941 0.814737C0.884678 0.97409 0.692627 1.38259 0.76535 1.77015L1.24941 0.814737ZM1.40887 13.2244C1.42954 13.2265 1.45396 13.2282 1.48094 13.2297M1.40887 13.2244L1.48094 13.2297M1.48094 13.2297C1.53523 13.2327 1.60827 13.2354 1.69931 13.2377M1.48094 13.2297L1.69931 13.2377M1.69931 13.2377C1.88185 13.2423 2.14396 13.2457 2.48821 13.2481M1.69931 13.2377L2.48821 13.2481M2.48821 13.2481C3.1771 13.2528 4.19985 13.2532 5.58353 13.2494M2.48821 13.2481L5.58353 13.2494M5.58353 13.2494C6.25396 13.2475 7.0364 13.2459 7.87519 13.2443M5.58353 13.2494L7.87519 13.2443M7.87519 13.2443C9.54823 13.2409 11.4455 13.2372 13.1253 13.2297M7.87519 13.2443L13.1253 13.2297M13.1253 13.2297C14.3864 13.2242 15.5259 13.2165 16.3569 13.2055M13.1253 13.2297L16.3569 13.2055M16.3569 13.2055C16.7722 13.2 17.1117 13.1936 17.3512 13.1861M16.3569 13.2055L17.3512 13.1861M17.3512 13.1861C17.4706 13.1824 17.5674 13.1783 17.6371 13.1738M17.3512 13.1861L17.6371 13.1738M17.6371 13.1738C17.6714 13.1716 17.7028 13.169 17.7283 13.1659M17.6371 13.1738L17.7283 13.1659M17.7283 13.1659C17.7405 13.1644 17.7562 13.1622 17.772 13.1588M17.7283 13.1659L17.772 13.1588M17.772 13.1588C17.7798 13.1571 17.7919 13.1543 17.8057 13.1496M17.772 13.1588L17.8057 13.1496M17.8057 13.1496C17.8149 13.1466 17.8465 13.1359 17.8798 13.1111M17.8057 13.1496L17.8798 13.1111M17.8798 13.1111C17.9929 13.0267 18.0912 12.9326 18.1559 12.8064M17.8798 13.1111L18.1559 12.8064M18.1559 12.8064C18.2211 12.6793 18.2388 12.5455 18.2388 12.4063M18.1559 12.8064L18.2388 12.4063M18.2388 12.4063C18.2388 12.2671 18.2211 12.1333 18.1559 12.0062M18.2388 12.4063L18.1559 12.0062M18.1559 12.0062C18.0912 11.88 17.9929 11.7859 17.8798 11.7014L18.1559 12.0062ZM1.24926 11.6291C0.884648 11.7887 0.692608 12.197 0.765353 12.5846L1.24922 11.6292L1.34947 11.8581L1.24926 11.6291Z" fill="white" stroke="white" stroke-width="0.5"/>
</svg>
