<svg width="15" height="15" viewBox="0 0 15 15" fill="none" xmlns="http://www.w3.org/2000/svg">
<path d="M14.2446 2.26607C14.6618 1.8489 14.6618 1.17253 14.2446 0.755357V0.755357C13.8275 0.338185 13.1511 0.338185 12.7339 0.755357L8.20711 5.28218C7.81658 5.6727 7.18342 5.6727 6.79289 5.28218L2.26607 0.755357C1.8489 0.338185 1.17253 0.338185 0.755357 0.755357V0.755357C0.338185 1.17253 0.338185 1.8489 0.755357 2.26607L5.28218 6.79289C5.6727 7.18342 5.6727 7.81658 5.28218 8.20711L0.755358 12.7339C0.338185 13.1511 0.338185 13.8275 0.755357 14.2446V14.2446C1.17253 14.6618 1.8489 14.6618 2.26607 14.2446L6.79289 9.71782C7.18342 9.3273 7.81658 9.3273 8.20711 9.71782L12.7339 14.2446C13.1511 14.6618 13.8275 14.6618 14.2446 14.2446V14.2446C14.6618 13.8275 14.6618 13.1511 14.2446 12.7339L9.71782 8.20711C9.3273 7.81658 9.3273 7.18342 9.71782 6.79289L14.2446 2.26607Z" fill="white"/>
</svg>
