<svg width="21" height="20" viewBox="0 0 21 20" fill="none" xmlns="http://www.w3.org/2000/svg">
<path d="M17.7517 4.0641L17.292 4.52372V4.52372L17.7517 4.0641ZM4.21612 4.0641L3.7565 3.60448L3.7565 3.60448L4.21612 4.0641ZM14.3172 3.33331L14.3208 2.68331H14.3172V3.33331ZM7.65055 3.33331V2.6833L7.64693 2.68332L7.65055 3.33331ZM7.65055 10.6C7.29157 10.6 7.00055 10.891 7.00055 11.25C7.00055 11.6089 7.29157 11.9 7.65055 11.9V10.6ZM14.3172 11.9C14.6762 11.9 14.9672 11.6089 14.9672 11.25C14.9672 10.891 14.6762 10.6 14.3172 10.6V11.9ZM6.81722 7.68329C6.45823 7.68329 6.16722 7.9743 6.16722 8.33329C6.16722 8.69227 6.45823 8.98329 6.81722 8.98329V7.68329ZM15.1506 8.98329C15.5095 8.98329 15.8006 8.69227 15.8006 8.33329C15.8006 7.9743 15.5095 7.68329 15.1506 7.68329V8.98329ZM8.48389 13.5166C8.1249 13.5166 7.83389 13.8076 7.83389 14.1666C7.83389 14.5256 8.1249 14.8166 8.48389 14.8166V13.5166ZM13.4839 14.8166C13.8429 14.8166 14.1339 14.5256 14.1339 14.1666C14.1339 13.8076 13.8429 13.5166 13.4839 13.5166V14.8166ZM17.8339 8.33186V13.3319H19.1339V8.33186H17.8339ZM13.4839 17.6819H8.48389V18.9819H13.4839V17.6819ZM4.13389 13.3319V8.33186H2.83389V13.3319H4.13389ZM8.48389 17.6819C7.287 17.6819 6.45472 17.6805 5.82732 17.5961C5.21861 17.5143 4.90096 17.3652 4.67574 17.14L3.7565 18.0593C4.26352 18.5663 4.90123 18.7833 5.6541 18.8845C6.38826 18.9832 7.32375 18.9819 8.48389 18.9819V17.6819ZM2.83389 13.3319C2.83389 14.492 2.83251 15.4275 2.93121 16.1617C3.03243 16.9145 3.24948 17.5522 3.7565 18.0593L4.67574 17.14C4.45052 16.9148 4.30146 16.5971 4.21962 15.9884C4.13527 15.361 4.13389 14.5288 4.13389 13.3319H2.83389ZM17.8339 13.3319C17.8339 14.5288 17.8325 15.361 17.7482 15.9884C17.6663 16.5971 17.5173 16.9148 17.292 17.14L18.2113 18.0593C18.7183 17.5522 18.9353 16.9145 19.0366 16.1617C19.1353 15.4275 19.1339 14.492 19.1339 13.3319H17.8339ZM13.4839 18.9819C14.644 18.9819 15.5795 18.9832 16.3137 18.8845C17.0665 18.7833 17.7043 18.5663 18.2113 18.0593L17.292 17.14C17.0668 17.3652 16.7492 17.5143 16.1405 17.5961C15.513 17.6805 14.6808 17.6819 13.4839 17.6819V18.9819ZM19.1339 8.33186C19.1339 7.17173 19.1353 6.23624 19.0366 5.50207C18.9353 4.74921 18.7183 4.11149 18.2113 3.60448L17.292 4.52372C17.5173 4.74893 17.6663 5.06659 17.7482 5.6753C17.8325 6.3027 17.8339 7.13498 17.8339 8.33186H19.1339ZM4.13389 8.33186C4.13389 7.13498 4.13527 6.3027 4.21962 5.6753C4.30146 5.06659 4.45052 4.74893 4.67574 4.52372L3.7565 3.60448C3.24948 4.11149 3.03243 4.74921 2.93121 5.50207C2.83251 6.23624 2.83389 7.17173 2.83389 8.33186H4.13389ZM14.3136 3.9833C15.225 3.98838 15.8688 4.01208 16.3566 4.10167C16.8257 4.18785 17.0938 4.32553 17.292 4.52372L18.2113 3.60448C17.7691 3.16235 17.2263 2.93968 16.5914 2.82306C15.9752 2.70986 15.2219 2.68834 14.3208 2.68332L14.3136 3.9833ZM7.64693 2.68332C6.74586 2.68834 5.9926 2.70986 5.37633 2.82306C4.74148 2.93968 4.19863 3.16235 3.7565 3.60448L4.67574 4.52372C4.87393 4.32553 5.14204 4.18785 5.61119 4.10167C6.09893 4.01208 6.74272 3.98838 7.65417 3.9833L7.64693 2.68332ZM7.65055 3.98331H14.3172V2.68331H7.65055V3.98331ZM7.65055 11.9H14.3172V10.6H7.65055V11.9ZM6.81722 8.98329H15.1506V7.68329H6.81722V8.98329ZM8.48389 14.8166H13.4839V13.5166H8.48389V14.8166Z" fill="#485F7D"/>
</svg>
