<svg width="13" height="12" viewBox="0 0 13 12" fill="none" xmlns="http://www.w3.org/2000/svg">
<path d="M12.0713 10.9602L8.43563 7.3233C8.43521 7.30755 8.44028 7.29214 8.44998 7.27972C9.05017 6.50119 9.37426 5.54498 9.37115 4.56183C9.37115 3.30316 8.9288 2.22818 8.04409 1.33691C7.15938 0.445637 6.0869 0 4.82666 0C3.55751 0 2.47745 0.445637 1.58647 1.33691C0.69549 2.22818 0.25 3.30316 0.25 4.56183C0.25 5.82051 0.69549 6.89565 1.58647 7.78725C2.47745 8.67886 3.56395 9.12449 4.84597 9.12416C5.36224 9.12664 5.87493 9.03831 6.36063 8.86322C6.7774 8.71525 7.16653 8.4987 7.51198 8.22249C7.52535 8.2115 7.54232 8.20587 7.55961 8.20669C7.5769 8.20752 7.59326 8.21474 7.60553 8.22695L11.0135 11.6361L11.0185 11.6311L11.2086 11.8213C11.323 11.9357 11.4781 12 11.6399 12C11.8017 12 11.9569 11.9357 12.0713 11.8213C12.1857 11.7068 12.25 11.5516 12.25 11.3897C12.25 11.2279 12.1857 11.0727 12.0713 10.9582V10.9602ZM7.01897 7.11335C6.47432 7.59962 5.78037 7.88585 5.05139 7.92491C4.01224 7.98069 3.13776 7.65323 2.42795 6.94253C1.76796 6.28232 1.43797 5.48876 1.43797 4.56183C1.43797 3.63491 1.76796 2.84135 2.42795 2.18114C3.14106 1.47011 4.01554 1.14281 5.05139 1.19926C5.78032 1.23814 6.47427 1.5242 7.01897 2.01032C7.79247 2.70353 8.17889 3.55404 8.17823 4.56183C8.17757 5.56963 7.79115 6.42014 7.01897 7.11335Z" fill="#485F7D"/>
</svg>
