<svg width="22" height="22" viewBox="0 0 22 22" fill="none" xmlns="http://www.w3.org/2000/svg">
<path fill-rule="evenodd" clip-rule="evenodd" d="M8.35474 0.577959C9.20163 0.36366 10.0878 0.25 10.9995 0.25C11.9113 0.25 12.7976 0.363676 13.6445 0.578005C14.3357 0.752915 14.6926 1.34983 14.8074 1.84603C14.9434 2.43381 15.3123 2.96329 15.8746 3.28798C16.3917 3.5865 16.9763 3.65663 17.5154 3.52952C18.0109 3.41269 18.7028 3.46835 19.1658 4.00871C20.0267 5.01337 20.7058 6.17937 21.1513 7.45569C21.4173 8.21767 21.0052 8.90381 20.57 9.26236C20.0677 9.67623 19.7495 10.3006 19.7495 11C19.7495 11.6994 20.0677 12.3238 20.57 12.7376C21.0052 13.0962 21.4173 13.7823 21.1513 14.5443C20.7058 15.8205 20.0268 16.9864 19.1661 17.991C18.7031 18.5314 18.0111 18.587 17.5155 18.4702C16.9763 18.343 16.3917 18.4131 15.8746 18.7117C15.3122 19.0364 14.9433 19.566 14.8073 20.1538C14.6925 20.6501 14.3356 21.2471 13.6444 21.422C12.7975 21.6363 11.9112 21.75 10.9995 21.75C10.0879 21.75 9.20169 21.6363 8.35482 21.4221C7.66355 21.2471 7.30664 20.6501 7.19186 20.1538C7.0559 19.566 6.68702 19.0364 6.12457 18.7117C5.60746 18.4131 5.0228 18.343 4.48359 18.4702C3.98802 18.5871 3.29605 18.5314 2.83299 17.991C1.97226 16.9864 1.29327 15.8205 0.847747 14.5443C0.581734 13.7823 0.993889 13.0962 1.42906 12.7376C1.93138 12.3238 2.24957 11.6994 2.24957 11C2.24957 10.3006 1.93138 9.67622 1.42906 9.26235C0.99389 8.9038 0.581735 8.21766 0.847749 7.45567C1.29332 6.17934 1.97241 5.01334 2.83328 4.00867C3.29631 3.4683 3.9882 3.41265 4.48373 3.5295C5.0229 3.65664 5.6075 3.58651 6.12458 3.28798C6.68696 2.96329 7.05582 2.43379 7.19182 1.84601C7.30664 1.3498 7.66354 0.752863 8.35474 0.577959ZM10.9995 14C9.34266 14 7.99951 12.6569 7.99951 11C7.99951 9.34315 9.34266 8 10.9995 8C12.6564 8 13.9995 9.34315 13.9995 11C13.9995 12.6569 12.6564 14 10.9995 14Z" fill="#485F7D"/>
</svg>
