<svg width="12" height="14" viewBox="0 0 12 14" fill="none" xmlns="http://www.w3.org/2000/svg">
<path fill-rule="evenodd" clip-rule="evenodd" d="M0 5.94448C0 3.81276 0 2.74689 0.251677 2.38831C0.503354 2.02973 1.50555 1.68668 3.50994 1.00057L3.89182 0.869852C4.93666 0.5122 5.45907 0.333374 6 0.333374C6.54093 0.333374 7.06335 0.5122 8.10819 0.869852L8.49006 1.00057C10.4945 1.68668 11.4966 2.02973 11.7483 2.38831C12 2.74689 12 3.81276 12 5.94448V6.99428C12 10.753 9.17402 12.577 7.40096 13.3516C6.91999 13.5617 6.67951 13.6667 6 13.6667C5.32049 13.6667 5.08001 13.5617 4.59904 13.3516C2.82597 12.577 0 10.753 0 6.99428V5.94448ZM7.33333 5.00004C7.33333 5.73642 6.73638 6.33337 6 6.33337C5.26362 6.33337 4.66667 5.73642 4.66667 5.00004C4.66667 4.26366 5.26362 3.66671 6 3.66671C6.73638 3.66671 7.33333 4.26366 7.33333 5.00004ZM6 10.3334C8.66667 10.3334 8.66667 9.73642 8.66667 9.00004C8.66667 8.26366 7.47276 7.66671 6 7.66671C4.52724 7.66671 3.33333 8.26366 3.33333 9.00004C3.33333 9.73642 3.33333 10.3334 6 10.3334Z" fill="white" fill-opacity="0.88"/>
</svg>
