<svg width="32" height="32" viewBox="0 0 32 32" fill="none" xmlns="http://www.w3.org/2000/svg">
<path d="M23.4486 4.69421C23.4268 4.56352 23.2389 4.56352 23.2172 4.69421C22.8876 6.67174 21.3379 8.22137 19.3604 8.55096C19.2297 8.57274 19.2297 8.76058 19.3604 8.78236C21.3379 9.11195 22.8876 10.6616 23.2172 12.6391C23.2389 12.7698 23.4268 12.7698 23.4486 12.6391C23.7781 10.6616 25.3278 9.11195 27.3053 8.78236C27.436 8.76058 27.436 8.57274 27.3053 8.55096C25.3278 8.22137 23.7781 6.67174 23.4486 4.69421Z" fill="#E5007A"/>
<path d="M14.9307 8.25328C14.8809 7.95457 14.4515 7.95457 14.4018 8.25328C13.6484 12.7733 10.1064 16.3154 5.58633 17.0687C5.28763 17.1185 5.28763 17.5478 5.58633 17.5976C10.1064 18.351 13.6484 21.893 14.4018 26.4131C14.4515 26.7118 14.8809 26.7118 14.9307 26.4131C15.684 21.893 19.2261 18.351 23.7461 17.5976C24.0448 17.5478 24.0448 17.1185 23.7461 17.0687C19.2261 16.3154 15.684 12.7733 14.9307 8.25328Z" fill="#E5007A"/>
</svg>
