<svg width="70" height="71" viewBox="0 0 70 71" fill="none" xmlns="http://www.w3.org/2000/svg">
<circle cx="35" cy="35.5" r="35" fill="#99B3F7" fill-opacity="0.2"/>
<path fill-rule="evenodd" clip-rule="evenodd" d="M37.1389 34.1353C38.003 34.7445 39.0655 35.1128 40.1989 35.1128C43.1172 35.1128 45.4972 32.7328 45.4972 29.8003C45.4972 26.882 43.1172 24.502 40.1989 24.502C39.3772 24.502 38.6122 24.6862 37.918 25.0262C38.5839 26.202 38.9664 27.562 38.9664 29.007C38.9664 30.9478 38.2864 32.7328 37.1389 34.1353Z" fill="url(#paint0_linear_7_15717)"/>
<path fill-rule="evenodd" clip-rule="evenodd" d="M30.8063 35.7503C32.9596 35.7503 34.8721 34.7303 36.1046 33.1578C37.0113 32.0245 37.5497 30.5795 37.5497 29.007C37.5497 27.8453 37.2521 26.7545 36.7421 25.8053C35.5946 23.7087 33.3705 22.2778 30.8063 22.2778C27.0946 22.2778 24.0771 25.2953 24.0771 29.007C24.0771 32.7187 27.0946 35.7503 30.8063 35.7503Z" fill="url(#paint1_linear_7_15717)"/>
<path fill-rule="evenodd" clip-rule="evenodd" d="M42.1586 44.5781C40.9058 41.175 38.305 38.8641 34.7527 37.9302C33.595 37.6136 32.3104 37.4553 30.9466 37.4553H30.8673C25.1582 37.4553 21.0032 40.2569 19.4491 45.1479L19.2588 45.7336L19.798 46.0501C22.8111 47.9021 26.4269 48.7885 30.8197 48.7885H30.899C35.4029 48.8043 38.9869 47.9021 42.0159 46.0501L42.5551 45.7336L42.3648 45.1479C42.3014 44.958 42.2379 44.768 42.1586 44.5781Z" fill="url(#paint2_linear_7_15717)"/>
<path fill-rule="evenodd" clip-rule="evenodd" d="M51.1762 42.1406C49.9479 38.3605 46.6507 36.196 42.1253 36.196H42.0606C40.0727 36.196 38.3433 36.6195 36.8887 37.3881C40.5414 38.6742 43.2566 41.3249 44.5173 45.0109C46.9255 44.7599 49.0428 44.1011 50.8206 43.0503L51.3702 42.7209L51.1762 42.1406Z" fill="url(#paint3_linear_7_15717)"/>
<defs>
<linearGradient id="paint0_linear_7_15717" x1="34.3695" y1="22.2778" x2="34.3695" y2="48.8547" gradientUnits="userSpaceOnUse">
<stop stop-color="#3C74E1"/>
<stop offset="1" stop-color="#0C2451"/>
</linearGradient>
<linearGradient id="paint1_linear_7_15717" x1="34.3695" y1="22.2778" x2="34.3695" y2="48.8547" gradientUnits="userSpaceOnUse">
<stop stop-color="#3C74E1"/>
<stop offset="1" stop-color="#0C2451"/>
</linearGradient>
<linearGradient id="paint2_linear_7_15717" x1="34.8874" y1="19.0939" x2="34.8874" y2="48.7882" gradientUnits="userSpaceOnUse">
<stop stop-color="#3C74E1"/>
<stop offset="1" stop-color="#0C2451"/>
</linearGradient>
<linearGradient id="paint3_linear_7_15717" x1="35.4424" y1="19.868" x2="35.4424" y2="49.2928" gradientUnits="userSpaceOnUse">
<stop stop-color="#3C74E1"/>
<stop offset="1" stop-color="#0C2451"/>
</linearGradient>
</defs>
</svg>
