<svg width="32" height="32" viewBox="0 0 32 32" fill="none" xmlns="http://www.w3.org/2000/svg">
<rect width="32" height="32" rx="4" fill="#F3F4F6"/>
<rect width="32" height="32" rx="4" fill="#EBF0FD"/>
<path fill-rule="evenodd" clip-rule="evenodd" d="M17.2587 15.1972C17.767 15.5555 18.392 15.7722 19.0587 15.7722C20.7753 15.7722 22.1753 14.3722 22.1753 12.6472C22.1753 10.9305 20.7753 9.53051 19.0587 9.53051C18.5753 9.53051 18.1253 9.63884 17.717 9.83884C18.1087 10.5305 18.3337 11.3305 18.3337 12.1805C18.3337 13.3222 17.9337 14.3722 17.2587 15.1972Z" fill="url(#paint0_linear_11_172376)"/>
<path fill-rule="evenodd" clip-rule="evenodd" d="M13.5337 16.1472C14.8003 16.1472 15.9253 15.5472 16.6503 14.6222C17.1837 13.9555 17.5003 13.1055 17.5003 12.1805C17.5003 11.4972 17.3253 10.8555 17.0253 10.2972C16.3503 9.06383 15.042 8.22217 13.5337 8.22217C11.3503 8.22217 9.57532 9.99717 9.57532 12.1805C9.57532 14.3638 11.3503 16.1472 13.5337 16.1472Z" fill="url(#paint1_linear_11_172376)"/>
<path fill-rule="evenodd" clip-rule="evenodd" d="M20.2112 21.34C19.4743 19.3382 17.9444 17.9788 15.8548 17.4295C15.1738 17.2433 14.4182 17.1501 13.6159 17.1501H13.5693C10.211 17.1501 7.76687 18.7982 6.85267 21.6752L6.74072 22.0197L7.05789 22.2059C8.83033 23.2953 10.9572 23.8167 13.5413 23.8167H13.5879C16.2372 23.826 18.3455 23.2953 20.1273 22.2059L20.4444 22.0197L20.3325 21.6752C20.2952 21.5635 20.2579 21.4517 20.2112 21.34Z" fill="url(#paint2_linear_11_172376)"/>
<path fill-rule="evenodd" clip-rule="evenodd" d="M25.5155 19.9062C24.793 17.6827 22.8535 16.4094 20.1914 16.4094H20.1534C18.984 16.4094 17.9667 16.6585 17.1111 17.1106C19.2597 17.8672 20.857 19.4264 21.5985 21.5946C23.0151 21.447 24.2606 21.0595 25.3064 20.4413L25.6296 20.2476L25.5155 19.9062Z" fill="url(#paint3_linear_11_172376)"/>
<defs>
<linearGradient id="paint0_linear_11_172376" x1="15.6296" y1="8.22217" x2="15.6296" y2="23.8556" gradientUnits="userSpaceOnUse">
<stop stop-color="#3C74E1"/>
<stop offset="1" stop-color="#0C2451"/>
</linearGradient>
<linearGradient id="paint1_linear_11_172376" x1="15.6296" y1="8.22217" x2="15.6296" y2="23.8556" gradientUnits="userSpaceOnUse">
<stop stop-color="#3C74E1"/>
<stop offset="1" stop-color="#0C2451"/>
</linearGradient>
<linearGradient id="paint2_linear_11_172376" x1="15.9341" y1="6.34932" x2="15.9341" y2="23.8165" gradientUnits="userSpaceOnUse">
<stop stop-color="#3C74E1"/>
<stop offset="1" stop-color="#0C2451"/>
</linearGradient>
<linearGradient id="paint3_linear_11_172376" x1="16.2603" y1="6.80469" x2="16.2603" y2="24.1134" gradientUnits="userSpaceOnUse">
<stop stop-color="#3C74E1"/>
<stop offset="1" stop-color="#0C2451"/>
</linearGradient>
</defs>
</svg>
