<svg width="32" height="32" viewBox="0 0 32 32" fill="none" xmlns="http://www.w3.org/2000/svg">
<rect width="32" height="32" rx="4" fill="#F3F4F6"/>
<rect width="32" height="32" rx="4" fill="#FFF1F3"/>
<path d="M12.0267 18.8572V18.2322C12.0257 17.9857 12.0735 17.7414 12.1674 17.5134C12.2612 17.2855 12.3993 17.0784 12.5736 16.904C12.7479 16.7297 12.955 16.5917 13.183 16.4978C13.4109 16.4039 13.6552 16.3561 13.9017 16.3572H19.5268C19.7733 16.3582 20.0176 16.3104 20.2455 16.2166C20.4735 16.1227 20.6806 15.9846 20.8549 15.8103C21.0292 15.636 21.1673 15.4289 21.2611 15.2009C21.355 14.973 21.4028 14.7287 21.4018 14.4822V13.8572" stroke="url(#paint0_linear_11_172396)" stroke-width="2" stroke-linecap="round" stroke-linejoin="round"/>
<path d="M12.0267 13.8572V18.8572" stroke="url(#paint1_linear_11_172396)" stroke-width="2" stroke-linecap="round" stroke-linejoin="round"/>
<path d="M12.0267 23.2322C13.2349 23.2322 14.2142 22.2528 14.2142 21.0447C14.2142 19.8366 13.2349 18.8572 12.0267 18.8572C10.8186 18.8572 9.83923 19.8366 9.83923 21.0447C9.83923 22.2528 10.8186 23.2322 12.0267 23.2322Z" fill="url(#paint2_linear_11_172396)" stroke="url(#paint3_linear_11_172396)" stroke-width="2" stroke-linecap="round" stroke-linejoin="round"/>
<path d="M21.4017 13.8572C22.6099 13.8572 23.5892 12.8778 23.5892 11.6697C23.5892 10.4616 22.6099 9.48218 21.4017 9.48218C20.1936 9.48218 19.2142 10.4616 19.2142 11.6697C19.2142 12.8778 20.1936 13.8572 21.4017 13.8572Z" fill="url(#paint4_linear_11_172396)" stroke="url(#paint5_linear_11_172396)" stroke-width="2" stroke-linecap="round" stroke-linejoin="round"/>
<path d="M12.0267 13.8572C13.2349 13.8572 14.2142 12.8778 14.2142 11.6697C14.2142 10.4616 13.2349 9.48218 12.0267 9.48218C10.8186 9.48218 9.83923 10.4616 9.83923 11.6697C9.83923 12.8778 10.8186 13.8572 12.0267 13.8572Z" fill="url(#paint6_linear_11_172396)" stroke="url(#paint7_linear_11_172396)" stroke-width="2" stroke-linecap="round" stroke-linejoin="round"/>
<defs>
<linearGradient id="paint0_linear_11_172396" x1="16.7142" y1="13.8572" x2="16.7142" y2="18.8572" gradientUnits="userSpaceOnUse">
<stop stop-color="#E42447"/>
<stop offset="1" stop-color="#600D62"/>
</linearGradient>
<linearGradient id="paint1_linear_11_172396" x1="12.5267" y1="13.8572" x2="12.5267" y2="18.8572" gradientUnits="userSpaceOnUse">
<stop stop-color="#E42447"/>
<stop offset="1" stop-color="#600D62"/>
</linearGradient>
<linearGradient id="paint2_linear_11_172396" x1="12.0267" y1="18.8572" x2="12.0267" y2="23.2322" gradientUnits="userSpaceOnUse">
<stop stop-color="#E42447"/>
<stop offset="1" stop-color="#600D62"/>
</linearGradient>
<linearGradient id="paint3_linear_11_172396" x1="12.0267" y1="18.8572" x2="12.0267" y2="23.2322" gradientUnits="userSpaceOnUse">
<stop stop-color="#E42447"/>
<stop offset="1" stop-color="#600D62"/>
</linearGradient>
<linearGradient id="paint4_linear_11_172396" x1="21.4017" y1="9.48218" x2="21.4017" y2="13.8572" gradientUnits="userSpaceOnUse">
<stop stop-color="#E42447"/>
<stop offset="1" stop-color="#600D62"/>
</linearGradient>
<linearGradient id="paint5_linear_11_172396" x1="21.4017" y1="9.48218" x2="21.4017" y2="13.8572" gradientUnits="userSpaceOnUse">
<stop stop-color="#E42447"/>
<stop offset="1" stop-color="#600D62"/>
</linearGradient>
<linearGradient id="paint6_linear_11_172396" x1="12.0267" y1="9.48218" x2="12.0267" y2="13.8572" gradientUnits="userSpaceOnUse">
<stop stop-color="#E42447"/>
<stop offset="1" stop-color="#600D62"/>
</linearGradient>
<linearGradient id="paint7_linear_11_172396" x1="12.0267" y1="9.48218" x2="12.0267" y2="13.8572" gradientUnits="userSpaceOnUse">
<stop stop-color="#E42447"/>
<stop offset="1" stop-color="#600D62"/>
</linearGradient>
</defs>
</svg>
