<svg width="19" height="18" viewBox="0 0 19 18" fill="none" xmlns="http://www.w3.org/2000/svg">
<path fill-rule="evenodd" clip-rule="evenodd" d="M10.2065 2.03096C10.148 2.05385 10.0523 2.12177 9.9937 2.18184C9.81949 2.36052 9.8068 2.44638 9.8068 3.44789V4.32046L9.73223 4.42625C9.48538 4.7764 8.43415 6.03283 7.47778 7.12077L7.04493 7.61315L7.0452 11.3853L7.04551 15.1573L7.69465 15.4086C8.3927 15.6789 8.66434 15.771 8.98644 15.8466C9.5692 15.9834 9.57647 15.9837 12.2121 15.9963C13.9854 16.0048 14.7651 15.9989 14.8919 15.976C15.5452 15.8583 16.0422 15.238 16.0412 14.5419C16.0408 14.2751 15.9928 14.0774 15.8726 13.8474L15.7808 13.6717L15.9453 13.4949C16.1254 13.3015 16.237 13.0893 16.3047 12.8118C16.3873 12.4731 16.3161 12.0044 16.1396 11.7242L16.073 11.6185L16.2433 11.4352C16.6771 10.9682 16.7641 10.3003 16.4659 9.7263L16.3745 9.55049L16.517 9.40271C17.0789 8.81996 17.0859 7.94676 16.5334 7.35734C16.4232 7.23977 16.289 7.13217 16.1812 7.07508C15.8636 6.90669 15.8082 6.90221 14.0248 6.90166C13.1337 6.9014 12.4046 6.89379 12.4046 6.88475C12.4046 6.87573 12.5048 6.50516 12.6272 6.06126L12.8499 5.25419L12.8338 4.7208C12.8147 4.08817 12.7642 3.83055 12.5821 3.43638C12.2017 2.61309 11.4218 2.0635 10.5512 2.00526C10.3782 1.99369 10.2835 2.00075 10.2065 2.03096ZM2.94315 11.1657V15.7173H4.58386H6.22457V11.1657V6.614H4.58386H2.94315V11.1657Z" fill="white"/>
<path fill-rule="evenodd" clip-rule="evenodd" d="M10.2065 2.03096C10.148 2.05385 10.0523 2.12177 9.9937 2.18184C9.81949 2.36052 9.8068 2.44638 9.8068 3.44789V4.32046L9.73223 4.42625C9.48538 4.7764 8.43415 6.03283 7.47778 7.12077L7.04493 7.61315L7.0452 11.3853L7.04551 15.1573L7.69465 15.4086C8.3927 15.6789 8.66434 15.771 8.98644 15.8466C9.5692 15.9834 9.57647 15.9837 12.2121 15.9963C13.9854 16.0048 14.7651 15.9989 14.8919 15.976C15.5452 15.8583 16.0422 15.238 16.0412 14.5419C16.0408 14.2751 15.9928 14.0774 15.8726 13.8474L15.7808 13.6717L15.9453 13.4949C16.1254 13.3015 16.237 13.0893 16.3047 12.8118C16.3873 12.4731 16.3161 12.0044 16.1396 11.7242L16.073 11.6185L16.2433 11.4352C16.6771 10.9682 16.7641 10.3003 16.4659 9.7263L16.3745 9.55049L16.517 9.40271C17.0789 8.81996 17.0859 7.94676 16.5334 7.35734C16.4232 7.23977 16.289 7.13217 16.1812 7.07508C15.8636 6.90669 15.8082 6.90221 14.0248 6.90166C13.1337 6.9014 12.4046 6.89379 12.4046 6.88475C12.4046 6.87573 12.5048 6.50516 12.6272 6.06126L12.8499 5.25419L12.8338 4.7208C12.8147 4.08817 12.7642 3.83055 12.5821 3.43638C12.2017 2.61309 11.4218 2.0635 10.5512 2.00526C10.3782 1.99369 10.2835 2.00075 10.2065 2.03096ZM2.94315 11.1657V15.7173H4.58386H6.22457V11.1657V6.614H4.58386H2.94315V11.1657Z" fill="white"/>
</svg>
