<svg width="184" height="163" viewBox="0 0 184 163" fill="none" xmlns="http://www.w3.org/2000/svg">
<path d="M86.6978 157.688C127.738 157.688 161.007 124.419 161.007 83.3789C161.007 42.3391 127.738 9.06982 86.6978 9.06982C45.658 9.06982 12.3887 42.3391 12.3887 83.3789C12.3887 124.419 45.658 157.688 86.6978 157.688Z" fill="url(#paint0_linear_1900_26250)"/>
<path d="M136.889 29.8636C136.889 31.3234 135.706 32.5068 134.246 32.5068C132.786 32.5068 131.603 31.3234 131.603 29.8636C131.603 28.4038 132.786 27.2204 134.246 27.2204C135.706 27.2204 136.889 28.4038 136.889 29.8636Z" stroke="url(#paint1_linear_1900_26250)" stroke-width="2.61276"/>
<path d="M14.8413 78.8701C14.8413 80.3299 13.6579 81.5133 12.1981 81.5133C10.7383 81.5133 9.55491 80.3299 9.55491 78.8701C9.55491 77.4103 10.7383 76.2269 12.1981 76.2269C13.6579 76.2269 14.8413 77.4103 14.8413 78.8701Z" stroke="url(#paint2_linear_1900_26250)" stroke-width="2.61276"/>
<path d="M129.623 128.578C130.947 128.366 132.004 129.667 131.525 130.92L130.192 134.412C129.713 135.665 128.058 135.93 127.213 134.889L124.855 131.988C124.009 130.947 124.607 129.381 125.931 129.169L129.623 128.578Z" fill="url(#paint3_linear_1900_26250)"/>
<path d="M163.62 75.4855C164.057 73.7353 166.558 73.7353 166.995 75.4855C167.148 76.0975 167.632 76.5763 168.246 76.7195C169.98 77.1235 169.98 79.5914 168.246 79.9955C167.632 80.1386 167.148 80.6174 166.995 81.2294C166.558 82.9796 164.057 82.9796 163.62 81.2294C163.467 80.6174 162.983 80.1386 162.369 79.9955C160.635 79.5914 160.635 77.1235 162.369 76.7195C162.983 76.5763 163.467 76.0975 163.62 75.4855Z" fill="url(#paint4_linear_1900_26250)"/>
<path d="M72.3624 147.524C72.8255 145.546 75.6413 145.546 76.1043 147.524C76.2686 148.226 76.8157 148.778 77.515 148.952C79.5099 149.448 79.5099 152.297 77.515 152.793C76.8157 152.967 76.2686 153.519 76.1043 154.221C75.6413 156.199 72.8255 156.199 72.3624 154.221C72.1982 153.519 71.6511 152.967 70.9518 152.793C68.9569 152.297 68.9569 149.448 70.9518 148.952C71.6511 148.778 72.1982 148.226 72.3624 147.524Z" fill="url(#paint5_linear_1900_26250)"/>
<path d="M184 60.9859C184.002 63.3935 183.129 65.7199 181.543 67.5313C179.957 69.3427 177.766 70.5154 175.379 70.8308C174.943 70.8864 174.504 70.915 174.064 70.9164H141.032C140.315 70.9148 139.6 70.8558 138.893 70.7399C135.856 70.216 133.121 68.5875 131.214 66.1678C129.306 63.7482 128.361 60.7084 128.56 57.6337C128.759 54.5589 130.088 51.6665 132.292 49.5131C134.496 47.3598 137.418 46.0977 140.497 45.9698C142.093 42.5052 144.771 39.6535 148.13 37.8447C151.488 36.0359 155.343 35.3682 159.114 35.9422C162.885 36.5163 166.367 38.301 169.034 41.0271C171.702 43.7532 173.411 47.273 173.903 51.0554H174.053C175.359 51.0532 176.652 51.3086 177.858 51.8067C179.065 52.3048 180.162 53.0359 181.086 53.9583C182.009 54.8806 182.742 55.976 183.242 57.1819C183.742 58.3878 184 59.6804 184 60.9859Z" fill="url(#paint6_linear_1900_26250)"/>
<path d="M5.24072 41.4662C5.24072 43.4518 6.02949 45.356 7.43351 46.7601C8.83753 48.1641 10.7418 48.9529 12.7274 48.9529H37.583C40.032 48.9399 42.3792 47.9713 44.1245 46.2532C45.8699 44.5352 46.8754 42.2037 46.927 39.7552C46.9786 37.3067 46.0721 34.9348 44.4007 33.1448C42.7293 31.3548 40.425 30.2882 37.9788 30.1721C36.7723 27.5733 34.7554 25.4361 32.2309 24.0811C29.7064 22.7262 26.8105 22.2267 23.9779 22.6576C21.1453 23.0885 18.529 24.4266 16.5216 26.4709C14.5142 28.5153 13.2241 31.1557 12.845 33.9956H12.7327C10.749 33.9942 8.84578 34.7801 7.44107 36.1808C6.03635 37.5815 5.24497 39.4825 5.24072 41.4662Z" fill="url(#paint7_linear_1900_26250)"/>
<g filter="url(#filter0_d_1900_26250)">
<path d="M129.909 123.646C129.909 124.625 129.52 125.564 128.827 126.256C128.134 126.949 127.194 127.337 126.214 127.337C122.299 127.325 118.547 125.766 115.778 122.999C113.01 120.233 111.449 116.484 111.437 112.572V108.881C111.437 106.923 110.658 105.045 109.272 103.661C107.887 102.276 106.007 101.498 104.048 101.498H98.5058V119.955C98.5058 121.913 99.2843 123.791 100.67 125.175C102.056 126.56 103.935 127.337 105.895 127.337C106.875 127.337 107.814 127.726 108.507 128.419C109.2 129.111 109.589 130.05 109.589 131.029C109.589 132.008 109.2 132.947 108.507 133.639C107.814 134.331 106.875 134.72 105.895 134.72C101.979 134.708 98.2274 133.148 95.4587 130.382C92.6899 127.616 91.129 123.867 91.1168 119.955V101.498H80.0334V119.955C80.0212 123.867 78.4603 127.616 75.6915 130.382C72.9228 133.148 69.171 134.708 65.2554 134.72C64.2756 134.72 63.3359 134.331 62.643 133.639C61.9501 132.947 61.5609 132.008 61.5609 131.029C61.5609 130.05 61.9501 129.111 62.643 128.419C63.3359 127.726 64.2756 127.337 65.2554 127.337C67.2151 127.337 69.0945 126.56 70.4802 125.175C71.8659 123.791 72.6444 121.913 72.6444 119.955V101.498H67.1026C65.143 101.498 63.2635 102.276 61.8778 103.661C60.4921 105.045 59.7137 106.923 59.7137 108.881V112.572C59.7015 116.484 58.1406 120.233 55.3718 122.999C52.6031 125.766 48.8513 127.325 44.9357 127.337C43.9559 127.337 43.0162 126.949 42.3233 126.256C41.6305 125.564 41.2412 124.625 41.2412 123.646C41.2412 122.667 41.6305 121.728 42.3233 121.036C43.0162 120.344 43.9559 119.955 44.9357 119.955C46.8954 119.955 48.7748 119.177 50.1605 117.792C51.5462 116.408 52.3247 114.53 52.3247 112.572V108.881C52.3277 106.398 52.9552 103.957 54.1495 101.78C55.3438 99.6027 57.0666 97.7607 59.1595 96.4228C55.8957 94.0312 53.2416 90.9051 51.4123 87.2977C49.583 83.6903 48.6299 79.7032 48.6302 75.6592V71.9679C48.6763 67.3828 49.9008 62.8863 52.1861 58.9099C51.0603 55.2678 50.7006 51.4324 51.1298 47.6447C51.559 43.8571 52.7677 40.199 54.6799 36.9006C54.9957 36.3349 55.4584 35.8649 56.0192 35.5401C56.58 35.2152 57.2182 35.0476 57.8664 35.0549C62.17 35.0441 66.4163 36.04 70.2655 37.963C74.1147 39.8859 77.4599 42.6825 80.0334 46.1288H91.1168C93.6903 42.6825 97.0355 39.8859 100.885 37.963C104.734 36.04 108.98 35.0441 113.284 35.0549C113.932 35.0476 114.57 35.2152 115.131 35.5401C115.692 35.8649 116.154 36.3349 116.47 36.9006C118.383 40.199 119.591 43.8571 120.02 47.6447C120.45 51.4324 120.09 55.2678 118.964 58.9099C121.249 62.8863 122.474 67.3828 122.52 71.9679V75.6592C122.52 79.7032 121.567 83.6903 119.738 87.2977C117.909 90.9051 115.254 94.0312 111.991 96.4228C114.084 97.7607 115.806 99.6027 117.001 101.78C118.195 103.957 118.822 106.398 118.826 108.881V112.572C118.826 114.53 119.604 116.408 120.99 117.792C122.375 119.177 124.255 119.955 126.214 119.955C127.194 119.955 128.134 120.344 128.827 121.036C129.52 121.728 129.909 122.667 129.909 123.646Z" fill="#488CF5"/>
</g>
<path d="M129.909 123.646C129.909 124.625 129.52 125.564 128.827 126.256C128.134 126.949 127.194 127.337 126.214 127.337C122.299 127.325 118.547 125.766 115.778 122.999C113.01 120.233 111.449 116.484 111.437 112.572V108.881C111.437 106.923 110.658 105.045 109.272 103.661C107.887 102.276 106.007 101.498 104.048 101.498H98.5058V119.955C98.5058 121.913 99.2843 123.791 100.67 125.175C102.056 126.56 103.935 127.337 105.895 127.337C106.875 127.337 107.814 127.726 108.507 128.419C109.2 129.111 109.589 130.05 109.589 131.029C109.589 132.008 109.2 132.947 108.507 133.639C107.814 134.331 106.875 134.72 105.895 134.72C101.979 134.708 98.2274 133.148 95.4587 130.382C92.6899 127.616 91.129 123.867 91.1168 119.955V101.498H80.0334V119.955C80.0212 123.867 78.4603 127.616 75.6915 130.382C72.9228 133.148 69.171 134.708 65.2554 134.72C64.2756 134.72 63.3359 134.331 62.643 133.639C61.9501 132.947 61.5609 132.008 61.5609 131.029C61.5609 130.05 61.9501 129.111 62.643 128.419C63.3359 127.726 64.2756 127.337 65.2554 127.337C67.2151 127.337 69.0945 126.56 70.4802 125.175C71.8659 123.791 72.6444 121.913 72.6444 119.955V101.498H67.1026C65.143 101.498 63.2635 102.276 61.8778 103.661C60.4921 105.045 59.7137 106.923 59.7137 108.881V112.572C59.7015 116.484 58.1406 120.233 55.3718 122.999C52.6031 125.766 48.8513 127.325 44.9357 127.337C43.9559 127.337 43.0162 126.949 42.3233 126.256C41.6305 125.564 41.2412 124.625 41.2412 123.646C41.2412 122.667 41.6305 121.728 42.3233 121.036C43.0162 120.344 43.9559 119.955 44.9357 119.955C46.8954 119.955 48.7748 119.177 50.1605 117.792C51.5462 116.408 52.3247 114.53 52.3247 112.572V108.881C52.3277 106.398 52.9552 103.957 54.1495 101.78C55.3438 99.6027 57.0666 97.7607 59.1595 96.4228C55.8957 94.0312 53.2416 90.9051 51.4123 87.2977C49.583 83.6903 48.6299 79.7032 48.6302 75.6592V71.9679C48.6763 67.3828 49.9008 62.8863 52.1861 58.9099C51.0603 55.2678 50.7006 51.4324 51.1298 47.6447C51.559 43.8571 52.7677 40.199 54.6799 36.9006C54.9957 36.3349 55.4584 35.8649 56.0192 35.5401C56.58 35.2152 57.2182 35.0476 57.8664 35.0549C62.17 35.0441 66.4163 36.04 70.2655 37.963C74.1147 39.8859 77.4599 42.6825 80.0334 46.1288H91.1168C93.6903 42.6825 97.0355 39.8859 100.885 37.963C104.734 36.04 108.98 35.0441 113.284 35.0549C113.932 35.0476 114.57 35.2152 115.131 35.5401C115.692 35.8649 116.154 36.3349 116.47 36.9006C118.383 40.199 119.591 43.8571 120.02 47.6447C120.45 51.4324 120.09 55.2678 118.964 58.9099C121.249 62.8863 122.474 67.3828 122.52 71.9679V75.6592C122.52 79.7032 121.567 83.6903 119.738 87.2977C117.909 90.9051 115.254 94.0312 111.991 96.4228C114.084 97.7607 115.806 99.6027 117.001 101.78C118.195 103.957 118.822 106.398 118.826 108.881V112.572C118.826 114.53 119.604 116.408 120.99 117.792C122.375 119.177 124.255 119.955 126.214 119.955C127.194 119.955 128.134 120.344 128.827 121.036C129.52 121.728 129.909 122.667 129.909 123.646Z" fill="#488CF5"/>
<path d="M1.30089e-05 129.626C-0.00117249 132.024 0.869363 134.34 2.44941 136.143C4.02947 137.947 6.21126 139.114 8.58827 139.428C9.02062 139.488 9.45658 139.519 9.89309 139.519H42.7809C43.4975 139.518 44.2128 139.459 44.9199 139.343C47.9605 138.836 50.7047 137.219 52.62 134.804C54.5353 132.388 55.4851 129.348 55.2853 126.272C55.0854 123.196 53.7501 120.304 51.5383 118.157C49.3266 116.01 46.3962 114.761 43.3156 114.653C41.7248 111.205 39.0566 108.368 35.713 106.568C32.3694 104.769 28.5316 104.105 24.7778 104.676C21.024 105.248 17.5576 107.024 14.9009 109.736C12.2441 112.449 10.541 115.952 10.0482 119.717H9.89309C8.59256 119.717 7.30479 119.973 6.10346 120.471C4.90213 120.97 3.81082 121.7 2.89195 122.62C1.97308 123.54 1.2447 124.633 0.748469 125.835C0.25224 127.037 -0.00209596 128.325 1.30089e-05 129.626Z" fill="url(#paint8_linear_1900_26250)"/>
<path d="M48.1516 7.99867C48.6409 5.97173 51.524 5.97173 52.0133 7.99866L52.4524 9.81798C52.6273 10.5423 53.1928 11.1079 53.9172 11.2827L55.7365 11.7219C57.7634 12.2112 57.7634 15.0943 55.7365 15.5836L53.9172 16.0227C53.1928 16.1976 52.6273 16.7631 52.4524 17.4875L52.0133 19.3068C51.524 21.3337 48.6409 21.3337 48.1516 19.3068L47.7124 17.4875C47.5376 16.7631 46.972 16.1976 46.2477 16.0227L44.4284 15.5836C42.4014 15.0943 42.4014 12.2112 44.4284 11.7219L46.2477 11.2827C46.972 11.1079 47.5376 10.5423 47.7124 9.81798L48.1516 7.99867Z" fill="#64A0FF"/>
<g filter="url(#filter1_d_1900_26250)">
<path d="M73.1176 88.0735C73.0951 88.1252 73.0119 88.1407 72.9444 88.1045C72.8769 88.0683 72.8267 88.0012 72.8509 87.9478C72.8751 87.8944 72.9565 87.8806 73.0241 87.9168C73.0916 87.953 73.1436 88.0218 73.1176 88.0735Z" fill="url(#paint9_linear_1900_26250)"/>
<path d="M73.5418 88.5436C73.5059 88.5615 73.4649 88.5665 73.4257 88.5578C73.3865 88.549 73.3517 88.5269 73.327 88.4953C73.2595 88.423 73.2456 88.3232 73.2976 88.2784C73.3496 88.2336 73.4431 88.2543 73.5106 88.3266C73.5781 88.3989 73.5937 88.4988 73.5418 88.5436Z" fill="url(#paint10_linear_1900_26250)"/>
<path d="M73.9545 89.1412C73.8904 89.186 73.7813 89.1412 73.7207 89.0517C73.7039 89.0356 73.6906 89.0164 73.6815 88.9951C73.6724 88.9738 73.6677 88.9509 73.6677 88.9277C73.6677 88.9046 73.6724 88.8817 73.6815 88.8604C73.6906 88.8391 73.7039 88.8198 73.7207 88.8037C73.7848 88.7607 73.8939 88.8037 73.9545 88.8916C74.0151 88.9794 74.0168 89.0965 73.9545 89.1412Z" fill="url(#paint11_linear_1900_26250)"/>
<path d="M74.5134 89.7197C74.4562 89.7834 74.3402 89.7662 74.245 89.6801C74.1497 89.594 74.1272 89.4769 74.1844 89.4149C74.2415 89.353 74.3575 89.3702 74.4562 89.4545C74.555 89.5389 74.574 89.6577 74.5134 89.7197Z" fill="url(#paint12_linear_1900_26250)"/>
<path d="M75.2984 90.0572C75.2724 90.1381 75.1546 90.1743 75.0369 90.1398C74.9191 90.1054 74.8412 90.0089 74.8637 89.9263C74.8862 89.8436 75.0057 89.8058 75.1252 89.8436C75.2447 89.8815 75.3209 89.9728 75.2984 90.0572Z" fill="url(#paint13_linear_1900_26250)"/>
<path d="M76.1536 90.1158C76.1536 90.2002 76.0566 90.2725 75.932 90.2742C75.8073 90.2759 75.7051 90.207 75.7051 90.1227C75.7051 90.0383 75.8021 89.966 75.9268 89.9643C76.0514 89.9625 76.1536 90.0297 76.1536 90.1158Z" fill="url(#paint14_linear_1900_26250)"/>
<path d="M76.9501 89.9831C76.9657 90.0675 76.8791 90.1553 76.7544 90.176C76.6297 90.1966 76.5206 90.1467 76.505 90.064C76.4894 89.9814 76.5795 89.8919 76.7007 89.8695C76.8219 89.8471 76.9345 89.8987 76.9501 89.9831Z" fill="url(#paint15_linear_1900_26250)"/>
<path fill-rule="evenodd" clip-rule="evenodd" d="M86.2494 33.6799C77.193 33.6846 68.4335 36.878 61.5373 42.6891C54.6411 48.5002 50.0579 56.5501 48.6071 65.3994C47.1563 74.2487 48.9326 83.3202 53.6183 90.992C58.3041 98.6638 65.5937 104.436 74.1838 107.275C76.0789 107.625 76.7928 106.456 76.7928 105.462C76.7928 104.467 76.7549 101.585 76.7422 98.433C66.1296 100.715 63.887 93.9744 63.887 93.9744C62.1562 89.5971 59.6546 88.4465 59.6546 88.4465C56.1929 86.1077 59.9136 86.1515 59.9136 86.1515C63.7481 86.4204 65.7632 90.0473 65.7632 90.0473C69.1618 95.8191 74.6892 94.1495 76.8622 93.174C77.2034 90.729 78.1952 89.0656 79.288 88.1213C70.8105 87.1708 61.9035 83.9316 61.9035 69.4614C61.8509 65.7086 63.2577 62.0795 65.8327 59.3248C65.441 58.3743 64.1334 54.5347 66.2054 49.3195C66.2054 49.3195 69.4082 48.3064 76.698 53.1903C82.9508 51.4976 89.548 51.4976 95.8008 53.1903C103.084 48.3064 106.281 49.3195 106.281 49.3195C108.359 54.5222 107.051 58.3618 106.66 59.3248C109.243 62.0799 110.653 65.7154 110.595 69.4739C110.595 83.9754 101.669 87.1708 93.1792 88.1026C94.5437 89.2782 95.7629 91.5731 95.7629 95.1C95.7629 100.153 95.7187 104.217 95.7187 105.462C95.7187 106.469 96.4072 107.644 98.3402 107.275C106.931 104.435 114.222 98.6624 118.907 90.9893C123.593 83.3162 125.368 74.2433 123.916 65.3932C122.463 56.5432 117.878 48.4932 110.979 42.6831C104.081 36.8729 95.3195 33.6816 86.262 33.6799H86.2494Z" fill="url(#paint16_linear_1900_26250)"/>
</g>
<path d="M73.1176 88.0735C73.0951 88.1252 73.0119 88.1407 72.9444 88.1045C72.8769 88.0683 72.8267 88.0012 72.8509 87.9478C72.8751 87.8944 72.9565 87.8806 73.0241 87.9168C73.0916 87.953 73.1436 88.0218 73.1176 88.0735Z" fill="url(#paint17_linear_1900_26250)"/>
<path d="M73.5418 88.5436C73.5059 88.5615 73.4649 88.5665 73.4257 88.5578C73.3865 88.549 73.3517 88.5269 73.327 88.4953C73.2595 88.423 73.2456 88.3232 73.2976 88.2784C73.3496 88.2336 73.4431 88.2543 73.5106 88.3266C73.5781 88.3989 73.5937 88.4988 73.5418 88.5436Z" fill="url(#paint18_linear_1900_26250)"/>
<path d="M73.9545 89.1412C73.8904 89.186 73.7813 89.1412 73.7207 89.0517C73.7039 89.0356 73.6906 89.0164 73.6815 88.9951C73.6724 88.9738 73.6677 88.9509 73.6677 88.9277C73.6677 88.9046 73.6724 88.8817 73.6815 88.8604C73.6906 88.8391 73.7039 88.8198 73.7207 88.8037C73.7848 88.7607 73.8939 88.8037 73.9545 88.8916C74.0151 88.9794 74.0168 89.0965 73.9545 89.1412Z" fill="url(#paint19_linear_1900_26250)"/>
<path d="M74.5134 89.7197C74.4562 89.7834 74.3402 89.7662 74.245 89.6801C74.1497 89.594 74.1272 89.4769 74.1844 89.4149C74.2415 89.353 74.3575 89.3702 74.4562 89.4545C74.555 89.5389 74.574 89.6577 74.5134 89.7197Z" fill="url(#paint20_linear_1900_26250)"/>
<path d="M75.2984 90.0572C75.2724 90.1381 75.1546 90.1743 75.0369 90.1398C74.9191 90.1054 74.8412 90.0089 74.8637 89.9263C74.8862 89.8436 75.0057 89.8058 75.1252 89.8436C75.2447 89.8815 75.3209 89.9728 75.2984 90.0572Z" fill="url(#paint21_linear_1900_26250)"/>
<path d="M76.1536 90.1158C76.1536 90.2002 76.0566 90.2725 75.932 90.2742C75.8073 90.2759 75.7051 90.207 75.7051 90.1227C75.7051 90.0383 75.8021 89.966 75.9268 89.9643C76.0514 89.9625 76.1536 90.0297 76.1536 90.1158Z" fill="url(#paint22_linear_1900_26250)"/>
<path d="M76.9501 89.9831C76.9657 90.0675 76.8791 90.1553 76.7544 90.176C76.6297 90.1966 76.5206 90.1467 76.505 90.064C76.4894 89.9814 76.5795 89.8919 76.7007 89.8695C76.8219 89.8471 76.9345 89.8987 76.9501 89.9831Z" fill="url(#paint23_linear_1900_26250)"/>
<path fill-rule="evenodd" clip-rule="evenodd" d="M86.2494 33.6799C77.193 33.6846 68.4335 36.878 61.5373 42.6891C54.6411 48.5002 50.0579 56.5501 48.6071 65.3994C47.1563 74.2487 48.9326 83.3202 53.6183 90.992C58.3041 98.6638 65.5937 104.436 74.1838 107.275C76.0789 107.625 76.7928 106.456 76.7928 105.462C76.7928 104.467 76.7549 101.585 76.7422 98.433C66.1296 100.715 63.887 93.9744 63.887 93.9744C62.1562 89.5971 59.6546 88.4465 59.6546 88.4465C56.1929 86.1077 59.9136 86.1515 59.9136 86.1515C63.7481 86.4204 65.7632 90.0473 65.7632 90.0473C69.1618 95.8191 74.6892 94.1495 76.8622 93.174C77.2034 90.729 78.1952 89.0656 79.288 88.1213C70.8105 87.1708 61.9035 83.9316 61.9035 69.4614C61.8509 65.7086 63.2577 62.0795 65.8327 59.3248C65.441 58.3743 64.1334 54.5347 66.2054 49.3195C66.2054 49.3195 69.4082 48.3064 76.698 53.1903C82.9508 51.4976 89.548 51.4976 95.8008 53.1903C103.084 48.3064 106.281 49.3195 106.281 49.3195C108.359 54.5222 107.051 58.3618 106.66 59.3248C109.243 62.0799 110.653 65.7154 110.595 69.4739C110.595 83.9754 101.669 87.1708 93.1792 88.1026C94.5437 89.2782 95.7629 91.5731 95.7629 95.1C95.7629 100.153 95.7187 104.217 95.7187 105.462C95.7187 106.469 96.4072 107.644 98.3402 107.275C106.931 104.435 114.222 98.6624 118.907 90.9893C123.593 83.3162 125.368 74.2433 123.916 65.3932C122.463 56.5432 117.878 48.4932 110.979 42.6831C104.081 36.8729 95.3195 33.6816 86.262 33.6799H86.2494Z" fill="url(#paint24_linear_1900_26250)"/>
<defs>
<filter id="filter0_d_1900_26250" x="37.2412" y="35.0547" width="96.668" height="107.665" filterUnits="userSpaceOnUse" color-interpolation-filters="sRGB">
<feFlood flood-opacity="0" result="BackgroundImageFix"/>
<feColorMatrix in="SourceAlpha" type="matrix" values="0 0 0 0 0 0 0 0 0 0 0 0 0 0 0 0 0 0 127 0" result="hardAlpha"/>
<feOffset dy="4"/>
<feGaussianBlur stdDeviation="2"/>
<feComposite in2="hardAlpha" operator="out"/>
<feColorMatrix type="matrix" values="0 0 0 0 0 0 0 0 0 0 0 0 0 0 0 0 0 0 0.25 0"/>
<feBlend mode="normal" in2="BackgroundImageFix" result="effect1_dropShadow_1900_26250"/>
<feBlend mode="normal" in="SourceGraphic" in2="effect1_dropShadow_1900_26250" result="shape"/>
</filter>
<filter id="filter1_d_1900_26250" x="44.1143" y="33.6799" width="84.2954" height="81.6647" filterUnits="userSpaceOnUse" color-interpolation-filters="sRGB">
<feFlood flood-opacity="0" result="BackgroundImageFix"/>
<feColorMatrix in="SourceAlpha" type="matrix" values="0 0 0 0 0 0 0 0 0 0 0 0 0 0 0 0 0 0 127 0" result="hardAlpha"/>
<feOffset dy="4"/>
<feGaussianBlur stdDeviation="2"/>
<feComposite in2="hardAlpha" operator="out"/>
<feColorMatrix type="matrix" values="0 0 0 0 0 0 0 0 0 0 0 0 0 0 0 0 0 0 0.25 0"/>
<feBlend mode="normal" in2="BackgroundImageFix" result="effect1_dropShadow_1900_26250"/>
<feBlend mode="normal" in="SourceGraphic" in2="effect1_dropShadow_1900_26250" result="shape"/>
</filter>
<linearGradient id="paint0_linear_1900_26250" x1="86.1249" y1="-15.127" x2="87.6472" y2="245.835" gradientUnits="userSpaceOnUse">
<stop stop-color="#CAE0FF" stop-opacity="0"/>
<stop offset="1" stop-color="#BCD8FF"/>
</linearGradient>
<linearGradient id="paint1_linear_1900_26250" x1="129.391" y1="27.3952" x2="141.734" y2="38.0919" gradientUnits="userSpaceOnUse">
<stop stop-color="#94BFFF"/>
<stop offset="1" stop-color="#4C94FE"/>
</linearGradient>
<linearGradient id="paint2_linear_1900_26250" x1="7.34342" y1="76.4016" x2="19.6859" y2="87.0984" gradientUnits="userSpaceOnUse">
<stop stop-color="#94BFFF"/>
<stop offset="1" stop-color="#4C94FE"/>
</linearGradient>
<linearGradient id="paint3_linear_1900_26250" x1="132.602" y1="128.101" x2="123.844" y2="135.218" gradientUnits="userSpaceOnUse">
<stop stop-color="#70A8FF"/>
<stop offset="1" stop-color="#5597FD"/>
</linearGradient>
<linearGradient id="paint4_linear_1900_26250" x1="165.307" y1="68.7346" x2="165.307" y2="87.9803" gradientUnits="userSpaceOnUse">
<stop stop-color="#70A8FF"/>
<stop offset="1" stop-color="#5597FD"/>
</linearGradient>
<linearGradient id="paint5_linear_1900_26250" x1="74.2334" y1="139.531" x2="74.2334" y2="162.214" gradientUnits="userSpaceOnUse">
<stop stop-color="#70A8FF"/>
<stop offset="1" stop-color="#5597FD"/>
</linearGradient>
<linearGradient id="paint6_linear_1900_26250" x1="146.539" y1="88.394" x2="161.672" y2="48.5078" gradientUnits="userSpaceOnUse">
<stop stop-color="#609EFE"/>
<stop offset="1" stop-color="#D7EEFB"/>
</linearGradient>
<linearGradient id="paint7_linear_1900_26250" x1="23.0258" y1="64.6105" x2="18.7973" y2="36.3226" gradientUnits="userSpaceOnUse">
<stop stop-color="#609EFE"/>
<stop offset="1" stop-color="#D7EEFB"/>
</linearGradient>
<linearGradient id="paint8_linear_1900_26250" x1="29.8996" y1="166.338" x2="31.9673" y2="118.983" gradientUnits="userSpaceOnUse">
<stop stop-color="#609EFE"/>
<stop offset="1" stop-color="#D7EEFB"/>
</linearGradient>
<linearGradient id="paint9_linear_1900_26250" x1="91.4171" y1="110.663" x2="97.062" y2="26.2428" gradientUnits="userSpaceOnUse">
<stop stop-color="#609EFE"/>
<stop offset="1" stop-color="#D7EEFB"/>
<stop offset="1" stop-color="#D7E8FB"/>
</linearGradient>
<linearGradient id="paint10_linear_1900_26250" x1="91.4171" y1="110.663" x2="97.062" y2="26.2428" gradientUnits="userSpaceOnUse">
<stop stop-color="#609EFE"/>
<stop offset="1" stop-color="#D7EEFB"/>
<stop offset="1" stop-color="#D7E8FB"/>
</linearGradient>
<linearGradient id="paint11_linear_1900_26250" x1="91.4171" y1="110.663" x2="97.062" y2="26.2428" gradientUnits="userSpaceOnUse">
<stop stop-color="#609EFE"/>
<stop offset="1" stop-color="#D7EEFB"/>
<stop offset="1" stop-color="#D7E8FB"/>
</linearGradient>
<linearGradient id="paint12_linear_1900_26250" x1="91.4171" y1="110.663" x2="97.062" y2="26.2428" gradientUnits="userSpaceOnUse">
<stop stop-color="#609EFE"/>
<stop offset="1" stop-color="#D7EEFB"/>
<stop offset="1" stop-color="#D7E8FB"/>
</linearGradient>
<linearGradient id="paint13_linear_1900_26250" x1="91.4171" y1="110.663" x2="97.062" y2="26.2428" gradientUnits="userSpaceOnUse">
<stop stop-color="#609EFE"/>
<stop offset="1" stop-color="#D7EEFB"/>
<stop offset="1" stop-color="#D7E8FB"/>
</linearGradient>
<linearGradient id="paint14_linear_1900_26250" x1="91.4171" y1="110.663" x2="97.062" y2="26.2428" gradientUnits="userSpaceOnUse">
<stop stop-color="#609EFE"/>
<stop offset="1" stop-color="#D7EEFB"/>
<stop offset="1" stop-color="#D7E8FB"/>
</linearGradient>
<linearGradient id="paint15_linear_1900_26250" x1="91.4171" y1="110.663" x2="97.062" y2="26.2428" gradientUnits="userSpaceOnUse">
<stop stop-color="#609EFE"/>
<stop offset="1" stop-color="#D7EEFB"/>
<stop offset="1" stop-color="#D7E8FB"/>
</linearGradient>
<linearGradient id="paint16_linear_1900_26250" x1="91.4171" y1="110.663" x2="97.062" y2="26.2428" gradientUnits="userSpaceOnUse">
<stop stop-color="#609EFE"/>
<stop offset="1" stop-color="#D7EEFB"/>
<stop offset="1" stop-color="#D7E8FB"/>
</linearGradient>
<linearGradient id="paint17_linear_1900_26250" x1="91.4171" y1="110.663" x2="97.062" y2="26.2428" gradientUnits="userSpaceOnUse">
<stop stop-color="#609EFE"/>
<stop offset="1" stop-color="#D7EEFB"/>
<stop offset="1" stop-color="#D7E8FB"/>
</linearGradient>
<linearGradient id="paint18_linear_1900_26250" x1="91.4171" y1="110.663" x2="97.062" y2="26.2428" gradientUnits="userSpaceOnUse">
<stop stop-color="#609EFE"/>
<stop offset="1" stop-color="#D7EEFB"/>
<stop offset="1" stop-color="#D7E8FB"/>
</linearGradient>
<linearGradient id="paint19_linear_1900_26250" x1="91.4171" y1="110.663" x2="97.062" y2="26.2428" gradientUnits="userSpaceOnUse">
<stop stop-color="#609EFE"/>
<stop offset="1" stop-color="#D7EEFB"/>
<stop offset="1" stop-color="#D7E8FB"/>
</linearGradient>
<linearGradient id="paint20_linear_1900_26250" x1="91.4171" y1="110.663" x2="97.062" y2="26.2428" gradientUnits="userSpaceOnUse">
<stop stop-color="#609EFE"/>
<stop offset="1" stop-color="#D7EEFB"/>
<stop offset="1" stop-color="#D7E8FB"/>
</linearGradient>
<linearGradient id="paint21_linear_1900_26250" x1="91.4171" y1="110.663" x2="97.062" y2="26.2428" gradientUnits="userSpaceOnUse">
<stop stop-color="#609EFE"/>
<stop offset="1" stop-color="#D7EEFB"/>
<stop offset="1" stop-color="#D7E8FB"/>
</linearGradient>
<linearGradient id="paint22_linear_1900_26250" x1="91.4171" y1="110.663" x2="97.062" y2="26.2428" gradientUnits="userSpaceOnUse">
<stop stop-color="#609EFE"/>
<stop offset="1" stop-color="#D7EEFB"/>
<stop offset="1" stop-color="#D7E8FB"/>
</linearGradient>
<linearGradient id="paint23_linear_1900_26250" x1="91.4171" y1="110.663" x2="97.062" y2="26.2428" gradientUnits="userSpaceOnUse">
<stop stop-color="#609EFE"/>
<stop offset="1" stop-color="#D7EEFB"/>
<stop offset="1" stop-color="#D7E8FB"/>
</linearGradient>
<linearGradient id="paint24_linear_1900_26250" x1="91.4171" y1="110.663" x2="97.062" y2="26.2428" gradientUnits="userSpaceOnUse">
<stop stop-color="#609EFE"/>
<stop offset="1" stop-color="#D7EEFB"/>
<stop offset="1" stop-color="#D7E8FB"/>
</linearGradient>
</defs>
</svg>
