<svg width="16" height="13" viewBox="0 0 16 13" fill="none" xmlns="http://www.w3.org/2000/svg">
<path fill-rule="evenodd" clip-rule="evenodd" d="M5.43127 0.744111C4.50179 0.950625 3.79404 1.17814 2.91856 1.55186C2.77381 1.61364 2.75087 1.63881 2.54901 1.95785C1.58116 3.4875 0.955142 5.06104 0.671812 6.67627C0.524478 7.51615 0.496617 7.8806 0.500308 8.91906C0.502212 9.4508 0.514898 9.95796 0.52855 10.0461L0.553336 10.2063L0.934195 10.4652C1.88617 11.1124 2.87687 11.6117 3.9131 11.9667C4.1263 12.0397 4.31696 12.0932 4.33679 12.0856C4.40848 12.0581 5.1383 10.8925 5.1383 10.8055C5.1383 10.7949 5.06251 10.7563 4.96984 10.7198C4.74039 10.6293 3.99059 10.2568 3.94099 10.2087C3.89031 10.1595 3.90317 10.1399 4.05962 10.0276L4.18691 9.93613L4.4795 10.061C6.025 10.7207 7.79362 10.9345 9.43029 10.6594C10.1842 10.5327 10.8683 10.325 11.6731 9.97864C11.776 9.93431 11.7787 9.93502 11.9075 10.0369C11.9791 10.0936 12.0377 10.1553 12.0377 10.174C12.0377 10.215 11.4267 10.5355 11.1002 10.6657C10.9713 10.717 10.8538 10.7697 10.8392 10.7828C10.7812 10.8341 11.5409 12.0936 11.6316 12.0967C11.65 12.0973 11.8214 12.0439 12.0125 11.9781C13.0915 11.6066 14.0677 11.1165 15.026 10.4653L15.4069 10.2065L15.4263 10.0462C15.437 9.95802 15.4551 9.58263 15.4666 9.21203C15.5467 6.62836 14.8784 4.27143 13.4094 1.95659L13.1927 1.61523L12.791 1.44826C12.0499 1.14026 11.084 0.847735 10.37 0.715078L10.1085 0.666504L10.0561 0.735176C10.0273 0.77291 9.93429 0.953614 9.84939 1.13669L9.69502 1.46956L9.54801 1.45154C9.46715 1.44164 9.27575 1.41773 9.12268 1.39846C8.75957 1.35273 7.23385 1.35249 6.85217 1.39811C6.69103 1.41738 6.49328 1.4407 6.41271 1.44993L6.26623 1.46675L6.0758 1.07669C5.85379 0.621914 5.89217 0.641719 5.43127 0.744111ZM6.03015 5.57552C6.41134 5.7639 6.69033 6.12979 6.79668 6.58076C6.85492 6.82767 6.83679 7.23399 6.75695 7.4717C6.41831 8.47987 5.31344 8.78558 4.59648 8.06945C4.12738 7.6009 4.01312 6.84062 4.3184 6.21891C4.48466 5.88033 4.75826 5.63485 5.10478 5.51332C5.26762 5.45622 5.34165 5.44705 5.55757 5.45728C5.78131 5.46788 5.84424 5.48365 6.03015 5.57552ZM11.016 5.57816C11.5172 5.82589 11.8188 6.3383 11.8175 6.94035C11.8167 7.37957 11.6792 7.74428 11.4025 8.04071C10.64 8.85786 9.40888 8.43068 9.16354 7.26378C9.03473 6.65101 9.30238 5.96954 9.79639 5.65251C10.0372 5.498 10.2396 5.44495 10.538 5.45813C10.7642 5.46812 10.8234 5.483 11.016 5.57816Z" fill="#485F7D"/>
<path fill-rule="evenodd" clip-rule="evenodd" d="M5.43127 0.744111C4.50179 0.950625 3.79404 1.17814 2.91856 1.55186C2.77381 1.61364 2.75087 1.63881 2.54901 1.95785C1.58116 3.4875 0.955142 5.06104 0.671812 6.67627C0.524478 7.51615 0.496617 7.8806 0.500308 8.91906C0.502212 9.4508 0.514898 9.95796 0.52855 10.0461L0.553336 10.2063L0.934195 10.4652C1.88617 11.1124 2.87687 11.6117 3.9131 11.9667C4.1263 12.0397 4.31696 12.0932 4.33679 12.0856C4.40848 12.0581 5.1383 10.8925 5.1383 10.8055C5.1383 10.7949 5.06251 10.7563 4.96984 10.7198C4.74039 10.6293 3.99059 10.2568 3.94099 10.2087C3.89031 10.1595 3.90317 10.1399 4.05962 10.0276L4.18691 9.93613L4.4795 10.061C6.025 10.7207 7.79362 10.9345 9.43029 10.6594C10.1842 10.5327 10.8683 10.325 11.6731 9.97864C11.776 9.93431 11.7787 9.93502 11.9075 10.0369C11.9791 10.0936 12.0377 10.1553 12.0377 10.174C12.0377 10.215 11.4267 10.5355 11.1002 10.6657C10.9713 10.717 10.8538 10.7697 10.8392 10.7828C10.7812 10.8341 11.5409 12.0936 11.6316 12.0967C11.65 12.0973 11.8214 12.0439 12.0125 11.9781C13.0915 11.6066 14.0677 11.1165 15.026 10.4653L15.4069 10.2065L15.4263 10.0462C15.437 9.95802 15.4551 9.58263 15.4666 9.21203C15.5467 6.62836 14.8784 4.27143 13.4094 1.95659L13.1927 1.61523L12.791 1.44826C12.0499 1.14026 11.084 0.847735 10.37 0.715078L10.1085 0.666504L10.0561 0.735176C10.0273 0.77291 9.93429 0.953614 9.84939 1.13669L9.69502 1.46956L9.54801 1.45154C9.46715 1.44164 9.27575 1.41773 9.12268 1.39846C8.75957 1.35273 7.23385 1.35249 6.85217 1.39811C6.69103 1.41738 6.49328 1.4407 6.41271 1.44993L6.26623 1.46675L6.0758 1.07669C5.85379 0.621914 5.89217 0.641719 5.43127 0.744111ZM6.03015 5.57552C6.41134 5.7639 6.69033 6.12979 6.79668 6.58076C6.85492 6.82767 6.83679 7.23399 6.75695 7.4717C6.41831 8.47987 5.31344 8.78558 4.59648 8.06945C4.12738 7.6009 4.01312 6.84062 4.3184 6.21891C4.48466 5.88033 4.75826 5.63485 5.10478 5.51332C5.26762 5.45622 5.34165 5.44705 5.55757 5.45728C5.78131 5.46788 5.84424 5.48365 6.03015 5.57552ZM11.016 5.57816C11.5172 5.82589 11.8188 6.3383 11.8175 6.94035C11.8167 7.37957 11.6792 7.74428 11.4025 8.04071C10.64 8.85786 9.40888 8.43068 9.16354 7.26378C9.03473 6.65101 9.30238 5.96954 9.79639 5.65251C10.0372 5.498 10.2396 5.44495 10.538 5.45813C10.7642 5.46812 10.8234 5.483 11.016 5.57816Z" fill="#485F7D"/>
</svg>
