<svg width="14" height="17" viewBox="0 0 14 17" fill="none" xmlns="http://www.w3.org/2000/svg">
<path d="M4.60633 15.9797C4.51482 16.0033 4.39944 16.0077 4.26417 15.9841L4.42827 16.0395C5.39219 16.3387 6.41813 16.5 7.48292 16.5C8.60889 16.5 9.71496 16.3171 10.7295 15.9831C10.2203 16.084 10.0293 15.7697 10.0293 15.5061L10.0333 14.9322L10.0412 12.7365C10.0412 11.7918 9.72292 11.1874 9.35688 10.8731C11.6207 10.6214 14 9.76517 14 5.89984C14 4.79188 13.6061 3.89833 12.9576 3.19362C13.061 2.94183 13.4151 1.9096 12.8541 0.524766C12.8541 0.524766 12.0027 0.246422 10.0531 1.55601C9.2415 1.32931 8.37414 1.21669 7.50679 1.21669C6.6474 1.21472 5.79198 1.32931 4.96044 1.557C3.01486 0.2597 2.15944 0.523782 2.15944 0.523782C1.60243 1.90861 1.95653 2.94084 2.05998 3.19263C1.65813 3.62834 1.35177 4.14077 1.18069 4.72696C1.07326 5.08989 1.01358 5.48085 1.01358 5.89984C1.01358 9.7519 3.38488 10.6214 5.64875 10.8731C5.35432 11.1249 5.08775 11.5651 5.00022 12.2196C4.41536 12.4837 2.9512 12.9115 2.03213 11.3885C1.84115 11.0866 1.26822 10.3435 0.468504 10.3563C-0.386912 10.3686 0.122359 10.8348 0.48044 11.0231C0.914116 11.2626 1.40747 12.1562 1.52285 12.4463C1.72975 13.0133 2.39021 14.0957 4.9485 13.6295C4.9485 14.4734 4.96044 15.2661 4.96044 15.5051C4.96044 15.6994 4.86097 15.9138 4.60633 15.9797Z" fill="#485F7D"/>
</svg>
