<svg width="16" height="17" viewBox="0 0 16 17" fill="none" xmlns="http://www.w3.org/2000/svg">
<path fill-rule="evenodd" clip-rule="evenodd" d="M8.16667 1.5C4.20863 1.5 1 4.70863 1 8.66667C1 12.6247 4.20863 15.8333 8.16667 15.8333C12.1247 15.8333 15.3333 12.6247 15.3333 8.66667C15.3333 4.70863 12.1247 1.5 8.16667 1.5ZM2 8.66667C2 5.26091 4.76091 2.5 8.16667 2.5C11.5724 2.5 14.3333 5.26091 14.3333 8.66667C14.3333 12.0724 11.5724 14.8333 8.16667 14.8333C4.76091 14.8333 2 12.0724 2 8.66667Z" fill="#E5007A"/>
<path d="M7.4 7.9V6.1C7.4 5.76863 7.66863 5.5 8 5.5C8.33137 5.5 8.6 5.76863 8.6 6.1V7.9H10.4C10.7314 7.9 11 8.16863 11 8.5C11 8.83137 10.7314 9.1 10.4 9.1H8.6V10.9C8.6 11.2314 8.33137 11.5 8 11.5C7.66863 11.5 7.4 11.2314 7.4 10.9V9.1H5.6C5.26863 9.1 5 8.83137 5 8.5C5 8.16863 5.26863 7.9 5.6 7.9H7.4Z" fill="#E5007A"/>
</svg>
