<svg width="16" height="15" viewBox="0 0 16 15" fill="none" xmlns="http://www.w3.org/2000/svg">
<path fill-rule="evenodd" clip-rule="evenodd" d="M8.04687 3.64456C4.04191 5.1901 0.731724 6.47651 0.690904 6.50323C0.591996 6.56806 0.50012 6.72356 0.5 6.82639C0.499821 6.9528 0.573052 7.10141 0.668578 7.16851C0.715713 7.20161 1.54208 7.52162 2.50498 7.87963C3.46788 8.23768 4.27031 8.54589 4.28817 8.5646C4.30601 8.5833 4.62066 9.56823 4.98738 10.7533C5.35411 11.9384 5.6751 12.9534 5.70069 13.0089C5.72631 13.0643 5.78874 13.1349 5.83943 13.1659C5.94331 13.2292 6.15597 13.2405 6.25431 13.1879C6.28971 13.1689 6.75008 12.8012 7.27733 12.3706C8.4287 11.4305 8.39013 11.4593 8.54605 11.4243C8.79235 11.369 8.84038 11.3971 10.2879 12.4478C12.8281 14.2913 12.643 14.165 12.8037 14.165C12.97 14.165 13.0875 14.0916 13.1671 13.9381C13.2464 13.7851 15.8317 1.29515 15.809 1.17436C15.7745 0.990463 15.5817 0.830953 15.3969 0.833527C15.3594 0.834036 12.0518 2.09898 8.04687 3.64456ZM12.4946 3.62175C12.5143 3.64151 12.5305 3.67957 12.5305 3.70636C12.5305 3.73314 11.4299 4.77753 10.0848 6.02719C6.81313 9.06677 6.68361 9.18974 6.59646 9.33845C6.48112 9.53525 6.43686 9.7336 6.33409 10.5139C6.28023 10.9229 6.22124 11.2612 6.19709 11.2995C6.15322 11.3692 6.02911 11.3898 5.95112 11.3403C5.92891 11.3263 5.73484 10.7036 5.51984 9.95668C5.10449 8.51378 5.08064 8.38746 5.1802 8.15783C5.20681 8.09645 5.27229 8.005 5.32571 7.95463C5.44556 7.84156 12.3478 3.58677 12.4123 3.58623C12.4378 3.58602 12.4748 3.602 12.4946 3.62175Z" fill="#485F7D"/>
</svg>
