<svg width="16" height="16" viewBox="0 0 16 16" fill="none" xmlns="http://www.w3.org/2000/svg">
<path d="M12.6668 8.99967C12.6668 11.577 10.5775 13.6663 8.00015 13.6663C6.4446 13.6663 3.38607 12.2258 3.50015 8.99967C3.63216 5.2663 6.55569 4.33301 8.00015 4.33301C10.5775 4.33301 12.6668 6.42235 12.6668 8.99967Z" fill="#3988FF"/>
<path d="M8 15C11.3137 15 14 12.3137 14 9C14 5.68629 11.3137 3 8 3C4.68629 3 2 5.68629 2 9C2 12.3137 4.68629 15 8 15Z" stroke="#485F7D" stroke-width="1.5" stroke-linecap="round" stroke-linejoin="round"/>
<path d="M11.333 1.66699L13.9997 3.66699" stroke="#485F7D" stroke-width="1.5" stroke-linecap="round"/>
<path d="M4.66699 1.66699L2.00033 3.66699" stroke="#485F7D" stroke-width="1.5" stroke-linecap="round"/>
</svg>
