<svg width="24" height="24" viewBox="0 0 24 24" fill="none" xmlns="http://www.w3.org/2000/svg">
<path d="M18.827 4.04721C19.5228 3.81528 20.1847 4.47724 19.9528 5.17303L15.2134 19.3913C14.9698 20.122 13.976 20.2193 13.5953 19.5498L10.5827 14.2517C10.3847 13.9035 10.0964 13.6153 9.74826 13.4173L4.45022 10.4047C3.78067 10.024 3.87801 9.0302 4.60872 8.78663L18.827 4.04721Z" stroke="#485F7D" stroke-width="1.6"/>
<path d="M19.5045 4.49653C19.7448 4.73676 19.8605 5.10174 19.7358 5.47582L15.2352 18.9776C14.9734 19.7631 13.9051 19.8677 13.4958 19.1479L10.741 14.3033C10.6172 14.0856 10.4652 13.8867 10.2897 13.7112L19.5045 4.49653Z" stroke="#485F7D" stroke-width="1.6"/>
</svg>
