<svg width="24" height="24" viewBox="0 0 24 24" fill="none" xmlns="http://www.w3.org/2000/svg">
<path d="M5 9.5278C5 6.92197 5 5.61906 5.80953 4.80953C6.61906 4 7.92197 4 10.5278 4H14.213C16.8188 4 18.1218 4 18.9313 4.80953C19.7408 5.61906 19.7408 6.92197 19.7408 9.5278V15.8181C19.7408 18.2902 19.7408 19.5263 18.963 19.9043C18.1851 20.2824 17.2132 19.5187 15.2693 17.9914L14.6472 17.5026C13.5542 16.6438 13.0077 16.2144 12.3704 16.2144C11.7331 16.2144 11.1866 16.6438 10.0936 17.5026L9.4715 17.9914C7.52763 19.5187 6.5557 20.2824 5.77785 19.9043C5 19.5263 5 18.2902 5 15.8181V9.5278Z" stroke="#485F7D" stroke-width="1.7"/>
</svg>
