<svg width="18" height="18" viewBox="0 0 18 18" fill="none" xmlns="http://www.w3.org/2000/svg">
<path d="M6.01875 15C5.71875 15 5.45625 14.8875 5.23125 14.6625C5.00625 14.4375 4.89375 14.175 4.89375 13.875V12H7.21875V9.61875C6.74375 9.65625 6.26875 9.59063 5.79375 9.42188C5.31875 9.25313 4.89375 8.9875 4.51875 8.625V7.5375H3.58125L1.125 5.08125C1.575 4.65625 2.1125 4.30938 2.7375 4.04063C3.3625 3.77188 4 3.6375 4.65 3.6375C5.025 3.6375 5.45312 3.69688 5.93438 3.81563C6.41563 3.93438 6.84375 4.125 7.21875 4.3875V3H15.75V13.0312C15.75 13.5813 15.5594 14.0469 15.1781 14.4281C14.7969 14.8094 14.3313 15 13.7813 15H6.01875ZM8.34375 12H12.9375V13.0312C12.9375 13.2812 13.0156 13.4844 13.1719 13.6406C13.3281 13.7969 13.5313 13.875 13.7813 13.875C14.0313 13.875 14.2344 13.7969 14.3906 13.6406C14.5469 13.4844 14.625 13.2812 14.625 13.0312V4.125H8.34375V5.19375L12.8625 9.7125V10.5188H12.0563L9.69375 8.15625L9.375 8.53125C9.2125 8.71875 9.05 8.8625 8.8875 8.9625C8.725 9.0625 8.54375 9.15625 8.34375 9.24375V12ZM4.0875 6.4125H5.64375V8.08125C5.85625 8.21875 6.06563 8.32188 6.27188 8.39062C6.47813 8.45938 6.6875 8.49375 6.9 8.49375C7.2125 8.49375 7.53125 8.40938 7.85625 8.24063C8.18125 8.07188 8.41875 7.9 8.56875 7.725L8.8875 7.35L7.59375 6.05625C7.19375 5.65625 6.74375 5.34063 6.24375 5.10938C5.74375 4.87813 5.2125 4.7625 4.65 4.7625C4.3125 4.7625 4.00625 4.80313 3.73125 4.88438C3.45625 4.96563 3.175 5.075 2.8875 5.2125L4.0875 6.4125ZM11.8125 13.125H6.01875V13.875H12.075C12 13.8 11.9375 13.6969 11.8875 13.5656C11.8375 13.4344 11.8125 13.2875 11.8125 13.125Z" fill="#E5007A"/>
</svg>
