<svg version="1.1" id="Layer_1" xmlns="http://www.w3.org/2000/svg" xmlns:xlink="http://www.w3.org/1999/xlink" x="0px" y="0px"
	 width="100%" viewBox="0 0 225 225" enable-background="new 0 0 225 225" xml:space="preserve">
<path fill="#49E2B0" opacity="1.000000" stroke="none" 
	d="
M226.000000,210.000000 
	C226.000000,211.388885 226.000000,212.777786 225.699310,214.746826 
	C222.634384,218.344131 219.870148,221.361298 217.149948,224.073471 
	C217.409134,221.856888 217.624283,219.945297 217.843216,218.000000 
	C213.228867,218.000000 209.567734,217.999985 205.906586,217.999985 
	C145.074570,218.000107 84.242363,217.935410 23.410826,218.105408 
	C17.624350,218.121567 11.328292,217.449600 6.187902,221.877106 
	C4.286314,219.475525 2.643156,217.237762 0.999999,215.000000 
	C1.000000,213.285843 1.000000,211.571671 1.353741,209.494171 
	C6.499601,209.420563 11.291527,209.958908 16.083868,209.962631 
	C86.055878,210.017029 156.027954,210.000000 226.000000,210.000000 
z"/>
<path fill="#095FF4" opacity="1.000000" stroke="none" 
	d="
M226.000000,25.000000 
	C226.000000,27.370558 226.000000,29.741114 225.531647,32.555862 
	C174.709122,33.333748 124.354950,33.667442 74.000389,34.000572 
	C74.000000,34.000000 73.998825,33.999233 73.742088,33.867393 
	C71.921364,34.021046 70.327614,34.654026 68.799286,34.523129 
	C65.070961,34.203796 61.376476,33.102734 57.662113,33.072018 
	C38.775833,32.915840 19.887569,33.000000 1.000000,33.000000 
	C1.000000,30.629442 1.000000,28.258884 1.468657,25.444260 
	C30.747129,25.000195 59.557343,24.925627 88.366341,25.078991 
	C92.789230,25.102537 97.218147,26.750921 101.624344,26.661856 
	C117.996666,26.330904 134.356934,25.263184 150.728638,25.075516 
	C175.816086,24.787943 200.909256,25.000000 226.000000,25.000000 
z"/>
<path fill="#034EFC" opacity="1.000000" stroke="none" 
	d="
M1.000000,13.000000 
	C1.000000,13.000000 1.000000,12.500000 1.314157,12.130515 
	C2.326782,10.639399 3.025250,9.517768 3.790179,8.669008 
	C3.978658,9.392907 4.100677,9.843934 4.222695,10.294962 
	C4.403445,10.206107 4.584195,10.117251 4.764944,10.028397 
	C4.442286,9.477303 4.119629,8.926208 3.835365,8.051191 
	C7.249172,5.484845 10.624586,3.242423 14.000000,1.000000 
	C80.354225,1.000000 146.708450,1.000000 213.680115,1.324645 
	C216.237518,3.015199 218.177460,4.381108 219.786011,5.998726 
	C216.072205,6.831689 212.683594,7.379455 209.309341,8.004557 
	C206.496475,8.525654 203.720093,9.435064 200.891174,9.621958 
	C198.275681,9.794751 195.612915,9.046446 192.969223,9.032483 
	C179.702682,8.962410 166.435593,9.000149 153.168686,9.000127 
	C138.403168,9.000102 123.637642,9.000236 108.872124,9.000239 
	C94.273026,9.000242 79.671135,8.832643 65.076088,9.075711 
	C58.467354,9.185774 51.863163,10.649216 45.273048,10.538448 
	C35.847969,10.380030 26.432291,9.405530 17.026045,8.618765 
	C15.319628,8.476035 13.677720,7.562037 12.059051,6.972529 
	C12.112069,6.940962 11.995905,6.994087 11.649734,7.068271 
	C9.868881,9.094649 8.434198,11.046845 6.875191,13.300602 
	C4.833910,13.401443 2.916955,13.200721 1.000000,13.000000 
z"/>
<path fill="#4AE8AD" opacity="1.000000" stroke="none" 
	d="
M6.446331,222.040939 
	C11.328292,217.449600 17.624350,218.121567 23.410826,218.105408 
	C84.242363,217.935410 145.074570,218.000107 205.906586,217.999985 
	C209.567734,217.999985 213.228867,218.000000 217.843216,218.000000 
	C217.624283,219.945297 217.409134,221.856888 216.916962,224.277740 
	C215.759949,225.191330 214.879974,225.595673 214.000000,226.000000 
	C146.979111,226.000000 79.958206,226.000000 12.313864,225.696777 
	C9.942385,224.276016 8.194357,223.158478 6.446331,222.040939 
z"/>
<path fill="#46DCB2" opacity="1.000000" stroke="none" 
	d="
M226.000000,209.562500 
	C156.027954,210.000000 86.055878,210.017029 16.083868,209.962631 
	C11.291527,209.958908 6.499601,209.420563 1.353741,209.065430 
	C1.000000,207.285645 1.000000,205.571289 1.468657,203.428467 
	C76.624878,203.000000 151.312439,203.000000 226.000000,203.000000 
	C226.000000,205.041672 226.000000,207.083328 226.000000,209.562500 
z"/>
<path fill="#0D65F1" opacity="1.000000" stroke="none" 
	d="
M74.000778,34.001141 
	C124.354950,33.667442 174.709122,33.333748 225.531647,33.000027 
	C226.000000,34.388889 226.000000,35.777779 225.533539,37.583336 
	C218.962570,38.516018 212.860840,39.069923 206.751480,39.520409 
	C205.292328,39.628002 203.802231,39.446251 202.335876,39.301392 
	C198.216522,38.894455 194.098404,38.034916 189.986450,38.072891 
	C175.691849,38.204895 161.400024,38.893585 147.107208,38.891773 
	C132.480942,38.889919 117.855232,38.202602 103.227974,38.144150 
	C101.144928,38.135822 99.054459,39.981831 96.819183,41.000687 
	C96.559448,41.183380 96.447960,41.334999 96.336472,41.486622 
	C96.563141,41.333900 96.789795,41.181179 97.430405,41.023384 
	C100.307388,41.375393 102.770432,41.732483 105.787979,42.169964 
	C104.923813,44.061901 104.409492,45.187912 103.522751,46.257397 
	C100.078651,45.001774 96.776978,44.191185 93.976807,42.533474 
	C84.095070,36.683437 74.595123,36.485409 65.515617,43.922962 
	C63.976208,45.183987 63.136669,47.299389 61.712669,49.030853 
	C61.277519,49.049889 61.103485,49.058128 60.701805,49.063919 
	C60.474152,49.061466 60.018948,49.072006 59.994518,48.777645 
	C58.330135,44.863205 57.962917,48.650234 57.002312,48.557686 
	C57.702183,43.284527 55.546314,41.843845 50.807308,41.910324 
	C34.207718,42.143188 17.602858,42.000233 1.000000,42.000000 
	C1.000000,39.299988 1.000000,36.599972 1.000000,33.449982 
	C19.887569,33.000000 38.775833,32.915840 57.662113,33.072018 
	C61.376476,33.102734 65.070961,34.203796 68.799286,34.523129 
	C70.327614,34.654026 71.921364,34.021046 73.688416,33.897568 
	C73.891479,34.059586 74.000778,34.001141 74.000778,34.001141 
M58.510925,41.888737 
	C58.510925,41.888737 58.440079,42.090210 58.440079,42.090210 
	C58.440079,42.090210 58.595867,41.963722 58.510925,41.888737 
z"/>
<path fill="#0454FA" opacity="1.000000" stroke="none" 
	d="
M12.006032,7.004097 
	C13.677720,7.562037 15.319628,8.476035 17.026045,8.618765 
	C26.432291,9.405530 35.847969,10.380030 45.273048,10.538448 
	C51.863163,10.649216 58.467354,9.185774 65.076088,9.075711 
	C79.671135,8.832643 94.273026,9.000242 108.872124,9.000239 
	C123.637642,9.000236 138.403168,9.000102 153.168686,9.000127 
	C166.435593,9.000149 179.702682,8.962410 192.969223,9.032483 
	C195.612915,9.046446 198.275681,9.794751 200.891174,9.621958 
	C203.720093,9.435064 206.496475,8.525654 209.309341,8.004557 
	C212.683594,7.379455 216.072205,6.831689 220.105423,6.134078 
	C222.504166,8.345149 224.252075,10.672578 226.000000,13.000004 
	C226.000000,13.444445 226.000000,13.888889 225.574615,14.667284 
	C212.916794,14.999318 200.684357,14.999161 188.451920,14.994440 
	C184.679535,14.992985 180.906769,14.943753 177.134872,14.982601 
	C174.358765,15.011194 171.583038,15.240769 168.808380,15.219378 
	C157.928543,15.135499 147.048203,14.842883 136.169998,14.916388 
	C129.370041,14.962335 122.572891,15.803893 115.775696,15.787329 
	C106.198059,15.763988 96.622986,15.179116 87.043808,15.037139 
	C83.413231,14.983330 79.739845,15.934667 76.146263,15.654530 
	C68.405670,15.051112 60.832260,13.840372 52.950001,15.652137 
	C48.814430,16.602711 44.120502,15.124925 39.678825,14.742517 
	C38.043289,14.601707 36.404842,14.305852 34.773239,14.340478 
	C27.187883,14.501456 19.604448,14.877382 12.020357,14.876564 
	C10.346676,14.876384 8.673126,13.657005 6.999516,12.999041 
	C8.434198,11.046845 9.868881,9.094649 11.651793,7.071220 
	C12.000022,6.999987 12.006032,7.004097 12.006032,7.004097 
z"/>
<path fill="#43D7B4" opacity="1.000000" stroke="none" 
	d="
M226.000000,202.571533 
	C151.312439,203.000000 76.624878,203.000000 1.468657,203.000000 
	C1.000000,201.933334 1.000000,200.866653 1.439623,199.399994 
	C5.429584,198.359695 9.003822,197.063965 12.526127,197.192398 
	C27.893059,197.752762 43.365208,195.023270 58.655373,198.698105 
	C60.744656,199.200226 63.170475,198.113220 65.447067,198.063400 
	C70.487000,197.953156 75.531601,197.991653 80.573425,198.047775 
	C88.591797,198.137009 96.610641,198.418961 104.626778,198.345352 
	C107.372818,198.320145 110.103004,197.132462 112.854851,197.065094 
	C120.504356,196.877853 128.171356,196.754364 135.812958,197.063187 
	C145.031464,197.435730 154.229416,198.302719 163.440247,198.893753 
	C164.917511,198.988556 166.427734,198.854507 167.901505,198.662994 
	C171.799347,198.156494 175.680252,197.123901 179.577271,197.076859 
	C195.049561,196.890060 210.525452,197.000000 226.000000,197.000000 
	C226.000000,198.714355 226.000000,200.428711 226.000000,202.571533 
z"/>
<path fill="#075AF7" opacity="1.000000" stroke="none" 
	d="
M226.000000,24.571537 
	C200.909256,25.000000 175.816086,24.787943 150.728638,25.075516 
	C134.356934,25.263184 117.996666,26.330904 101.624344,26.661856 
	C97.218147,26.750921 92.789230,25.102537 88.366341,25.078991 
	C59.557343,24.925627 30.747129,25.000195 1.468657,25.000095 
	C1.000000,23.933331 1.000000,22.866661 1.435449,21.399895 
	C10.858203,19.908926 19.832214,17.308912 28.859806,20.883410 
	C29.540710,21.153015 30.487282,20.690725 31.313499,20.663315 
	C46.378880,20.163511 61.444241,19.330122 76.510674,19.308384 
	C87.107254,19.293095 97.704750,20.398985 108.304024,20.963182 
	C109.285980,21.015451 110.312119,20.884449 111.269783,20.645950 
	C120.462044,18.356710 129.613235,18.080473 138.846863,20.599705 
	C140.636261,21.087910 142.756210,20.464693 144.708908,20.230833 
	C147.658569,19.877573 150.614624,18.958290 153.533981,19.081900 
	C164.455002,19.544308 175.364563,20.899170 186.274017,20.854033 
	C199.518326,20.799234 212.758209,19.666416 226.000000,19.000000 
	C226.000000,20.714357 226.000000,22.428717 226.000000,24.571537 
z"/>
<path fill="#2392D9" opacity="1.000000" stroke="none" 
	d="
M226.000000,95.000000 
	C226.000000,98.692909 226.000000,102.385818 225.531342,106.539398 
	C197.263138,106.999725 169.463272,107.065987 141.664322,106.937149 
	C136.706772,106.914177 131.712814,105.838158 127.090866,109.290161 
	C124.817596,108.808479 122.862312,108.379433 120.580566,107.869537 
	C118.465729,106.597900 116.677345,105.407120 115.147697,103.975479 
	C117.775322,101.968254 120.125244,100.175537 122.523048,98.449310 
	C123.405075,97.814308 124.363388,96.946617 125.350021,96.853455 
	C129.926224,96.421349 134.524582,96.223930 139.486099,95.964661 
	C145.884918,99.572891 151.755905,99.460495 157.638397,95.509056 
	C159.228226,94.441116 161.215378,93.964645 163.049973,93.515381 
	C166.279037,98.282272 166.208420,91.521423 168.236557,92.849205 
	C170.290970,93.900558 172.449463,94.910057 174.615570,94.926651 
	C191.742889,95.057854 208.871674,94.999840 226.000000,95.000000 
z"/>
<path fill="#126FEC" opacity="1.000000" stroke="none" 
	d="
M226.000000,46.000000 
	C226.000000,49.030594 226.000000,52.061188 225.531342,55.546028 
	C198.978516,56.511002 172.895355,57.098846 146.808960,57.438137 
	C143.419006,57.482227 142.497925,59.083958 141.650635,61.682571 
	C130.409866,57.141811 119.513618,52.666595 108.926094,48.051819 
	C113.949142,47.274841 118.661003,46.106720 123.378166,46.084923 
	C157.584854,45.926815 191.792587,46.000000 226.000000,46.000000 
M139.527298,57.499432 
	C139.527298,57.499432 139.487122,57.513836 139.527298,57.499432 
z"/>
<path fill="#41D1B9" opacity="1.000000" stroke="none" 
	d="
M226.000000,186.000000 
	C226.000000,188.042313 226.000000,190.084641 225.531342,192.563477 
	C179.375122,192.666672 133.687561,192.333344 87.822044,191.853088 
	C87.096367,191.803391 86.548660,191.900635 85.751083,191.998322 
	C85.501213,191.998764 85.001480,191.999161 84.950592,191.617142 
	C84.387924,190.378403 83.876129,189.521667 83.653992,188.433014 
	C89.605263,185.722733 95.266869,183.244370 100.874817,181.069992 
	C99.924438,183.314499 99.557388,184.923172 102.623184,184.913147 
	C107.722008,184.896469 112.821098,184.992722 117.920105,184.995972 
	C136.363327,185.007751 154.807739,184.870743 173.249451,185.038040 
	C190.834427,185.197556 208.416595,185.666870 226.000000,186.000000 
z"/>
<path fill="#42D5B7" opacity="1.000000" stroke="none" 
	d="
M85.001480,191.999161 
	C85.001480,191.999161 85.501213,191.998764 86.084229,191.999084 
	C87.111504,191.999603 87.555756,191.999802 88.000008,192.000000 
	C133.687561,192.333344 179.375122,192.666672 225.531342,193.000000 
	C226.000000,194.066666 226.000000,195.133347 226.000000,196.600006 
	C210.525452,197.000000 195.049561,196.890060 179.577271,197.076859 
	C175.680252,197.123901 171.799347,198.156494 167.901505,198.662994 
	C166.427734,198.854507 164.917511,198.988556 163.440247,198.893753 
	C154.229416,198.302719 145.031464,197.435730 135.812958,197.063187 
	C128.171356,196.754364 120.504356,196.877853 112.854851,197.065094 
	C110.103004,197.132462 107.372818,198.320145 104.626778,198.345352 
	C96.610641,198.418961 88.591797,198.137009 80.573425,198.047775 
	C75.531601,197.991653 70.487000,197.953156 65.447067,198.063400 
	C63.170475,198.113220 60.744656,199.200226 58.655373,198.698105 
	C43.365208,195.023270 27.893059,197.752762 12.526127,197.192398 
	C9.003822,197.063965 5.429584,198.359695 1.439623,199.000000 
	C1.000000,197.285645 1.000000,195.571289 1.443545,193.428314 
	C18.291349,192.666519 34.694649,192.157745 51.100239,192.068024 
	C60.475533,192.016754 69.853142,192.711868 79.233063,192.918686 
	C81.148178,192.960922 83.078285,192.323349 85.001480,191.999161 
z"/>
<path fill="#0658F9" opacity="1.000000" stroke="none" 
	d="
M226.000000,18.600004 
	C212.758209,19.666416 199.518326,20.799234 186.274017,20.854033 
	C175.364563,20.899170 164.455002,19.544308 153.533981,19.081900 
	C150.614624,18.958290 147.658569,19.877573 144.708908,20.230833 
	C142.756210,20.464693 140.636261,21.087910 138.846863,20.599705 
	C129.613235,18.080473 120.462044,18.356710 111.269783,20.645950 
	C110.312119,20.884449 109.285980,21.015451 108.304024,20.963182 
	C97.704750,20.398985 87.107254,19.293095 76.510674,19.308384 
	C61.444241,19.330122 46.378880,20.163511 31.313499,20.663315 
	C30.487282,20.690725 29.540710,21.153015 28.859806,20.883410 
	C19.832214,17.308912 10.858203,19.908926 1.435449,20.999897 
	C1.000000,18.629442 1.000000,16.258884 1.000000,13.444164 
	C2.916955,13.200721 4.833910,13.401443 6.875191,13.300602 
	C8.673126,13.657005 10.346676,14.876384 12.020357,14.876564 
	C19.604448,14.877382 27.187883,14.501456 34.773239,14.340478 
	C36.404842,14.305852 38.043289,14.601707 39.678825,14.742517 
	C44.120502,15.124925 48.814430,16.602711 52.950001,15.652137 
	C60.832260,13.840372 68.405670,15.051112 76.146263,15.654530 
	C79.739845,15.934667 83.413231,14.983330 87.043808,15.037139 
	C96.622986,15.179116 106.198059,15.763988 115.775696,15.787329 
	C122.572891,15.803893 129.370041,14.962335 136.169998,14.916388 
	C147.048203,14.842883 157.928543,15.135499 168.808380,15.219378 
	C171.583038,15.240769 174.358765,15.011194 177.134872,14.982601 
	C180.906769,14.943753 184.679535,14.992985 188.451920,14.994440 
	C200.684357,14.999161 212.916794,14.999318 225.574615,15.000618 
	C226.000000,16.066669 226.000000,17.133339 226.000000,18.600004 
z"/>
<path fill="#2EA9CE" opacity="1.000000" stroke="none" 
	d="
M1.000000,139.000000 
	C1.000000,135.969406 1.000000,132.938812 1.468657,129.454102 
	C19.742645,129.000000 37.548027,128.978104 55.353256,129.020493 
	C58.503174,129.027985 61.651150,129.385590 64.802338,129.435455 
	C69.260910,129.506027 73.739410,129.651321 78.168190,129.277023 
	C79.201294,129.189713 80.068611,127.140656 81.340225,125.993736 
	C82.105927,125.991096 82.543617,125.988922 83.074142,126.320885 
	C84.489799,127.539772 85.812614,128.424530 87.135429,129.309296 
	C87.331139,128.968430 87.526848,128.627563 87.722549,128.286697 
	C87.144562,127.403755 86.566574,126.520813 86.083900,125.783470 
	C88.310188,125.144585 90.150482,124.616478 92.303589,124.016502 
	C93.042442,123.982101 93.468506,124.019562 94.139313,124.313461 
	C97.271515,125.664978 100.158974,126.760056 103.332771,128.041916 
	C105.463570,129.390060 107.308029,130.551453 108.934944,131.988098 
	C108.261726,133.272781 107.327339,134.338364 107.437973,135.281326 
	C107.805122,138.410645 106.012878,138.999924 103.609322,138.958664 
	C101.325882,138.919464 99.039986,138.761047 96.765015,138.549271 
	C92.759163,138.176315 88.760826,137.722794 84.779510,137.330139 
	C84.799675,137.357254 84.732414,137.363983 84.700546,137.232635 
	C84.472618,136.861481 84.248291,136.845932 83.638550,137.019592 
	C78.729088,134.163483 74.357689,134.596100 69.904533,137.400681 
	C67.543808,138.887451 64.881691,139.895645 62.029938,140.990601 
	C54.700954,140.240891 47.706039,139.235214 40.692593,139.082901 
	C27.467365,138.795700 14.231464,139.000000 1.000000,139.000000 
z"/>
<path fill="#0E67F1" opacity="1.000000" stroke="none" 
	d="
M226.000000,45.555836 
	C191.792587,46.000000 157.584854,45.926815 123.378166,46.084923 
	C118.661003,46.106720 113.949142,47.274841 108.605286,48.022408 
	C106.615555,47.526340 105.255363,46.920132 103.895172,46.313923 
	C104.409492,45.187912 104.923813,44.061901 105.787979,42.169964 
	C102.770432,41.732483 100.307388,41.375393 97.419365,41.007751 
	C96.994377,40.997200 96.967430,40.969612 96.967430,40.969612 
	C99.054459,39.981831 101.144928,38.135822 103.227974,38.144150 
	C117.855232,38.202602 132.480942,38.889919 147.107208,38.891773 
	C161.400024,38.893585 175.691849,38.204895 189.986450,38.072891 
	C194.098404,38.034916 198.216522,38.894455 202.335876,39.301392 
	C203.802231,39.446251 205.292328,39.628002 206.751480,39.520409 
	C212.860840,39.069923 218.962570,38.516018 225.533539,38.000000 
	C226.000000,40.370556 226.000000,42.741116 226.000000,45.555836 
z"/>
<path fill="#269AD6" opacity="1.000000" stroke="none" 
	d="
M127.408844,109.342804 
	C131.712814,105.838158 136.706772,106.914177 141.664322,106.937149 
	C169.463272,107.065987 197.263138,106.999725 225.531342,107.000031 
	C226.000000,110.030594 226.000000,113.061188 225.531342,116.545853 
	C203.318497,116.999924 181.574326,116.999924 159.295685,116.999924 
	C159.046112,117.755531 158.427765,119.627579 157.434860,121.419914 
	C148.827896,118.166046 140.595490,114.991905 132.108215,111.579308 
	C130.371857,110.674843 128.890350,110.008820 127.408844,109.342804 
M155.500092,115.473412 
	C155.500092,115.473412 155.514740,115.513168 155.500092,115.473412 
z"/>
<path fill="#1F8BDD" opacity="1.000000" stroke="none" 
	d="
M1.000000,99.000000 
	C1.000000,94.310745 1.000000,89.621490 1.468657,84.466118 
	C18.568224,83.999435 35.201710,84.148857 51.827713,83.863052 
	C54.899338,83.810249 57.940727,81.998543 61.003719,81.422897 
	C61.332466,84.228577 61.653561,86.610031 62.089119,89.440689 
	C62.139343,93.596176 62.075108,97.302437 61.738136,100.910210 
	C60.318954,98.581406 58.359627,99.292725 56.473724,99.287560 
	C37.982357,99.236938 19.491209,99.107239 1.000000,99.000000 
z"/>
<path fill="#3AC6BF" opacity="1.000000" stroke="none" 
	d="
M226.000000,171.000000 
	C226.000000,173.370560 226.000000,175.741104 225.531342,178.555832 
	C197.098373,179.000000 169.134048,179.026154 141.169785,178.985474 
	C131.686890,178.971680 122.202850,178.845261 112.723068,178.615982 
	C111.472702,178.585739 110.244560,177.636810 109.344925,176.960938 
	C115.093590,174.451248 120.503456,172.093964 125.984413,170.075317 
	C126.979530,171.161865 127.954903,172.593399 128.817902,172.528580 
	C131.333847,172.339630 133.800766,171.096542 136.294189,171.074112 
	C152.381256,170.929337 168.470291,171.000015 184.558670,171.000000 
	C198.372452,171.000000 212.186218,171.000000 226.000000,171.000000 
z"/>
<path fill="#1676E8" opacity="1.000000" stroke="none" 
	d="
M141.995132,61.748112 
	C142.497925,59.083958 143.419006,57.482227 146.808960,57.438137 
	C172.895355,57.098846 198.978516,56.511002 225.531342,56.000137 
	C226.000000,59.030594 226.000000,62.061188 225.531342,65.545799 
	C208.012634,66.000565 190.962509,65.970306 173.912598,66.020058 
	C168.454269,66.035980 167.512573,67.274040 168.613831,71.975327 
	C167.502441,71.982285 166.761505,71.986420 165.794495,71.720993 
	C157.710632,68.216988 149.852890,64.982552 141.995132,61.748112 
z"/>
<path fill="#1A81E2" opacity="1.000000" stroke="none" 
	d="
M60.996067,80.998657 
	C57.940727,81.998543 54.899338,83.810249 51.827713,83.863052 
	C35.201710,84.148857 18.568224,83.999435 1.468657,84.000000 
	C1.000000,79.643097 1.000000,75.286201 1.468657,70.464828 
	C17.592340,70.001083 33.247795,70.064499 48.902073,69.956413 
	C52.602150,69.930870 56.298244,69.328735 60.016861,69.316467 
	C60.354275,70.423798 60.671001,71.206490 60.993637,72.439804 
	C60.998386,75.593163 60.997227,78.295914 60.996067,80.998657 
z"/>
<path fill="#39C0C3" opacity="1.000000" stroke="none" 
	d="
M226.000000,170.550018 
	C212.186218,171.000000 198.372452,171.000000 184.558670,171.000000 
	C168.470291,171.000015 152.381256,170.929337 136.294189,171.074112 
	C133.800766,171.096542 131.333847,172.339630 128.817902,172.528580 
	C127.954903,172.593399 126.979530,171.161865 126.177353,169.790833 
	C132.201935,166.525452 138.104645,163.883209 144.272552,161.512146 
	C146.431793,162.188644 148.332748,162.963547 150.218521,162.928207 
	C155.341003,162.832260 160.459961,162.099670 165.575104,162.149826 
	C176.948303,162.261337 188.317947,162.911530 199.689758,162.930588 
	C208.459290,162.945297 217.229874,162.333328 226.000000,162.000000 
	C226.000000,164.700012 226.000000,167.400024 226.000000,170.550018 
z"/>
<path fill="#3DCBBD" opacity="1.000000" stroke="none" 
	d="
M109.006126,177.113373 
	C110.244560,177.636810 111.472702,178.585739 112.723068,178.615982 
	C122.202850,178.845261 131.686890,178.971680 141.169785,178.985474 
	C169.134048,179.026154 197.098373,179.000000 225.531342,179.000000 
	C226.000000,181.041672 226.000000,183.083328 226.000000,185.562500 
	C208.416595,185.666870 190.834427,185.197556 173.249451,185.038040 
	C154.807739,184.870743 136.363327,185.007751 117.920105,184.995972 
	C112.821098,184.992722 107.722008,184.896469 102.623184,184.913147 
	C99.557388,184.923172 99.924438,183.314499 101.114250,180.833572 
	C103.940269,179.233215 106.473198,178.173294 109.006126,177.113373 
z"/>
<path fill="#1E8ADF" opacity="1.000000" stroke="none" 
	d="
M226.000000,94.539368 
	C208.871674,94.999840 191.742889,95.057854 174.615570,94.926651 
	C172.449463,94.910057 170.290970,93.900558 168.236557,92.849205 
	C166.208420,91.521423 166.279037,98.282272 163.381012,93.296204 
	C164.139633,89.850380 164.597015,86.922424 165.470474,83.960266 
	C169.008102,83.617546 172.128326,83.058487 175.251404,83.042221 
	C192.167221,82.954079 209.083725,83.000160 226.000000,83.000000 
	C226.000000,86.692909 226.000000,90.385818 226.000000,94.539368 
z"/>
<path fill="#2494D8" opacity="1.000000" stroke="none" 
	d="
M1.000000,99.460632 
	C19.491209,99.107239 37.982357,99.236938 56.473724,99.287560 
	C58.359627,99.292725 60.318954,98.581406 61.838310,101.306229 
	C61.965038,104.923904 61.718849,108.047058 61.184494,110.976456 
	C57.742062,110.854774 54.587860,110.985229 51.433502,110.989182 
	C34.622356,111.010239 17.811171,110.999649 1.000000,111.000000 
	C1.000000,107.307091 1.000000,103.614182 1.000000,99.460632 
z"/>
<path fill="#2AA3D2" opacity="1.000000" stroke="none" 
	d="
M81.012207,125.994202 
	C80.068611,127.140656 79.201294,129.189713 78.168190,129.277023 
	C73.739410,129.651321 69.260910,129.506027 64.802338,129.435455 
	C61.651150,129.385590 58.503174,129.027985 55.353256,129.020493 
	C37.548027,128.978104 19.742645,129.000000 1.468657,129.000000 
	C1.000000,126.629440 1.000000,124.258888 1.468657,121.444168 
	C18.905249,120.999786 35.879898,121.275444 52.837795,120.862831 
	C59.569202,120.699043 66.263466,119.008751 73.245285,118.209389 
	C76.987030,119.974472 82.071114,119.950325 81.012207,125.994202 
z"/>
<path fill="#279DD5" opacity="1.000000" stroke="none" 
	d="
M72.974640,118.013451 
	C66.263466,119.008751 59.569202,120.699043 52.837795,120.862831 
	C35.879898,121.275444 18.905249,120.999786 1.468657,121.000000 
	C1.000000,117.969406 1.000000,114.938812 1.000000,111.454109 
	C17.811171,110.999649 34.622356,111.010239 51.433502,110.989182 
	C54.587860,110.985229 57.742062,110.854774 61.458378,111.128555 
	C65.036781,112.949310 68.053146,114.424210 71.242218,116.124603 
	C71.934822,116.904556 72.454727,117.459007 72.974640,118.013451 
z"/>
<path fill="#36BAC5" opacity="1.000000" stroke="none" 
	d="
M226.000000,161.555832 
	C217.229874,162.333328 208.459290,162.945297 199.689758,162.930588 
	C188.317947,162.911530 176.948303,162.261337 165.575104,162.149826 
	C160.459961,162.099670 155.341003,162.832260 150.218521,162.928207 
	C148.332748,162.963547 146.431793,162.188644 144.649292,161.409119 
	C151.094040,158.041855 157.443283,155.081604 163.735092,152.003952 
	C164.350708,151.702820 164.612869,150.679138 165.277222,149.989319 
	C165.515335,149.987762 165.991486,149.978516 166.040253,150.352295 
	C168.778656,151.816727 171.453308,153.806656 174.160385,153.851730 
	C191.436279,154.139587 208.719315,153.999344 226.000000,154.000000 
	C226.000000,156.370560 226.000000,158.741104 226.000000,161.555832 
z"/>
<path fill="#1678E7" opacity="1.000000" stroke="none" 
	d="
M59.996174,68.991837 
	C56.298244,69.328735 52.602150,69.930870 48.902073,69.956413 
	C33.247795,70.064499 17.592340,70.001083 1.468657,70.000183 
	C1.000000,66.638710 1.000000,63.277424 1.468657,59.457993 
	C18.258810,58.999821 34.582115,59.134789 50.900669,58.915665 
	C55.658615,58.851776 59.479958,59.178680 59.998116,65.392899 
	C59.998035,66.859398 59.997105,67.925621 59.996174,68.991837 
z"/>
<path fill="#34B5C9" opacity="1.000000" stroke="none" 
	d="
M1.000000,156.000000 
	C1.000000,152.969406 1.000000,149.938812 1.468657,146.454178 
	C20.760521,146.000137 39.583729,146.000137 58.725952,146.000137 
	C58.873928,147.217575 59.108307,149.145844 59.278149,150.543167 
	C60.134129,148.827301 61.086998,146.917206 62.125618,145.458115 
	C62.146675,149.275421 62.081978,152.641739 61.547543,156.006302 
	C41.051868,156.003036 21.025934,156.001511 1.000000,156.000000 
z"/>
<path fill="#3CC9BE" opacity="1.000000" stroke="none" 
	d="
M1.000000,185.000000 
	C1.000000,181.969406 1.000000,178.938812 1.468657,175.454102 
	C18.637915,174.999252 35.338833,174.944550 52.038841,175.043365 
	C55.370350,175.063065 58.698380,175.669418 62.114868,176.375519 
	C62.138969,177.500626 62.076210,178.255447 61.743248,179.203918 
	C60.777863,181.134827 60.082687,182.872101 59.231205,185.000000 
	C39.917912,185.000000 20.458956,185.000000 1.000000,185.000000 
z"/>
<path fill="#3AC3C2" opacity="1.000000" stroke="none" 
	d="
M62.028015,176.005264 
	C58.698380,175.669418 55.370350,175.063065 52.038841,175.043365 
	C35.338833,174.944550 18.637915,174.999252 1.468657,175.000000 
	C1.000000,171.969406 1.000000,168.938812 1.447614,165.454132 
	C6.357206,165.284424 10.821436,165.836884 15.280710,165.799438 
	C25.736082,165.711609 36.188313,165.296677 46.643578,165.116714 
	C49.262787,165.071640 51.888374,165.419083 54.511566,165.577255 
	C57.012352,165.728073 59.513836,165.867325 62.112068,166.456146 
	C62.148758,169.935516 62.088387,172.970383 62.028015,176.005264 
z"/>
<path fill="#2FADCC" opacity="1.000000" stroke="none" 
	d="
M226.000000,135.000000 
	C226.000000,138.030594 226.000000,141.061188 225.531342,144.545898 
	C205.709671,144.999802 186.356674,144.999588 167.001862,144.555069 
	C166.995712,141.737228 166.991379,139.363693 166.988922,136.658081 
	C166.993866,135.883194 166.996933,135.440369 167.468658,134.997726 
	C187.291550,134.998596 206.645767,134.999298 226.000000,135.000000 
z"/>
<path fill="#2CA7D0" opacity="1.000000" stroke="none" 
	d="
M226.000000,134.550018 
	C206.645767,134.999298 187.291550,134.998596 167.467377,134.581177 
	C167.000046,132.775574 167.002640,131.386673 167.189377,129.850403 
	C167.608414,129.491333 167.814972,129.254898 168.031174,128.603821 
	C168.604126,124.666046 171.361877,125.020538 173.822540,125.015831 
	C188.262665,124.988197 202.703278,124.946350 217.142776,125.045654 
	C220.097229,125.065979 223.047699,125.666779 226.000000,126.000000 
	C226.000000,128.700012 226.000000,131.400024 226.000000,134.550018 
z"/>
<path fill="#41D1B9" opacity="1.000000" stroke="none" 
	d="
M1.000000,185.444168 
	C20.458956,185.000000 39.917912,185.000000 59.231205,185.000000 
	C60.082687,182.872101 60.777863,181.134827 61.852531,179.536499 
	C63.303829,180.811813 64.199554,182.235214 65.484818,183.023529 
	C68.005493,184.569550 71.451263,185.153610 73.237091,187.232727 
	C76.512428,191.045990 79.643013,190.673615 83.364342,188.664948 
	C83.876129,189.521667 84.387924,190.378403 84.950592,191.617142 
	C83.078285,192.323349 81.148178,192.960922 79.233063,192.918686 
	C69.853142,192.711868 60.475533,192.016754 51.100239,192.068024 
	C34.694649,192.157745 18.291349,192.666519 1.443545,192.999847 
	C1.000000,190.629440 1.000000,188.258896 1.000000,185.444168 
z"/>
<path fill="#37BCC5" opacity="1.000000" stroke="none" 
	d="
M62.015015,166.011658 
	C59.513836,165.867325 57.012352,165.728073 54.511566,165.577255 
	C51.888374,165.419083 49.262787,165.071640 46.643578,165.116714 
	C36.188313,165.296677 25.736082,165.711609 15.280710,165.799438 
	C10.821436,165.836884 6.357206,165.284424 1.447614,165.000015 
	C1.000000,162.299988 1.000000,159.599976 1.000000,156.449982 
	C21.025934,156.001511 41.051868,156.003036 61.644741,156.451324 
	C62.146122,159.935959 62.080566,162.973801 62.015015,166.011658 
z"/>
<path fill="#29A0D3" opacity="1.000000" stroke="none" 
	d="
M226.000000,125.550018 
	C223.047699,125.666779 220.097229,125.065979 217.142776,125.045654 
	C202.703278,124.946350 188.262665,124.988197 173.822540,125.015831 
	C171.361877,125.020538 168.604126,124.666046 167.847229,128.751495 
	C167.390472,129.500671 167.183777,129.736923 167.005234,129.997787 
	C167.002640,131.386673 167.000046,132.775574 166.998718,134.581009 
	C166.996933,135.440369 166.993866,135.883194 166.742096,136.660721 
	C166.493393,136.995438 165.999390,136.998169 165.995102,136.536850 
	C165.567688,132.120087 165.144577,128.164642 164.378113,124.175758 
	C161.959641,123.261414 159.884537,122.380524 157.809418,121.499634 
	C158.427765,119.627579 159.046112,117.755531 159.295685,116.999924 
	C181.574326,116.999924 203.318497,116.999924 225.531342,116.999962 
	C226.000000,119.700012 226.000000,122.400032 226.000000,125.550018 
z"/>
<path fill="#1B82E2" opacity="1.000000" stroke="none" 
	d="
M226.000000,82.550018 
	C209.083725,83.000160 192.167221,82.954079 175.251404,83.042221 
	C172.128326,83.058487 169.008102,83.617546 165.389252,83.543472 
	C165.268158,79.437431 165.644379,75.713989 166.020584,71.990555 
	C166.761505,71.986420 167.502441,71.982285 168.856873,72.282761 
	C171.505020,73.058067 173.537079,73.923775 175.574722,73.937149 
	C192.382553,74.047516 209.191437,73.999817 226.000000,74.000000 
	C226.000000,76.700012 226.000000,79.400032 226.000000,82.550018 
z"/>
<path fill="#1271EB" opacity="1.000000" stroke="none" 
	d="
M59.997269,64.992622 
	C59.479958,59.178680 55.658615,58.851776 50.900669,58.915665 
	C34.582115,59.134789 18.258810,58.999821 1.468657,58.999924 
	C1.000000,56.299988 1.000000,53.599972 1.468657,50.449982 
	C18.021383,49.999908 34.105656,50.039234 50.189285,49.954960 
	C52.462433,49.943047 54.732422,49.328548 57.003876,48.992958 
	C57.962917,48.650234 58.330135,44.863205 59.994267,49.236382 
	C60.011387,54.990528 60.004330,59.991577 59.997269,64.992622 
z"/>
<path fill="#33B4C9" opacity="1.000000" stroke="none" 
	d="
M167.003662,144.999390 
	C186.356674,144.999588 205.709671,144.999802 225.531342,145.000000 
	C226.000000,147.700012 226.000000,150.400024 226.000000,153.550018 
	C208.719315,153.999344 191.436279,154.139587 174.160385,153.851730 
	C171.453308,153.806656 168.778656,151.816727 166.039062,149.938202 
	C165.993805,147.766876 165.998489,146.383423 166.253296,145.000595 
	C166.670166,145.000595 166.836914,144.999985 167.003662,144.999390 
z"/>
<path fill="#177CE5" opacity="1.000000" stroke="none" 
	d="
M226.000000,73.555832 
	C209.191437,73.999817 192.382553,74.047516 175.574722,73.937149 
	C173.537079,73.923775 171.505020,73.058067 169.227341,72.279938 
	C167.512573,67.274040 168.454269,66.035980 173.912598,66.020058 
	C190.962509,65.970306 208.012634,66.000565 225.531342,65.999908 
	C226.000000,68.370560 226.000000,70.741112 226.000000,73.555832 
z"/>
<path fill="#106BEE" opacity="1.000000" stroke="none" 
	d="
M57.002312,48.557686 
	C54.732422,49.328548 52.462433,49.943047 50.189285,49.954960 
	C34.105656,50.039234 18.021383,49.999908 1.468657,50.000000 
	C1.000000,47.629444 1.000000,45.258884 1.000000,42.444164 
	C17.602858,42.000233 34.207718,42.143188 50.807308,41.910324 
	C55.546314,41.843845 57.702183,43.284527 57.002312,48.557686 
z"/>
<path fill="#2FAFCB" opacity="1.000000" stroke="none" 
	d="
M62.039867,145.007126 
	C61.086998,146.917206 60.134129,148.827301 59.278149,150.543167 
	C59.108307,149.145844 58.873928,147.217575 58.725952,146.000137 
	C39.583729,146.000137 20.760521,146.000137 1.468657,146.000061 
	C1.000000,143.958328 1.000000,141.916672 1.000000,139.437500 
	C14.231464,139.000000 27.467365,138.795700 40.692593,139.082901 
	C47.706039,139.235214 54.700954,140.240891 62.016693,141.381653 
	C62.232723,142.937012 62.136295,143.972076 62.039867,145.007126 
z"/>
<path fill="#EBF2F9" opacity="1.000000" stroke="none" 
	d="
M3.723718,8.396136 
	C3.025250,9.517768 2.326782,10.639399 1.314157,11.880515 
	C1.000000,8.404064 1.000000,4.808129 1.000000,1.000000 
	C5.014047,1.000000 9.030362,1.000000 13.523338,1.000000 
	C10.624586,3.242423 7.249172,5.484845 3.826067,8.082136 
	C3.778376,8.437004 3.723718,8.396136 3.723718,8.396136 
z"/>
<path fill="#EAF1FA" opacity="1.000000" stroke="none" 
	d="
M226.000000,12.520828 
	C224.252075,10.672578 222.504166,8.345149 220.436829,5.882369 
	C218.177460,4.381108 216.237518,3.015199 214.148773,1.324645 
	C217.921982,1.000000 221.843964,1.000000 226.000000,1.000000 
	C226.000000,4.678595 226.000000,8.360122 226.000000,12.520828 
z"/>
<path fill="#F2FDF9" opacity="1.000000" stroke="none" 
	d="
M214.479187,226.000000 
	C214.879974,225.595673 215.759949,225.191330 216.872894,224.582733 
	C219.870148,221.361298 222.634384,218.344131 225.699310,215.163483 
	C226.000000,218.591965 226.000000,222.183945 226.000000,226.000000 
	C222.321243,226.000000 218.639801,226.000000 214.479187,226.000000 
z"/>
<path fill="#F0FCF8" opacity="1.000000" stroke="none" 
	d="
M6.187901,221.877106 
	C8.194357,223.158478 9.942385,224.276016 11.845206,225.696777 
	C8.412791,226.000000 4.825583,226.000000 1.000000,226.000000 
	C1.000000,222.657455 1.000000,219.311676 0.999999,215.482956 
	C2.643156,217.237762 4.286314,219.475525 6.187901,221.877106 
z"/>
<path fill="#0658F9" opacity="1.000000" stroke="none" 
	d="
M3.787674,8.406059 
	C4.119629,8.926208 4.442286,9.477303 4.764944,10.028397 
	C4.584195,10.117251 4.403445,10.206107 4.222695,10.294962 
	C4.100677,9.843934 3.978658,9.392907 3.790179,8.669008 
	C3.723718,8.396136 3.778376,8.437004 3.787674,8.406059 
z"/>
<path fill="#0454FA" opacity="1.000000" stroke="none" 
	d="
M11.997963,6.997037 
	C11.995905,6.994087 12.112069,6.940962 12.059051,6.972529 
	C12.006032,7.004097 12.000022,6.999987 11.997963,6.997037 
z"/>
<path fill="#FBFDFE" opacity="1.000000" stroke="none" 
	d="
M62.125618,145.458115 
	C62.136295,143.972076 62.232723,142.937012 62.342392,141.510925 
	C64.881691,139.895645 67.543808,138.887451 69.904533,137.400681 
	C74.357689,134.596100 78.729088,134.163483 83.798660,137.154205 
	C84.315903,137.323883 84.732414,137.363983 84.732414,137.363983 
	C84.732414,137.363983 84.799675,137.357254 85.029259,137.582581 
	C92.604515,138.747238 92.553680,144.382355 92.141029,151.647324 
	C104.025291,146.703583 114.643784,142.286392 125.262276,137.869186 
	C125.271820,137.466080 125.281357,137.062958 125.290901,136.659851 
	C119.911430,135.010849 114.531960,133.361832 109.152489,131.712830 
	C107.308029,130.551453 105.463570,129.390060 103.516891,127.852386 
	C103.816505,126.823174 104.218338,126.170265 104.620171,125.517349 
	C101.178520,124.049660 97.882957,121.509026 93.894562,124.057022 
	C93.468506,124.019562 93.042442,123.982101 92.085121,123.969604 
	C91.553856,123.994576 91.108162,123.959740 90.936302,123.645554 
	C84.199463,120.853943 77.634491,118.376534 71.069511,115.899109 
	C68.053146,114.424210 65.036781,112.949310 61.746536,111.322311 
	C61.718849,108.047058 61.965038,104.923904 62.111050,101.404724 
	C62.075108,97.302437 62.139343,93.596176 62.169434,88.978546 
	C62.081459,75.051476 62.027626,62.035770 61.973785,49.020065 
	C63.136669,47.299389 63.976208,45.183987 65.515617,43.922962 
	C74.595123,36.485409 84.095070,36.683437 93.976807,42.533474 
	C96.776978,44.191185 100.078651,45.001774 103.522751,46.257397 
	C105.255363,46.920132 106.615555,47.526340 108.296555,48.161964 
	C119.513618,52.666595 130.409866,57.141811 141.650635,61.682571 
	C149.852890,64.982552 157.710632,68.216988 165.794495,71.720993 
	C165.644379,75.713989 165.268158,79.437431 164.973175,83.577667 
	C164.597015,86.922424 164.139633,89.850380 163.351196,92.997513 
	C161.215378,93.964645 159.228226,94.441116 157.638397,95.509056 
	C151.755905,99.460495 145.884918,99.572891 139.241684,95.718872 
	C131.417725,92.663391 124.209251,89.875877 116.842850,86.982254 
	C116.684929,86.876152 116.304420,86.873383 116.118317,86.616821 
	C114.951714,85.993141 113.971230,85.626022 112.663033,85.089035 
	C107.858734,83.007759 103.382149,81.096344 99.089508,78.992279 
	C99.602036,78.109711 100.378609,76.991699 100.190849,76.795219 
	C97.984077,74.485924 95.792152,74.933868 93.437874,77.106667 
	C92.412010,76.740868 91.695038,76.394745 91.031166,75.766998 
	C90.266197,74.886612 89.494019,73.875206 88.620163,73.778023 
	C86.977364,73.595314 85.255486,73.843803 83.624161,74.187035 
	C83.417168,74.230591 83.422478,76.703552 83.555725,76.726311 
	C85.048264,76.981293 86.585220,76.976234 88.070541,77.395447 
	C88.035355,78.461998 88.039856,79.174255 88.037033,80.193146 
	C88.034645,80.704193 88.039589,80.908615 88.021172,81.555443 
	C88.050339,84.662605 88.102867,87.327347 88.085831,90.384590 
	C88.037308,91.839775 88.058342,92.902473 87.842453,94.128922 
	C87.519844,97.355141 88.445511,97.651527 93.359253,96.039841 
	C95.805779,97.086838 97.894875,98.114471 99.991425,99.518280 
	C100.683548,101.633675 101.368217,103.372894 101.896263,104.714241 
	C104.423119,103.405151 105.933220,102.622810 107.705322,101.862732 
	C108.295013,102.006493 108.622711,102.128006 108.780563,102.413834 
	C108.596336,103.179184 108.581940,103.780220 108.567535,104.381264 
	C109.058067,103.880714 109.548607,103.380165 110.396820,102.931732 
	C112.132660,103.394676 113.510811,103.805511 114.888969,104.216347 
	C116.677345,105.407120 118.465729,106.597900 120.706100,108.095573 
	C122.105644,109.601883 123.053200,110.801285 123.850082,112.023598 
	C123.579941,112.189972 123.460457,112.333450 123.340973,112.476929 
	C123.560524,112.317734 123.780067,112.158539 124.397263,112.001312 
	C127.317642,111.941444 129.840363,111.879601 132.363083,111.817757 
	C140.595490,114.991905 148.827896,118.166046 157.434860,121.419914 
	C159.884537,122.380524 161.959641,123.261414 164.404175,124.621758 
	C164.862091,133.397751 164.950592,141.694305 165.039093,149.990860 
	C164.612869,150.679138 164.350708,151.702820 163.735092,152.003952 
	C157.443283,155.081604 151.094040,158.041855 144.384094,161.137939 
	C138.104645,163.883209 132.201935,166.525452 126.106262,169.452194 
	C120.503456,172.093964 115.093590,174.451248 109.344925,176.960953 
	C106.473198,178.173294 103.940269,179.233215 101.167908,180.529572 
	C95.266869,183.244370 89.605263,185.722733 83.653992,188.433014 
	C79.643013,190.673615 76.512428,191.045990 73.237091,187.232727 
	C71.451263,185.153610 68.005493,184.569550 65.484818,183.023529 
	C64.199554,182.235214 63.303829,180.811813 62.122738,179.342880 
	C62.076210,178.255447 62.138969,177.500626 62.114868,176.375519 
	C62.088387,172.970383 62.148758,169.935516 62.112072,166.456146 
	C62.080566,162.973801 62.146122,159.935959 62.114479,156.453079 
	C62.081978,152.641739 62.146675,149.275421 62.125618,145.458115 
M83.012711,89.452034 
	C83.122810,89.823563 83.232910,90.195084 83.343018,90.566612 
	C83.486404,90.500572 83.629791,90.434532 83.773170,90.368492 
	C83.516670,89.911644 83.260162,89.454796 83.002495,88.124229 
	C83.002495,85.700867 83.002495,83.277504 83.002495,80.854134 
	C82.577553,80.884727 82.152603,80.915329 81.727661,80.945923 
	C82.150284,83.632133 82.572906,86.318352 83.012711,89.452034 
M82.145142,94.505890 
	C82.307549,95.226288 82.469963,95.946693 82.632378,96.667091 
	C83.235283,96.290421 83.838188,95.913757 84.441101,95.537094 
	C83.863457,95.125687 83.285820,94.714279 82.145142,94.505890 
M97.561989,104.027328 
	C97.719215,104.147926 97.876442,104.268517 98.033669,104.389114 
	C97.934311,104.219147 97.834953,104.049179 97.561989,104.027328 
M99.473206,73.500214 
	C99.473206,73.500214 99.512848,73.485786 99.473206,73.500214 
z"/>
<path fill="#0075E8" opacity="1.000000" stroke="none" 
	d="
M61.712669,49.030853 
	C62.027626,62.035770 62.081459,75.051476 62.054977,88.529327 
	C61.653561,86.610031 61.332466,84.228577 61.003719,81.422897 
	C60.997227,78.295914 60.998386,75.593163 60.997978,71.972519 
	C60.974091,63.725208 60.951775,56.395790 60.929455,49.066372 
	C61.103485,49.058128 61.277519,49.049889 61.712669,49.030853 
z"/>
<path fill="#1E76DD" opacity="1.000000" stroke="none" 
	d="
M60.701805,49.063919 
	C60.951775,56.395790 60.974091,63.725208 60.992069,71.521904 
	C60.671001,71.206490 60.354275,70.423798 60.016861,69.316467 
	C59.997105,67.925621 59.998035,66.859398 59.998116,65.392899 
	C60.004330,59.991577 60.011387,54.990528 60.018696,49.530746 
	C60.018948,49.072006 60.474152,49.061466 60.701805,49.063919 
z"/>
<path fill="#0E67F1" opacity="1.000000" stroke="none" 
	d="
M97.005417,41.012829 
	C96.789795,41.181179 96.563141,41.333900 96.336472,41.486622 
	C96.447960,41.334999 96.559448,41.183380 96.819183,41.000687 
	C96.967430,40.969612 96.994377,40.997200 97.005417,41.012829 
z"/>
<path fill="#106BEE" opacity="1.000000" stroke="none" 
	d="
M58.553398,41.926231 
	C58.595867,41.963722 58.440079,42.090210 58.440079,42.090210 
	C58.440079,42.090210 58.510925,41.888737 58.553398,41.926231 
z"/>
<path fill="#095FF4" opacity="1.000000" stroke="none" 
	d="
M74.000389,34.000572 
	C74.000778,34.001141 73.891479,34.059586 73.945152,34.029411 
	C73.998825,33.999233 74.000000,34.000000 74.000389,34.000572 
z"/>
<path fill="#218EDD" opacity="1.000000" stroke="none" 
	d="
M88.079376,93.965164 
	C88.058342,92.902473 88.037308,91.839775 88.439590,90.411591 
	C91.085281,89.738693 93.320740,89.503471 95.526360,89.103622 
	C97.740623,88.702202 100.341339,87.136490 102.039505,87.843079 
	C106.068810,89.519661 109.458023,88.711632 113.175308,87.263680 
	C114.570709,87.375694 115.785744,87.232025 117.000778,87.088356 
	C124.209251,89.875877 131.417725,92.663391 138.870605,95.696701 
	C134.524582,96.223930 129.926224,96.421349 125.350021,96.853455 
	C124.363388,96.946617 123.405075,97.814308 122.523048,98.449310 
	C120.125244,100.175537 117.775322,101.968254 115.147697,103.975479 
	C113.510811,103.805511 112.132660,103.394676 110.282494,102.729836 
	C109.568359,102.230972 109.281670,102.155540 108.950401,102.249519 
	C108.622711,102.128006 108.295013,102.006493 107.442055,101.602783 
	C104.605843,100.594429 102.294907,99.868263 99.983963,99.142097 
	C97.894875,98.114471 95.805779,97.086838 93.100418,95.825470 
	C91.015892,95.049545 89.547638,94.507355 88.079376,93.965164 
M112.637383,100.201744 
	C112.463570,100.530998 112.289749,100.860260 112.115936,101.189522 
	C112.240143,101.186821 112.445862,101.228531 112.475426,101.174271 
	C112.678444,100.801628 112.844597,100.408897 113.467270,99.997597 
	C113.836105,99.882492 114.204933,99.767387 114.573769,99.652283 
	C114.507927,99.508583 114.442078,99.364883 114.376236,99.221184 
	C113.914238,99.474945 113.452248,99.728706 112.637383,100.201744 
z"/>
<path fill="#F3F8F7" opacity="1.000000" stroke="none" 
	d="
M132.108215,111.579308 
	C129.840363,111.879601 127.317642,111.941444 124.397461,112.001648 
	C124.000000,112.000000 124.000748,112.000694 124.000748,112.000694 
	C123.053200,110.801285 122.105644,109.601883 121.032562,108.176437 
	C122.862312,108.379433 124.817596,108.808479 127.090866,109.290161 
	C128.890350,110.008820 130.371857,110.674843 132.108215,111.579308 
z"/>
<path fill="#1676E8" opacity="1.000000" stroke="none" 
	d="
M139.507202,57.506634 
	C139.487122,57.513836 139.527298,57.499432 139.507202,57.506634 
z"/>
<path fill="#41D1B9" opacity="1.000000" stroke="none" 
	d="
M87.822044,191.853088 
	C87.555756,191.999802 87.111504,191.999603 86.334099,191.998642 
	C86.548660,191.900635 87.096367,191.803391 87.822044,191.853088 
z"/>
<path fill="#35B0CC" opacity="1.000000" stroke="none" 
	d="
M108.934944,131.988098 
	C114.531960,133.361832 119.911430,135.010849 125.290901,136.659851 
	C125.281357,137.062958 125.271820,137.466080 125.262276,137.869186 
	C114.643784,142.286392 104.025291,146.703583 92.141029,151.647324 
	C92.553680,144.382355 92.604515,138.747238 85.009094,137.555450 
	C88.760826,137.722794 92.759163,138.176315 96.765015,138.549271 
	C99.039986,138.761047 101.325882,138.919464 103.609322,138.958664 
	C106.012878,138.999924 107.805122,138.410645 107.437973,135.281326 
	C107.327339,134.338364 108.261726,133.272781 108.934944,131.988098 
z"/>
<path fill="#25A2C8" opacity="1.000000" stroke="none" 
	d="
M71.242218,116.124611 
	C77.634491,118.376534 84.199463,120.853943 90.537125,123.651413 
	C88.155937,123.611229 86.002068,123.250999 83.557381,122.842133 
	C83.366768,123.882645 83.174034,124.934700 82.981308,125.986755 
	C82.543617,125.988922 82.105927,125.991096 81.340225,125.993736 
	C82.071114,119.950325 76.987030,119.974472 73.245285,118.209389 
	C72.454727,117.459007 71.934822,116.904556 71.242218,116.124611 
z"/>
<path fill="#2AA3D2" opacity="1.000000" stroke="none" 
	d="
M83.074142,126.320885 
	C83.174034,124.934700 83.366768,123.882645 83.557381,122.842133 
	C86.002068,123.250999 88.155937,123.611229 90.708984,123.965599 
	C91.108162,123.959740 91.553856,123.994576 91.772324,124.041473 
	C90.150482,124.616478 88.310188,125.144585 86.083900,125.783470 
	C86.566574,126.520813 87.144562,127.403755 87.722549,128.286697 
	C87.526848,128.627563 87.331139,128.968430 87.135429,129.309296 
	C85.812614,128.424530 84.489799,127.539772 83.074142,126.320885 
z"/>
<path fill="#F3F9F9" opacity="1.000000" stroke="none" 
	d="
M94.139313,124.313461 
	C97.882957,121.509026 101.178520,124.049660 104.620171,125.517349 
	C104.218338,126.170265 103.816505,126.823174 103.230545,127.665611 
	C100.158974,126.760056 97.271515,125.664978 94.139313,124.313461 
z"/>
<path fill="#35B0CC" opacity="1.000000" stroke="none" 
	d="
M84.700546,137.232635 
	C84.732414,137.363983 84.315903,137.323883 84.155792,137.189270 
	C84.248291,136.845932 84.472618,136.861481 84.700546,137.232635 
z"/>
<path fill="#29A0D3" opacity="1.000000" stroke="none" 
	d="
M155.507416,115.493286 
	C155.514740,115.513168 155.500092,115.473412 155.507416,115.493286 
z"/>
<path fill="#19ABC2" opacity="1.000000" stroke="none" 
	d="
M165.277222,149.989319 
	C164.950592,141.694305 164.862091,133.397751 164.747513,124.655205 
	C165.144577,128.164642 165.567688,132.120087 165.992340,136.981232 
	C165.996964,140.257935 166.000061,142.628967 166.003174,144.999985 
	C165.998489,146.383423 165.993805,147.766876 165.990295,149.564423 
	C165.991486,149.978516 165.515335,149.987762 165.277222,149.989319 
z"/>
<path fill="#2CA7D0" opacity="1.000000" stroke="none" 
	d="
M166.253296,145.000595 
	C166.000061,142.628967 165.996964,140.257935 165.996628,137.442535 
	C165.999390,136.998169 166.493393,136.995438 166.740219,136.992798 
	C166.991379,139.363693 166.995712,141.737228 167.001862,144.555069 
	C166.836914,144.999985 166.670166,145.000595 166.253296,145.000595 
z"/>
<path fill="#2FADCC" opacity="1.000000" stroke="none" 
	d="
M167.189377,129.850403 
	C167.183777,129.736923 167.390472,129.500671 167.809235,129.141388 
	C167.814972,129.254898 167.608414,129.491333 167.189377,129.850403 
z"/>
<path fill="#1E87E0" opacity="1.000000" stroke="none" 
	d="
M112.994949,87.008003 
	C109.458023,88.711632 106.068810,89.519661 102.039505,87.843079 
	C100.341339,87.136490 97.740623,88.702202 95.526360,89.103622 
	C93.320740,89.503471 91.085281,89.738693 88.509148,90.019096 
	C88.102867,87.327347 88.050339,84.662605 88.265060,81.457924 
	C88.369659,80.574165 88.207008,80.230339 88.044357,79.886520 
	C88.039856,79.174255 88.035355,78.461998 88.363907,77.275375 
	C89.457329,76.550217 90.217697,76.299423 90.978058,76.048630 
	C91.695038,76.394745 92.412010,76.740868 93.675430,77.367493 
	C95.783096,78.160316 97.344322,78.672630 98.905556,79.184937 
	C103.382149,81.096344 107.858734,83.007759 112.663635,85.378250 
	C112.996689,86.222816 113.001427,86.608299 113.003296,86.996704 
	C113.000420,86.999626 112.994949,87.008003 112.994949,87.008003 
z"/>
<path fill="#F7FBFA" opacity="1.000000" stroke="none" 
	d="
M91.031166,75.766998 
	C90.217697,76.299423 89.457329,76.550217 88.403595,76.921082 
	C86.585220,76.976234 85.048264,76.981293 83.555725,76.726311 
	C83.422478,76.703552 83.417168,74.230591 83.624161,74.187035 
	C85.255486,73.843803 86.977364,73.595314 88.620163,73.778023 
	C89.494019,73.875206 90.266197,74.886612 91.031166,75.766998 
z"/>
<path fill="#F3F8F8" opacity="1.000000" stroke="none" 
	d="
M99.991425,99.518280 
	C102.294907,99.868263 104.605843,100.594429 107.180054,101.580536 
	C105.933220,102.622810 104.423119,103.405151 101.896263,104.714241 
	C101.368217,103.372894 100.683548,101.633675 99.991425,99.518280 
z"/>
<path fill="#F7FBFA" opacity="1.000000" stroke="none" 
	d="
M99.089508,78.992279 
	C97.344322,78.672630 95.783096,78.160316 93.984314,77.387177 
	C95.792152,74.933868 97.984077,74.485924 100.190849,76.795219 
	C100.378609,76.991699 99.602036,78.109711 99.089508,78.992279 
z"/>
<path fill="#F7FBFA" opacity="1.000000" stroke="none" 
	d="
M87.842453,94.128922 
	C89.547638,94.507355 91.015892,95.049545 92.742981,95.806091 
	C88.445511,97.651527 87.519844,97.355141 87.842453,94.128922 
z"/>
<path fill="#F7FBFA" opacity="1.000000" stroke="none" 
	d="
M82.426666,94.404381 
	C83.285820,94.714279 83.863457,95.125687 84.441101,95.537094 
	C83.838188,95.913757 83.235283,96.290421 82.632378,96.667091 
	C82.469963,95.946693 82.307549,95.226288 82.426666,94.404381 
z"/>
<path fill="#F7FBFA" opacity="1.000000" stroke="none" 
	d="
M82.995522,89.004562 
	C82.572906,86.318352 82.150284,83.632133 81.727661,80.945923 
	C82.152603,80.915329 82.577553,80.884727 83.002495,80.854134 
	C83.002495,83.277504 83.002495,85.700867 83.001205,88.562149 
	C82.999924,89.000069 82.995522,89.004562 82.995522,89.004562 
z"/>
<path fill="#1E87E0" opacity="1.000000" stroke="none" 
	d="
M116.842850,86.982254 
	C115.785744,87.232025 114.570709,87.375694 113.175308,87.263680 
	C112.994949,87.008003 113.000420,86.999626 113.415878,86.994087 
	C114.655693,86.950157 115.480057,86.911774 116.304420,86.873383 
	C116.304420,86.873383 116.684929,86.876152 116.842850,86.982254 
z"/>
<path fill="#F3F8F8" opacity="1.000000" stroke="none" 
	d="
M108.780563,102.413834 
	C109.281670,102.155540 109.568359,102.230972 109.924820,102.677727 
	C109.548607,103.380165 109.058067,103.880714 108.567535,104.381264 
	C108.581940,103.780220 108.596336,103.179184 108.780563,102.413834 
z"/>
<path fill="#218EDD" opacity="1.000000" stroke="none" 
	d="
M116.118317,86.616821 
	C115.480057,86.911774 114.655693,86.950157 113.418747,86.991165 
	C113.001427,86.608299 112.996689,86.222816 112.991348,85.548119 
	C113.971230,85.626022 114.951714,85.993141 116.118317,86.616821 
z"/>
<path fill="#F3F8F8" opacity="1.000000" stroke="none" 
	d="
M97.648788,103.953278 
	C97.834953,104.049179 97.934311,104.219147 98.033669,104.389114 
	C97.876442,104.268517 97.719215,104.147926 97.648788,103.953278 
z"/>
<path fill="#F7FBFA" opacity="1.000000" stroke="none" 
	d="
M83.001785,88.999008 
	C83.260162,89.454796 83.516670,89.911644 83.773170,90.368492 
	C83.629791,90.434532 83.486404,90.500572 83.343018,90.566612 
	C83.232910,90.195084 83.122810,89.823563 83.004120,89.228302 
	C82.995522,89.004562 82.999924,89.000069 83.001785,88.999008 
z"/>
<path fill="#F3F8F7" opacity="1.000000" stroke="none" 
	d="
M123.999802,111.999672 
	C123.780067,112.158539 123.560524,112.317734 123.340973,112.476929 
	C123.460457,112.333450 123.579941,112.189972 123.850082,112.023598 
	C124.000748,112.000694 124.000000,112.000000 123.999802,111.999672 
z"/>
<path fill="#F7FBFA" opacity="1.000000" stroke="none" 
	d="
M99.493027,73.492996 
	C99.512848,73.485786 99.473206,73.500214 99.493027,73.492996 
z"/>
<path fill="#F7FBFA" opacity="1.000000" stroke="none" 
	d="
M88.037033,80.193146 
	C88.207008,80.230339 88.369659,80.574165 88.288414,81.015511 
	C88.039589,80.908615 88.034645,80.704193 88.037033,80.193146 
z"/>
<path fill="#2392D9" opacity="1.000000" stroke="none" 
	d="
M113.022614,100.022629 
	C112.844597,100.408897 112.678444,100.801628 112.475426,101.174271 
	C112.445862,101.228531 112.240143,101.186821 112.115936,101.189522 
	C112.289749,100.860260 112.463570,100.530998 112.820694,100.102676 
	C113.003998,100.003601 113.022606,100.022629 113.022614,100.022629 
z"/>
<path fill="#2392D9" opacity="1.000000" stroke="none" 
	d="
M112.997131,99.993042 
	C113.452248,99.728706 113.914238,99.474945 114.376236,99.221184 
	C114.442078,99.364883 114.507927,99.508583 114.573769,99.652283 
	C114.204933,99.767387 113.836105,99.882492 113.244934,100.010117 
	C113.022606,100.022629 113.003998,100.003601 112.997131,99.993042 
z"/>
</svg>