<svg width="18" height="18" viewBox="0 0 18 18" fill="none" xmlns="http://www.w3.org/2000/svg">
<path fill-rule="evenodd" clip-rule="evenodd" d="M7.26858 16.5486C4.09024 16.5486 1.37524 16.0678 1.37524 14.1428C1.37524 12.2178 4.07274 10.4669 7.26858 10.4669C10.4469 10.4669 13.1619 12.2011 13.1619 14.1253C13.1619 16.0494 10.4644 16.5486 7.26858 16.5486Z" stroke="#485F7D" stroke-width="1.5" stroke-linecap="round" stroke-linejoin="round"/>
<path fill-rule="evenodd" clip-rule="evenodd" d="M7.26861 8.555C9.35445 8.555 11.0461 6.86333 11.0461 4.7775C11.0461 2.69083 9.35445 1 7.26861 1C5.18278 1 3.49111 2.69083 3.49111 4.7775C3.48361 6.85583 5.16361 8.5475 7.24195 8.555H7.26861Z" stroke="#485F7D" stroke-width="1.5" stroke-linecap="round" stroke-linejoin="round"/>
<path d="M14.9428 5.14929V8.49096" stroke="#485F7D" stroke-width="1.5" stroke-linecap="round" stroke-linejoin="round"/>
<path d="M16.648 6.81986H13.2396" stroke="#485F7D" stroke-width="1.5" stroke-linecap="round" stroke-linejoin="round"/>
</svg>
