<svg width="24" height="24" viewBox="0 0 24 24" fill="none" xmlns="http://www.w3.org/2000/svg">
<path fill-rule="evenodd" clip-rule="evenodd" d="M9.75103 12.065H9.78303C12.559 12.065 14.816 9.807 14.816 7.032C14.816 4.257 12.559 2 9.78303 2C7.00803 2 4.75003 4.257 4.75003 7.03C4.74003 9.796 6.98203 12.055 9.75103 12.065Z" fill="#E5007A"/>
<path fill-rule="evenodd" clip-rule="evenodd" d="M21.0392 8.73297H19.7422V7.47797C19.7422 7.06397 19.4062 6.72797 18.9922 6.72797C18.5782 6.72797 18.2422 7.06397 18.2422 7.47797V8.73297H16.9492C16.5352 8.73297 16.1992 9.06897 16.1992 9.48297C16.1992 9.89697 16.5352 10.233 16.9492 10.233H18.2422V11.488C18.2422 11.902 18.5782 12.238 18.9922 12.238C19.4062 12.238 19.7422 11.902 19.7422 11.488V10.233H21.0392C21.4532 10.233 21.7892 9.89697 21.7892 9.48297C21.7892 9.06897 21.4532 8.73297 21.0392 8.73297Z" fill="#E5007A"/>
<path fill-rule="evenodd" clip-rule="evenodd" d="M9.78294 13.3589C5.67894 13.3589 2.21094 15.6079 2.21094 18.2699C2.21094 21.3059 6.53194 21.6569 9.78294 21.6569C11.6559 21.6569 17.3549 21.6569 17.3549 18.2499C17.3549 15.5979 13.8869 13.3589 9.78294 13.3589Z" fill="#B82277"/>
</svg>
