<svg width="20" height="21" viewBox="0 0 20 21" fill="none" xmlns="http://www.w3.org/2000/svg">
<path fill-rule="evenodd" clip-rule="evenodd" d="M7.9221 19.6584C4.1081 19.6584 0.850098 19.0814 0.850098 16.7714C0.850098 14.4614 4.0871 12.3604 7.9221 12.3604C11.7361 12.3604 14.9941 14.4414 14.9941 16.7504C14.9941 19.0594 11.7571 19.6584 7.9221 19.6584Z" stroke="#D6D1D1" stroke-width="1.5" stroke-linecap="round" stroke-linejoin="round"/>
<path fill-rule="evenodd" clip-rule="evenodd" d="M7.92219 10.066C10.4252 10.066 12.4552 8.036 12.4552 5.533C12.4552 3.029 10.4252 1 7.92219 1C5.41919 1 3.38919 3.029 3.38919 5.533C3.38019 8.027 5.39619 10.057 7.89019 10.066H7.92219Z" stroke="#D6D1D1" stroke-width="1.5" stroke-linecap="round" stroke-linejoin="round"/>
<path d="M17.1309 5.979V9.989" stroke="#D6D1D1" stroke-width="1.5" stroke-linecap="round" stroke-linejoin="round"/>
<path d="M19.1774 7.98389H15.0874" stroke="#D6D1D1" stroke-width="1.5" stroke-linecap="round" stroke-linejoin="round"/>
</svg>
