<svg width="24" height="24" viewBox="0 0 24 24" fill="none" xmlns="http://www.w3.org/2000/svg">
<path d="M6.94028 2C7.35614 2 7.69326 2.32421 7.69326 2.72414V4.18487C8.36117 4.17241 9.10983 4.17241 9.95219 4.17241H13.9681C14.8104 4.17241 15.5591 4.17241 16.227 4.18487V2.72414C16.227 2.32421 16.5641 2 16.98 2C17.3958 2 17.733 2.32421 17.733 2.72414V4.24894C19.178 4.36022 20.1267 4.63333 20.8236 5.30359C21.5206 5.97385 21.8046 6.88616 21.9203 8.27586L22 9H2.92456H2V8.27586C2.11571 6.88616 2.3997 5.97385 3.09665 5.30359C3.79361 4.63333 4.74226 4.36022 6.1873 4.24894V2.72414C6.1873 2.32421 6.52442 2 6.94028 2Z" fill="#E5007A"/>
<path fill-rule="evenodd" clip-rule="evenodd" d="M22 12V14C22 17.7713 22 19.6569 20.8284 20.8284C19.6569 22 17.7712 22 14 22H10C6.22877 22 4.34315 22 3.17157 20.8284C2 19.6569 2 17.7713 2 14L1.99984 11.5649C1.99938 10.7144 1.99875 9.56138 2.00964 8.99994H21.9838C21.9967 9.66521 22 11.161 22 12ZM17 14C17.5523 14 18 13.5523 18 13C18 12.4477 17.5523 12 17 12C16.4477 12 16 12.4477 16 13C16 13.5523 16.4477 14 17 14ZM17 18C17.5523 18 18 17.5523 18 17C18 16.4477 17.5523 16 17 16C16.4477 16 16 16.4477 16 17C16 17.5523 16.4477 18 17 18ZM13 13C13 13.5523 12.5523 14 12 14C11.4477 14 11 13.5523 11 13C11 12.4477 11.4477 12 12 12C12.5523 12 13 12.4477 13 13ZM13 17C13 17.5523 12.5523 18 12 18C11.4477 18 11 17.5523 11 17C11 16.4477 11.4477 16 12 16C12.5523 16 13 16.4477 13 17ZM6.99999 14C7.55227 14 7.99999 13.5523 7.99999 13C7.99999 12.4477 7.55227 12 6.99999 12C6.4477 12 5.99999 12.4477 5.99999 13C5.99999 13.5523 6.4477 14 6.99999 14ZM6.99999 18C7.55227 18 7.99999 17.5523 7.99999 17C7.99999 16.4477 7.55227 16 6.99999 16C6.4477 16 5.99999 16.4477 5.99999 17C5.99999 17.5523 6.4477 18 6.99999 18Z" fill="#B82277"/>
</svg>
