<svg width="18" height="19" viewBox="0 0 18 19" fill="none" xmlns="http://www.w3.org/2000/svg">
<path d="M13.1667 11.1667C13.6269 11.1667 14 10.7936 14 10.3334C14 9.87314 13.6269 9.50004 13.1667 9.50004C12.7065 9.50004 12.3334 9.87314 12.3334 10.3334C12.3334 10.7936 12.7065 11.1667 13.1667 11.1667Z" fill="#485F7D"/>
<path d="M13.1667 14.5C13.6269 14.5 14 14.1269 14 13.6667C14 13.2065 13.6269 12.8334 13.1667 12.8334C12.7065 12.8334 12.3334 13.2065 12.3334 13.6667C12.3334 14.1269 12.7065 14.5 13.1667 14.5Z" fill="#485F7D"/>
<path d="M9.83335 10.3334C9.83335 10.7936 9.46026 11.1667 9.00002 11.1667C8.53978 11.1667 8.16669 10.7936 8.16669 10.3334C8.16669 9.87314 8.53978 9.50004 9.00002 9.50004C9.46026 9.50004 9.83335 9.87314 9.83335 10.3334Z" fill="#485F7D"/>
<path d="M9.83335 13.6667C9.83335 14.1269 9.46026 14.5 9.00002 14.5C8.53978 14.5 8.16669 14.1269 8.16669 13.6667C8.16669 13.2065 8.53978 12.8334 9.00002 12.8334C9.46026 12.8334 9.83335 13.2065 9.83335 13.6667Z" fill="#485F7D"/>
<path d="M4.83335 11.1667C5.29359 11.1667 5.66669 10.7936 5.66669 10.3334C5.66669 9.87314 5.29359 9.50004 4.83335 9.50004C4.37312 9.50004 4.00002 9.87314 4.00002 10.3334C4.00002 10.7936 4.37312 11.1667 4.83335 11.1667Z" fill="#485F7D"/>
<path d="M4.83335 14.5C5.29359 14.5 5.66669 14.1269 5.66669 13.6667C5.66669 13.2065 5.29359 12.8334 4.83335 12.8334C4.37312 12.8334 4.00002 13.2065 4.00002 13.6667C4.00002 14.1269 4.37312 14.5 4.83335 14.5Z" fill="#485F7D"/>
<path fill-rule="evenodd" clip-rule="evenodd" d="M4.83335 0.958374C5.17853 0.958374 5.45835 1.2382 5.45835 1.58337V2.21897C6.01002 2.20836 6.61779 2.20837 7.28624 2.20837H10.7137C11.3822 2.20837 11.99 2.20836 12.5417 2.21897V1.58337C12.5417 1.2382 12.8215 0.958374 13.1667 0.958374C13.5119 0.958374 13.7917 1.2382 13.7917 1.58337V2.27261C14.0083 2.28913 14.2134 2.30989 14.4075 2.33599C15.3846 2.46734 16.1753 2.74411 16.799 3.36774C17.4226 3.99138 17.6994 4.78217 17.8307 5.75919C17.9584 6.70853 17.9584 7.92154 17.9584 9.45299V11.2137C17.9584 12.7452 17.9584 13.9582 17.8307 14.9076C17.6994 15.8846 17.4226 16.6754 16.799 17.299C16.1753 17.9226 15.3846 18.1994 14.4075 18.3308C13.4582 18.4584 12.2452 18.4584 10.7137 18.4584H7.28635C5.75489 18.4584 4.54184 18.4584 3.5925 18.3308C2.61548 18.1994 1.82469 17.9226 1.20106 17.299C0.577421 16.6754 0.300656 15.8846 0.1693 14.9076C0.0416638 13.9582 0.0416742 12.7452 0.0416873 11.2137V9.45303C0.0416742 7.92156 0.0416638 6.70853 0.1693 5.75919C0.300656 4.78217 0.577421 3.99138 1.20106 3.36774C1.82469 2.74411 2.61548 2.46734 3.5925 2.33599C3.78661 2.30989 3.99174 2.28913 4.20835 2.27261V1.58337C4.20835 1.2382 4.48818 0.958374 4.83335 0.958374ZM3.75906 3.57484C2.92065 3.68756 2.43761 3.89895 2.08494 4.25163C1.73227 4.6043 1.52087 5.08734 1.40815 5.92575C1.38906 6.06774 1.3731 6.21722 1.35976 6.37504H16.6403C16.6269 6.21722 16.611 6.06774 16.5919 5.92575C16.4792 5.08734 16.2678 4.6043 15.9151 4.25163C15.5624 3.89895 15.0794 3.68756 14.241 3.57484C13.3846 3.4597 12.2557 3.45837 10.6667 3.45837H7.33335C5.74434 3.45837 4.61545 3.4597 3.75906 3.57484ZM1.29169 9.50004C1.29169 8.78836 1.29195 8.16898 1.30259 7.62504H16.6974C16.7081 8.16898 16.7084 8.78836 16.7084 9.50004V11.1667C16.7084 12.7557 16.707 13.8846 16.5919 14.741C16.4792 15.5794 16.2678 16.0624 15.9151 16.4151C15.5624 16.7678 15.0794 16.9792 14.241 17.0919C13.3846 17.207 12.2557 17.2084 10.6667 17.2084H7.33335C5.74434 17.2084 4.61545 17.207 3.75906 17.0919C2.92065 16.9792 2.43761 16.7678 2.08494 16.4151C1.73227 16.0624 1.52087 15.5794 1.40815 14.741C1.29301 13.8846 1.29169 12.7557 1.29169 11.1667V9.50004Z" fill="#485F7D"/>
</svg>
