<svg width="21" height="20" viewBox="0 0 21 20" fill="none" xmlns="http://www.w3.org/2000/svg">
<path d="M6.29639 16.875C7.50451 16.875 8.48389 15.8956 8.48389 14.6875C8.48389 13.4794 7.50451 12.5 6.29639 12.5C5.08826 12.5 4.10889 13.4794 4.10889 14.6875C4.10889 15.8956 5.08826 16.875 6.29639 16.875Z" stroke="#485F7D" stroke-width="1.6" stroke-linecap="round" stroke-linejoin="round"/>
<path d="M15.6714 7.5C16.8795 7.5 17.8589 6.52062 17.8589 5.3125C17.8589 4.10438 16.8795 3.125 15.6714 3.125C14.4633 3.125 13.4839 4.10438 13.4839 5.3125C13.4839 6.52062 14.4633 7.5 15.6714 7.5Z" stroke="#485F7D" stroke-width="1.6" stroke-linecap="round" stroke-linejoin="round"/>
<path d="M6.29639 7.5C7.50451 7.5 8.48389 6.52062 8.48389 5.3125C8.48389 4.10438 7.50451 3.125 6.29639 3.125C5.08826 3.125 4.10889 4.10438 4.10889 5.3125C4.10889 6.52062 5.08826 7.5 6.29639 7.5Z" stroke="#485F7D" stroke-width="1.6" stroke-linecap="round" stroke-linejoin="round"/>
<path d="M6.2964 12.5V11.875C6.29537 11.6285 6.34316 11.3842 6.43702 11.1562C6.53089 10.9283 6.66896 10.7212 6.84327 10.5469C7.01759 10.3726 7.2247 10.2345 7.45265 10.1406C7.6806 10.0468 7.92489 9.99897 8.1714 10H13.7964C14.0429 10.001 14.2872 9.95324 14.5152 9.85938C14.7431 9.76552 14.9502 9.62745 15.1245 9.45313C15.2988 9.27881 15.4369 9.0717 15.5308 8.84375C15.6246 8.6158 15.6724 8.37152 15.6714 8.125V7.5" stroke="#485F7D" stroke-width="1.6" stroke-linecap="round" stroke-linejoin="round"/>
<path d="M6.29639 7.5V12.5" stroke="#485F7D" stroke-width="1.6" stroke-linecap="round" stroke-linejoin="round"/>
</svg>
