<svg width="24" height="24" viewBox="0 0 24 24" fill="none" xmlns="http://www.w3.org/2000/svg">
<path d="M6.37502 15V14.25C6.37378 13.9542 6.43113 13.661 6.54376 13.3875C6.6564 13.114 6.82208 12.8654 7.03126 12.6562C7.24044 12.4471 7.48897 12.2814 7.76252 12.1687C8.03606 12.0561 8.3292 11.9988 8.62502 12H15.375C15.6708 12.0012 15.964 11.9439 16.2375 11.8313C16.5111 11.7186 16.7596 11.5529 16.9688 11.3438C17.178 11.1346 17.3436 10.886 17.4563 10.6125C17.5689 10.339 17.6263 10.0458 17.625 9.75V9" stroke="#B82277" stroke-width="1.6" stroke-linecap="round" stroke-linejoin="round"/>
<path d="M6.375 9V15" stroke="#B82277" stroke-width="1.6" stroke-linecap="round" stroke-linejoin="round"/>
<path d="M6.375 20.25C7.82475 20.25 9 19.0747 9 17.625C9 16.1753 7.82475 15 6.375 15C4.92525 15 3.75 16.1753 3.75 17.625C3.75 19.0747 4.92525 20.25 6.375 20.25Z" fill="#E5007A" stroke="#E5007A" stroke-width="1.6" stroke-linecap="round" stroke-linejoin="round"/>
<path d="M17.625 9C19.0747 9 20.25 7.82475 20.25 6.375C20.25 4.92525 19.0747 3.75 17.625 3.75C16.1753 3.75 15 4.92525 15 6.375C15 7.82475 16.1753 9 17.625 9Z" fill="#E5007A" stroke="#E5007A" stroke-width="1.6" stroke-linecap="round" stroke-linejoin="round"/>
<path d="M6.375 9C7.82475 9 9 7.82475 9 6.375C9 4.92525 7.82475 3.75 6.375 3.75C4.92525 3.75 3.75 4.92525 3.75 6.375C3.75 7.82475 4.92525 9 6.375 9Z" fill="#E5007A" stroke="#E5007A" stroke-width="1.6" stroke-linecap="round" stroke-linejoin="round"/>
</svg>
