<svg width="20" height="21" viewBox="0 0 20 21" fill="none" xmlns="http://www.w3.org/2000/svg">
<path d="M0.5 9.93841C0.5 8.71422 1.06058 7.55744 2.02142 6.79888L7.52142 2.45677C8.97466 1.30948 11.0253 1.30948 12.4786 2.45677L17.9786 6.79888C18.9394 7.55744 19.5 8.71422 19.5 9.93841V16.5C19.5 18.7091 17.7091 20.5 15.5 20.5H14C13.4477 20.5 13 20.0523 13 19.5V16.5C13 15.3954 12.1046 14.5 11 14.5H9C7.89543 14.5 7 15.3954 7 16.5V19.5C7 20.0523 6.55228 20.5 6 20.5H4.5C2.29086 20.5 0.5 18.7091 0.5 16.5L0.5 9.93841Z" fill="#E5007A"/>
<path fill-rule="evenodd" clip-rule="evenodd" d="M10 14.3749V1.72119C10.8486 1.72119 11.6972 1.99905 12.4011 2.55477L17.9011 6.89688C18.8319 7.63173 19.375 8.75237 19.375 9.9383V16.4999C19.375 18.64 17.6401 20.3749 15.5 20.3749H14C13.5168 20.3749 13.125 19.9831 13.125 19.4999V16.4999C13.125 15.3263 12.1736 14.3749 11 14.3749H10Z" fill="#BBBEC9"/>
<path fill-rule="evenodd" clip-rule="evenodd" d="M10 14.3749V1.72119C10.8486 1.72119 11.6972 1.99905 12.4011 2.55477L17.9011 6.89688C18.8319 7.63173 19.375 8.75237 19.375 9.9383V16.4999C19.375 18.64 17.6401 20.3749 15.5 20.3749H14C13.5168 20.3749 13.125 19.9831 13.125 19.4999V16.4999C13.125 15.3263 12.1736 14.3749 11 14.3749H10Z" fill="#B82277"/>
</svg>
