<svg width="16" height="17" viewBox="0 0 16 17" fill="none" xmlns="http://www.w3.org/2000/svg">
  <rect x="2.4" y="0.5" width="12.4" height="13.6" rx="1.2" fill="#E5007A"/>
  <path d="M5.3 10.56H13.12L10.58 7.14L8.52 9.84L7.16 8.1L5.3 10.56Z" fill="#1E1057"/>
  <path d="M3.6 14.1C3.28 14.1 3 13.98 2.76 13.74C2.52 13.5 2.4 13.22 2.4 12.9V1.7C2.4 1.38 2.52 1.1 2.76 0.86C3 0.62 3.28 0.5 3.6 0.5H14.8C15.12 0.5 15.4 0.62 15.64 0.86C15.88 1.1 16 1.38 16 1.7V12.9C16 13.22 15.88 13.5 15.64 13.74C15.4 13.98 15.12 14.1 14.8 14.1H3.6ZM3.6 12.9H14.8V1.7H3.6V12.9Z" fill="#E5007A"/>
  <path d="M1.2 16.5C0.88 16.5 0.6 16.38 0.36 16.14C0.12 15.9 0 15.62 0 15.3V2.9H1.2V15.3H13.6V16.5H1.2Z" fill="#E5007A"/>
</svg>
