<svg width="17" height="17" viewBox="0 0 17 17" fill="none" xmlns="http://www.w3.org/2000/svg">
<path d="M12.0139 0C14.4363 0 16.4 1.9637 16.4 4.38605V12.014C16.4 14.4363 14.4363 16.4 12.0139 16.4H8.19999V15.2558H12.0139C13.8044 15.2558 15.2558 13.8044 15.2558 12.014V10.7744L12.2144 8.23991C11.6689 7.7853 10.8667 7.82169 10.3645 8.32382L8.19999 10.4884L8.15231 0.572093H8.19999V0H12.0139Z" fill="#B82277"/>
<path fill-rule="evenodd" clip-rule="evenodd" d="M4.38605 0C1.9637 0 0 1.9637 0 4.38605V12.014C0 14.4363 1.9637 16.4 4.38605 16.4H8.2V15.2558H4.38605C2.6825 15.2558 1.28585 13.9418 1.15431 12.2721C1.18975 12.2335 1.22942 12.1983 1.27292 12.1672L2.67678 11.1644C3.22295 10.7743 3.97111 10.8362 4.44571 11.3108L5.26438 12.1295C5.62184 12.487 6.20141 12.487 6.55888 12.1295L8.2 10.4884V0H4.38605ZM3.62326 5.14884C3.62326 5.99139 4.30628 6.67442 5.14884 6.67442C5.99139 6.67442 6.67442 5.99139 6.67442 5.14884C6.67442 4.30628 5.99139 3.62326 5.14884 3.62326C4.30628 3.62326 3.62326 4.30628 3.62326 5.14884Z" fill="#E5007A"/>
</svg>
