<svg width="18" height="18" viewBox="0 0 18 18" fill="none" xmlns="http://www.w3.org/2000/svg">
<path d="M1.76304 13.59L3.52522 12.3313C4.08371 11.9324 4.84874 11.9957 5.33405 12.481L6.17119 13.3181C6.53672 13.6837 7.12937 13.6837 7.4949 13.3181L11.3864 9.42662C11.8999 8.91315 12.7202 8.87594 13.278 9.34081L16.973 12.42M5.27305 17.1H13.073C15.227 17.1 16.973 15.3539 16.973 13.2V5.4C16.973 3.24609 15.227 1.5 13.073 1.5H5.27305C3.11914 1.5 1.37305 3.24609 1.37305 5.4V13.2C1.37305 15.3539 3.11914 17.1 5.27305 17.1ZM4.49304 6.18C4.49304 7.04156 5.19148 7.74 6.05304 7.74C6.91461 7.74 7.61304 7.04156 7.61304 6.18C7.61304 5.31844 6.91461 4.62 6.05304 4.62C5.19148 4.62 4.49304 5.31844 4.49304 6.18Z" stroke="#485F7D" stroke-width="1.4" stroke-linecap="round"/>
</svg>
