<svg width="24" height="24" viewBox="0 0 24 24" fill="none" xmlns="http://www.w3.org/2000/svg">
<path d="M9.00043 12C9.00043 13.6569 10.3436 15 12.0004 15C13.6573 15 15.0004 13.6569 15.0004 12C15.0004 10.3431 13.6573 9 12.0004 9C10.3436 9 9.00043 10.3431 9.00043 12Z" stroke="#D6D1D1" stroke-width="1.5"/>
<path d="M14.4614 2.30508C14.7886 2.38787 15.0015 2.68633 15.0776 3.01511C15.2585 3.79693 15.7507 4.50461 16.5005 4.9375C17.1895 5.33529 17.9707 5.42872 18.6884 5.2595C19.0165 5.18215 19.3779 5.24076 19.5972 5.49671C20.3984 6.4317 21.0299 7.51632 21.4441 8.70289C21.5694 9.0617 21.3873 9.44185 21.094 9.68352C20.4262 10.2338 20.0004 11.0672 20.0004 12C20.0004 12.9328 20.4262 13.7662 21.094 14.3165C21.3873 14.5581 21.5694 14.9383 21.4441 15.2971C21.03 16.4835 20.3985 17.5681 19.5975 18.503C19.3781 18.759 19.0167 18.8176 18.6886 18.7402C17.9708 18.5709 17.1896 18.6643 16.5005 19.0621C15.7506 19.4951 15.2584 20.2029 15.0775 20.9848C15.0014 21.3136 14.7885 21.6122 14.4613 21.695C13.674 21.8942 12.8496 22 12.0004 22C11.1513 22 10.3269 21.8942 9.5397 21.695C9.21251 21.6122 8.99952 21.3137 8.92347 20.9848C8.74262 20.2029 8.25036 19.4951 7.50047 19.0621C6.8114 18.6643 6.0301 18.5709 5.31231 18.7402C4.98421 18.8176 4.62277 18.759 4.40343 18.503C3.60239 17.5681 2.97093 16.4836 2.55674 15.2971C2.43147 14.9383 2.61356 14.5582 2.90687 14.3165C3.57469 13.7663 4.00047 12.9329 4.00047 12C4.00047 11.0671 3.57469 10.2337 2.90687 9.68351C2.61356 9.44184 2.43148 9.06169 2.55674 8.70287C2.97098 7.5163 3.60253 6.43167 4.4037 5.49667C4.62302 5.24072 4.98443 5.18212 5.3125 5.25948C6.03023 5.42873 6.81146 5.33531 7.50048 4.9375C8.25028 4.5046 8.74251 3.79691 8.92342 3.01508C8.99949 2.6863 9.21247 2.38783 9.53963 2.30504C10.3269 2.10584 11.1513 2 12.0004 2C12.8496 2 13.6741 2.10585 14.4614 2.30508Z" stroke="#D6D1D1" stroke-width="1.5"/>
</svg>
