<svg width="24" height="24" viewBox="0 0 24 24" fill="none" xmlns="http://www.w3.org/2000/svg">
<path fill-rule="evenodd" clip-rule="evenodd" d="M9.35474 1.57796C10.2016 1.36366 11.0878 1.25 11.9995 1.25C12.9113 1.25 13.7976 1.36368 14.6445 1.578C15.3357 1.75292 15.6926 2.34983 15.8074 2.84603C15.9434 3.43381 16.3123 3.96329 16.8746 4.28798C17.3917 4.5865 17.9763 4.65663 18.5154 4.52952C19.0109 4.41269 19.7028 4.46835 20.1658 5.00871C21.0267 6.01337 21.7058 7.17937 22.1513 8.45569C22.4173 9.21767 22.0052 9.90381 21.57 10.2624C21.0677 10.6762 20.7495 11.3006 20.7495 12C20.7495 12.6994 21.0677 13.3238 21.57 13.7376C22.0052 14.0962 22.4173 14.7823 22.1513 15.5443C21.7058 16.8205 21.0268 17.9864 20.1661 18.991C19.7031 19.5314 19.0111 19.587 18.5155 19.4702C17.9763 19.343 17.3917 19.4131 16.8746 19.7117C16.3122 20.0364 15.9433 20.566 15.8073 21.1538C15.6925 21.6501 15.3356 22.2471 14.6444 22.422C13.7975 22.6363 12.9112 22.75 11.9995 22.75C11.0879 22.75 10.2017 22.6363 9.35482 22.4221C8.66355 22.2471 8.30664 21.6501 8.19186 21.1538C8.0559 20.566 7.68702 20.0364 7.12457 19.7117C6.60746 19.4131 6.0228 19.343 5.48359 19.4702C4.98802 19.5871 4.29605 19.5314 3.83299 18.991C2.97226 17.9864 2.29327 16.8205 1.84775 15.5443C1.58173 14.7823 1.99389 14.0962 2.42906 13.7376C2.93138 13.3238 3.24957 12.6994 3.24957 12C3.24957 11.3006 2.93138 10.6762 2.42906 10.2623C1.99389 9.9038 1.58174 9.21766 1.84775 8.45567C2.29332 7.17934 2.97241 6.01334 3.83328 5.00867C4.29631 4.4683 4.9882 4.41265 5.48373 4.5295C6.0229 4.65664 6.6075 4.58651 7.12458 4.28798C7.68696 3.96329 8.05582 3.43379 8.19182 2.84601C8.30664 2.3498 8.66354 1.75286 9.35474 1.57796ZM11.9995 15C10.3427 15 8.99951 13.6569 8.99951 12C8.99951 10.3431 10.3427 9 11.9995 9C13.6564 9 14.9995 10.3431 14.9995 12C14.9995 13.6569 13.6564 15 11.9995 15Z" fill="#E5007A"/>
<path d="M9.35474 1.57796C10.2016 1.36366 11.0878 1.25 11.9995 1.25L11.9995 9C10.3427 9 8.99951 10.3431 8.99951 12C8.99951 13.6569 10.3427 15 11.9995 15L11.9995 22.75C11.0879 22.75 10.2017 22.6363 9.35482 22.4221C8.66355 22.2471 8.30664 21.6501 8.19186 21.1538C8.0559 20.566 7.68702 20.0364 7.12457 19.7117C6.60746 19.4131 6.0228 19.343 5.48359 19.4702C4.98802 19.5871 4.29605 19.5314 3.83299 18.991C2.97226 17.9864 2.29327 16.8205 1.84775 15.5443C1.58173 14.7823 1.99389 14.0962 2.42906 13.7376C2.93138 13.3238 3.24957 12.6994 3.24957 12C3.24957 11.3006 2.93138 10.6762 2.42906 10.2623C1.99389 9.9038 1.58174 9.21766 1.84775 8.45567C2.29332 7.17934 2.97241 6.01334 3.83328 5.00867C4.29631 4.4683 4.9882 4.41265 5.48373 4.5295C6.0229 4.65664 6.6075 4.58651 7.12458 4.28798C7.68696 3.96329 8.05582 3.43379 8.19182 2.84601C8.30664 2.3498 8.66354 1.75286 9.35474 1.57796Z" fill="#E5007A"/>
</svg>
