<svg width="24" height="24" viewBox="0 0 24 24" fill="none" xmlns="http://www.w3.org/2000/svg">
<path fill-rule="evenodd" clip-rule="evenodd" d="M3.37752 5.08241C3 5.62028 3 7.21907 3 10.4167V11.9914C3 17.6294 7.23896 20.3655 9.89856 21.5273C10.62 21.8424 10.9807 22 12 22C13.0193 22 13.38 21.8424 14.1014 21.5273C16.761 20.3655 21 17.6294 21 11.9914V10.4167C21 7.21907 21 5.62028 20.6225 5.08241C20.245 4.54454 18.7417 4.02996 15.7351 3.00079L15.1623 2.80472C13.595 2.26824 12.8114 2 12 2C11.1886 2 10.405 2.26824 8.83772 2.80472L8.26491 3.00079C5.25832 4.02996 3.75503 4.54454 3.37752 5.08241ZM12 12C13.1046 12 14 11.1046 14 10C14 8.89543 13.1046 8 12 8C10.8954 8 10 8.89543 10 10C10 11.1046 10.8954 12 12 12ZM16 15C16 16.1046 16 17 12 17C8 17 8 16.1046 8 15C8 13.8954 9.79086 13 12 13C14.2091 13 16 13.8954 16 15Z" fill="#B82277"/>
<path fill-rule="evenodd" clip-rule="evenodd" d="M3.37752 5.08241C3 5.62028 3 7.21907 3 10.4167V11.9914C3 17.6294 7.23896 20.3655 9.89856 21.5273C10.62 21.8424 10.9807 22 12 22V17C8 17 8 16.1046 8 15C8 13.8954 9.79086 13 12 13V12C10.8954 12 10 11.1046 10 10C10 8.89543 10.8954 8 12 8V2C11.1886 2 10.405 2.26824 8.83772 2.80472L8.26491 3.00079C5.25832 4.02996 3.75503 4.54454 3.37752 5.08241Z" fill="#E5007A"/>
</svg>
