<svg width="24" height="24" viewBox="0 0 24 24" fill="none" xmlns="http://www.w3.org/2000/svg">
<path d="M12.4857 9.1C12.9208 9.1 13.3462 9.22903 13.708 9.47077C14.0698 9.71251 14.3517 10.0561 14.5182 10.4581C14.6848 10.8601 14.7283 11.3024 14.6434 11.7292C14.5585 12.156 14.349 12.548 14.0413 12.8556C13.7337 13.1633 13.3417 13.3728 12.9149 13.4577C12.4882 13.5426 12.0458 13.499 11.6438 13.3325C11.2418 13.166 10.8982 12.884 10.6565 12.5223C10.4147 12.1605 10.2857 11.7351 10.2857 11.3C10.2878 10.7172 10.5202 10.1588 10.9324 9.74665C11.3445 9.33452 11.9029 9.10207 12.4857 9.1ZM8.4 11.3C8.4 10.8649 8.27097 10.4395 8.02923 10.0777C7.78749 9.71596 7.4439 9.43398 7.0419 9.26747C6.63991 9.10095 6.19756 9.05739 5.7708 9.14227C5.34404 9.22716 4.95204 9.43669 4.64437 9.74436C4.33669 10.052 4.12716 10.444 4.04227 10.8708C3.95739 11.2976 4.00095 11.7399 4.16747 12.1419C4.33398 12.5439 4.61596 12.8875 4.97775 13.1292C5.33953 13.371 5.76488 13.5 6.2 13.5C6.78284 13.4979 7.34121 13.2655 7.75335 12.8533C8.16548 12.4412 8.39793 11.8828 8.4 11.3ZM16.5714 11.3C16.5714 11.7351 16.7005 12.1605 16.9422 12.5223C17.1839 12.884 17.5275 13.166 17.9295 13.3325C18.3315 13.499 18.7739 13.5426 19.2006 13.4577C19.6274 13.3728 20.0194 13.1633 20.3271 12.8556C20.6347 12.548 20.8443 12.156 20.9291 11.7292C21.014 11.3024 20.9705 10.8601 20.804 10.4581C20.6374 10.0561 20.3555 9.71251 19.9937 9.47077C19.6319 9.22903 19.2065 9.1 18.7714 9.1C18.1886 9.10207 17.6302 9.33452 17.2181 9.74665C16.8059 10.1588 16.5735 10.7172 16.5714 11.3Z" fill="#E5007A"/>
</svg>
