<svg width="24" height="24" viewBox="0 0 24 24" fill="none" xmlns="http://www.w3.org/2000/svg">
<path fill-rule="evenodd" clip-rule="evenodd" d="M16.5845 18.7201C15.7945 16.5701 14.1545 15.1101 11.9145 14.5201C11.1845 14.3201 10.3745 14.2201 9.51453 14.2201H9.46453C5.86453 14.2201 3.24453 15.9901 2.26453 19.0801L2.14453 19.4501L2.48453 19.6501C4.38453 20.8201 6.66453 21.3801 9.43453 21.3801H9.48453C12.3245 21.3901 14.5845 20.8201 16.4945 19.6501L16.8345 19.4501L16.7145 19.0801C16.6745 18.9601 16.6345 18.8401 16.5845 18.7201Z" fill="#E5007A"/>
<path fill-rule="evenodd" clip-rule="evenodd" d="M9.4845 12.1301C11.0045 12.1301 12.3545 11.4101 13.2245 10.3001C13.8645 9.50012 14.2445 8.48012 14.2445 7.37012C14.2445 6.55012 14.0345 5.78012 13.6745 5.11012C12.8645 3.63012 11.2945 2.62012 9.4845 2.62012C6.8645 2.62012 4.7345 4.75012 4.7345 7.37012C4.7345 9.99012 6.8645 12.1301 9.4845 12.1301Z" fill="#E5007A"/>
<path fill-rule="evenodd" clip-rule="evenodd" d="M21.7345 16.8204C20.9745 14.4104 18.9345 13.0304 16.1345 13.0304H16.0945C14.8645 13.0304 13.7945 13.3004 12.8945 13.7904C15.1545 14.6104 16.8345 16.3004 17.6145 18.6504C19.1045 18.4904 20.4145 18.0704 21.5145 17.4004L21.8545 17.1904L21.7345 16.8204Z" fill="#B82277"/>
<path fill-rule="evenodd" clip-rule="evenodd" d="M13.9545 10.9904C14.5645 11.4204 15.3145 11.6804 16.1145 11.6804C18.1745 11.6804 19.8545 10.0004 19.8545 7.93043C19.8545 5.87043 18.1745 4.19043 16.1145 4.19043C15.5345 4.19043 14.9945 4.32043 14.5045 4.56043C14.9745 5.39043 15.2445 6.35043 15.2445 7.37043C15.2445 8.74043 14.7645 10.0004 13.9545 10.9904Z" fill="#B82277"/>
</svg>
