<svg width="24" height="24" viewBox="0 0 24 24" fill="none" xmlns="http://www.w3.org/2000/svg">
<path fill-rule="evenodd" clip-rule="evenodd" d="M9.48137 3.86572C7.55046 3.86572 5.98535 5.43016 5.98535 7.36049C5.98535 9.29082 7.55046 10.8553 9.48137 10.8553C11.4109 10.8553 12.9761 9.29097 12.9761 7.36049C12.9761 5.43001 11.4109 3.86572 9.48137 3.86572ZM4.48535 7.36049C4.48535 4.60115 6.72261 2.36572 9.48137 2.36572C12.239 2.36572 14.4761 4.6013 14.4761 7.36049C14.4761 10.1197 12.239 12.3553 9.48137 12.3553C6.72261 12.3553 4.48535 10.1198 4.48535 7.36049Z" fill="#D6D1D1"/>
<path fill-rule="evenodd" clip-rule="evenodd" d="M16.0596 5.41602C15.3271 5.41602 14.6693 5.73084 14.2123 6.2348L13.7085 6.79038L12.5973 5.78275L13.1012 5.22717C13.8306 4.42277 14.8865 3.91602 16.0596 3.91602C18.2632 3.91602 20.0508 5.70243 20.0508 7.90729C20.0508 10.1121 18.2632 11.8986 16.0596 11.8986C14.6521 11.8986 13.4151 11.1698 12.7052 10.0723L12.2979 9.44256L13.5574 8.62791L13.9647 9.25767C14.4097 9.94576 15.1819 10.3986 16.0596 10.3986C17.435 10.3986 18.5508 9.28343 18.5508 7.90729C18.5508 6.53115 17.435 5.41602 16.0596 5.41602Z" fill="#D6D1D1"/>
<path fill-rule="evenodd" clip-rule="evenodd" d="M3.67313 18.8867C5.3756 19.7748 7.35619 20.139 9.51202 20.1337H9.51568C11.6715 20.139 13.652 19.7748 15.3545 18.8867C14.371 16.5682 12.1936 15.4502 9.51577 15.4571H9.51193C6.83076 15.4502 4.65682 16.5655 3.67313 18.8867ZM9.51385 13.9571C6.14346 13.949 3.13593 15.5176 2.03468 19L1.85742 19.5605L2.35938 19.8665C4.48254 21.1608 6.9496 21.6398 9.51385 21.6337C12.0781 21.6398 14.5452 21.1608 16.6683 19.8665L17.1703 19.5605L16.993 19C15.8929 15.521 12.8809 13.949 9.51385 13.9571Z" fill="#D6D1D1"/>
<path fill-rule="evenodd" clip-rule="evenodd" d="M16.0835 14.2659C14.7186 14.2624 13.5572 14.6534 12.7405 15.405L12.1886 15.9129L11.1729 14.8092L11.7247 14.3013C12.8838 13.2346 14.4423 12.7621 16.0854 12.7659C18.7131 12.7598 21.0965 13.9922 21.9655 16.7405L22.1427 17.301L21.6408 17.607C19.9829 18.6177 18.0634 18.9872 16.0836 18.9823L15.3336 18.9805L15.3372 17.4805L16.0872 17.4823C17.6508 17.4862 19.0804 17.2323 20.3145 16.6256C19.5679 15.0366 18.0178 14.261 16.0873 14.2659H16.0835Z" fill="#D6D1D1"/>
</svg>
