<svg width="22" height="19" viewBox="0 0 22 19" fill="none" xmlns="http://www.w3.org/2000/svg">
<path d="M1 16C1 15.0572 1 14.5858 1.29289 14.2929C1.58579 14 2.05719 14 3 14H19C19.9428 14 20.4142 14 20.7071 14.2929C21 14.5858 21 15.0572 21 16C21 16.9428 21 17.4142 20.7071 17.7071C20.4142 18 19.9428 18 19 18H3C2.05719 18 1.58579 18 1.29289 17.7071C1 17.4142 1 16.9428 1 16Z" stroke="#D6D1D1" stroke-width="1.5"/>
<path d="M19.5 13V9C19.5 5.22876 19.5 3.34315 18.3284 2.17157C17.1569 1 15.2712 1 11.5 1H10.5C6.72876 1 4.84315 1 3.67157 2.17157C2.5 3.34315 2.5 5.22876 2.5 9V13" stroke="#D6D1D1" stroke-width="1.5" stroke-linecap="round"/>
<path d="M8.5 7.4L9.92857 9L13.5 5" stroke="#D6D1D1" stroke-width="1.5" stroke-linecap="round" stroke-linejoin="round"/>
</svg>
