<svg width="21" height="20" viewBox="0 0 21 20" fill="none" xmlns="http://www.w3.org/2000/svg">
<g clip-path="url(#clip0_7_36926)">
<path d="M2.65063 15C2.65063 14.2143 2.65063 13.8215 2.89471 13.5774C3.13879 13.3333 3.53163 13.3333 4.3173 13.3333H17.6506C18.4363 13.3333 18.8291 13.3333 19.0732 13.5774C19.3173 13.8215 19.3173 14.2143 19.3173 15C19.3173 15.7857 19.3173 16.1785 19.0732 16.4226C18.8291 16.6666 18.4363 16.6666 17.6506 16.6666H4.3173C3.53163 16.6666 3.13879 16.6666 2.89471 16.4226C2.65063 16.1785 2.65063 15.7857 2.65063 15Z" stroke="#485F7D" stroke-width="1.5"/>
<path d="M18.0673 12.5V9.16667C18.0673 6.02397 18.0673 4.45262 17.091 3.47631C16.1147 2.5 14.5433 2.5 11.4006 2.5H10.5673C7.4246 2.5 5.85326 2.5 4.87695 3.47631C3.90063 4.45262 3.90063 6.02397 3.90063 9.16667V12.5" stroke="#485F7D" stroke-width="1.5" stroke-linecap="round"/>
<path d="M8.90063 7.83331L10.0911 9.16665L13.0673 5.83331" stroke="#485F7D" stroke-width="1.5" stroke-linecap="round" stroke-linejoin="round"/>
</g>
<defs>
<clipPath id="clip0_7_36926">
<rect x="0.983887" width="20" height="20" rx="5" fill="white"/>
</clipPath>
</defs>
</svg>
