<svg width="24" height="24" viewBox="0 0 24 24" fill="none" xmlns="http://www.w3.org/2000/svg">
<path d="M2 19C2 18.0572 2 17.5858 2.29289 17.2929C2.58579 17 3.05719 17 4 17H20C20.9428 17 21.4142 17 21.7071 17.2929C22 17.5858 22 18.0572 22 19C22 19.9428 22 20.4142 21.7071 20.7071C21.4142 21 20.9428 21 20 21H4C3.05719 21 2.58579 21 2.29289 20.7071C2 20.4142 2 19.9428 2 19Z" fill="#B82277"/>
<path d="M2.29289 17.2929C2 17.5858 2 18.0572 2 19C2 19.9428 2 20.4142 2.29289 20.7071C2.58579 21 3.05719 21 4 21H12V17H4C3.05719 17 2.58579 17 2.29289 17.2929Z" fill="#E5007A"/>
<path fill-rule="evenodd" clip-rule="evenodd" d="M12 15.5H20.5689H20.569C20.7101 15.4999 20.8552 15.4999 21 15.5019V11C21 7.22876 21 4.34315 19.8284 3.17157C18.6569 2 15.7712 2 12 2H11C7.22876 2 5.34315 2 4.17157 3.17157C3 4.34315 3 7.22876 3 11V15.5019C3.14483 15.4999 3.28996 15.4999 3.43108 15.5H3.43114H12ZM15.7302 5.20788C16.063 5.50883 16.0919 6.02604 15.7948 6.36311L11.9486 10.7267C11.7954 10.9006 11.5762 11 11.3462 11C11.1161 11 10.8969 10.9006 10.7437 10.7267L9.20521 8.98129C8.90812 8.64422 8.93702 8.12701 9.26976 7.82606C9.60251 7.5251 10.1131 7.55438 10.4102 7.89145L11.3462 8.95335L14.5898 5.27327C14.8869 4.9362 15.3975 4.90693 15.7302 5.20788Z" fill="#B82277"/>
<path fill-rule="evenodd" clip-rule="evenodd" d="M3.43101 15.5H3.43108H3.43114H12L12 10.6684L11.9486 10.7267C11.7954 10.9006 11.5762 11 11.3462 11C11.1161 11 10.8969 10.9006 10.7437 10.7267L9.20521 8.98129C8.90812 8.64422 8.93702 8.12701 9.26976 7.82606C9.60251 7.5251 10.1131 7.55438 10.4102 7.89145L11.3462 8.95335L12 8.21151L12 2H11C7.22876 2 5.34315 2 4.17157 3.17157C3 4.34315 3 7.22876 3 11V15.5019C3.14481 15.4999 3.28992 15.4999 3.43101 15.5Z" fill="#E5007A"/>
</svg>
