<svg width="32" height="32" viewBox="0 0 32 32" fill="none" xmlns="http://www.w3.org/2000/svg">
<circle cx="16" cy="16" r="15.5" fill="white" stroke="#E5007A"/>
<path d="M16.5 22H10.5441C10.4724 22.0009 10.4012 21.9875 10.3348 21.9605C10.2683 21.9335 10.208 21.8934 10.1573 21.8427C10.1066 21.792 10.0665 21.7317 10.0395 21.6652C10.0125 21.5988 9.9991 21.5276 10 21.4559V15.5C10 13.7761 10.6849 12.1228 11.9038 10.9038C13.1228 9.68482 14.7761 9 16.5 9V9C17.3536 9 18.1988 9.16813 18.9875 9.49478C19.7761 9.82144 20.4926 10.3002 21.0962 10.9038C21.6998 11.5074 22.1786 12.2239 22.5052 13.0125C22.8319 13.8012 23 14.6464 23 15.5V15.5C23 16.3536 22.8319 17.1988 22.5052 17.9874C22.1786 18.776 21.6998 19.4926 21.0962 20.0962C20.4926 20.6997 19.7761 21.1785 18.9875 21.5052C18.1988 21.8318 17.3536 22 16.5 22V22Z" stroke="#E5007A" stroke-width="1.3" stroke-linecap="round" stroke-linejoin="round"/>
<path d="M16.25 17C16.8023 17 17.25 16.5523 17.25 16C17.25 15.4477 16.8023 15 16.25 15C15.6977 15 15.25 15.4477 15.25 16C15.25 16.5523 15.6977 17 16.25 17Z" fill="#E5007A"/>
<path d="M19.25 17C19.8023 17 20.25 16.5523 20.25 16C20.25 15.4477 19.8023 15 19.25 15C18.6977 15 18.25 15.4477 18.25 16C18.25 16.5523 18.6977 17 19.25 17Z" fill="#E5007A"/>
<path d="M13.25 17C13.8023 17 14.25 16.5523 14.25 16C14.25 15.4477 13.8023 15 13.25 15C12.6977 15 12.25 15.4477 12.25 16C12.25 16.5523 12.6977 17 13.25 17Z" fill="#E5007A"/>
</svg>
