<svg width="32" height="32" viewBox="0 0 32 32" fill="none" xmlns="http://www.w3.org/2000/svg">
<circle cx="16" cy="16" r="15.5" fill="white" stroke="#485F7D"/>
<path d="M21.891 10.609L21.4313 11.0687V11.0687L21.891 10.609ZM10.6103 10.609L10.1506 10.1494L10.1506 10.1494L10.6103 10.609ZM19.0287 10L19.0323 9.35H19.0287V10ZM13.4726 10V9.34999L13.4689 9.35001L13.4726 10ZM13.4726 15.9478C13.1136 15.9478 12.8226 16.2389 12.8226 16.5978C12.8226 16.9568 13.1136 17.2478 13.4726 17.2478V15.9478ZM19.0287 17.2478C19.3876 17.2478 19.6786 16.9568 19.6786 16.5978C19.6786 16.2389 19.3876 15.9478 19.0287 15.9478V17.2478ZM12.778 13.517C12.4191 13.517 12.128 13.8081 12.128 14.167C12.128 14.526 12.4191 14.817 12.778 14.817V13.517ZM19.7232 14.817C20.0821 14.817 20.3732 14.526 20.3732 14.167C20.3732 13.8081 20.0821 13.517 19.7232 13.517V14.817ZM14.1671 18.3786C13.8081 18.3786 13.5171 18.6696 13.5171 19.0286C13.5171 19.3876 13.8081 19.6786 14.1671 19.6786V18.3786ZM18.3341 19.6786C18.6931 19.6786 18.9841 19.3876 18.9841 19.0286C18.9841 18.6696 18.6931 18.3786 18.3341 18.3786V19.6786ZM21.8512 14.1659V18.3329H23.1512V14.1659H21.8512ZM18.3341 21.85H14.1671V23.15H18.3341V21.85ZM10.65 18.3329V14.1659H9.35V18.3329H10.65ZM14.1671 21.85C13.1665 21.85 12.4815 21.8486 11.9675 21.7795C11.4722 21.7129 11.2341 21.5944 11.0699 21.4301L10.1506 22.3494C10.5967 22.7954 11.1548 22.9819 11.7943 23.0679C12.415 23.1514 13.2033 23.15 14.1671 23.15V21.85ZM9.35 18.3329C9.35 19.2967 9.34862 20.085 9.43208 20.7057C9.51805 21.3452 9.70461 21.9033 10.1506 22.3494L11.0699 21.4301C10.9056 21.2659 10.7871 21.0278 10.7205 20.5325C10.6514 20.0185 10.65 19.3335 10.65 18.3329H9.35ZM21.8512 18.3329C21.8512 19.3335 21.8498 20.0185 21.7807 20.5325C21.7141 21.0278 21.5956 21.2659 21.4313 21.4301L22.3506 22.3494C22.7966 21.9033 22.9832 21.3452 23.0691 20.7057C23.1526 20.085 23.1512 19.2967 23.1512 18.3329H21.8512ZM18.3341 23.15C19.298 23.15 20.0862 23.1514 20.707 23.0679C21.3464 22.9819 21.9045 22.7954 22.3506 22.3494L21.4313 21.4301C21.2671 21.5944 21.029 21.7129 20.5337 21.7795C20.0197 21.8486 19.3347 21.85 18.3341 21.85V23.15ZM23.1512 14.1659C23.1512 13.202 23.1526 12.4138 23.0691 11.793C22.9832 11.1536 22.7966 10.5955 22.3506 10.1494L21.4313 11.0687C21.5956 11.2329 21.7141 11.471 21.7807 11.9663C21.8498 12.4803 21.8512 13.1653 21.8512 14.1659H23.1512ZM10.65 14.1659C10.65 13.1653 10.6514 12.4803 10.7205 11.9663C10.7871 11.471 10.9056 11.2329 11.0699 11.0687L10.1506 10.1494C9.70461 10.5955 9.51805 11.1536 9.43208 11.793C9.34862 12.4138 9.35 13.202 9.35 14.1659H10.65ZM19.025 10.65C19.7855 10.6542 20.3129 10.6742 20.7087 10.7469C21.0859 10.8161 21.2865 10.9238 21.4313 11.0687L22.3506 10.1494C21.9618 9.76063 21.4865 9.56797 20.9436 9.46825C20.4193 9.37194 19.7824 9.35419 19.0323 9.35001L19.025 10.65ZM13.4689 9.35001C12.7188 9.35419 12.0819 9.37194 11.5576 9.46825C11.0147 9.56797 10.5394 9.76063 10.1506 10.1494L11.0699 11.0687C11.2147 10.9238 11.4153 10.8161 11.7925 10.7469C12.1883 10.6742 12.7157 10.6542 13.4762 10.65L13.4689 9.35001ZM13.4726 10.65H19.0287V9.35H13.4726V10.65ZM13.4726 17.2478H19.0287V15.9478H13.4726V17.2478ZM12.778 14.817H19.7232V13.517H12.778V14.817ZM14.1671 19.6786H18.3341V18.3786H14.1671V19.6786Z" fill="#485F7D"/>
</svg>
