<svg width="32" height="32" viewBox="0 0 32 32" fill="none" xmlns="http://www.w3.org/2000/svg">
<circle cx="16" cy="16" r="15.5" fill="white" stroke="#2ED47A"/>
<path fill-rule="evenodd" clip-rule="evenodd" d="M16.2706 8.62918C16.2106 8.65104 16.1121 8.71591 16.0518 8.77329C15.8726 8.94394 15.8596 9.02595 15.8596 9.98249V10.8159L15.7829 10.9169C15.529 11.2514 14.4477 12.4514 13.464 13.4905L13.0188 13.9607L13.0191 17.5635L13.0194 21.1662L13.6871 21.4062C14.4051 21.6643 14.6845 21.7523 15.0158 21.8245C15.6152 21.9552 15.6227 21.9555 18.3335 21.9675C20.1575 21.9756 20.9595 21.97 21.0899 21.9482C21.7619 21.8357 22.2731 21.2433 22.2721 20.5784C22.2717 20.3236 22.2223 20.1347 22.0987 19.9151L22.0043 19.7472L22.1735 19.5784C22.3586 19.3937 22.4735 19.191 22.5431 18.926C22.6281 18.6025 22.5549 18.1548 22.3733 17.8872L22.3048 17.7863L22.48 17.6111C22.9261 17.1652 23.0156 16.5273 22.7089 15.979L22.6149 15.8111L22.7615 15.67C23.3394 15.1134 23.3466 14.2794 22.7784 13.7164C22.665 13.6041 22.527 13.5014 22.4161 13.4468C22.0894 13.286 22.0324 13.2817 20.1981 13.2812C19.2815 13.2809 18.5316 13.2737 18.5316 13.265C18.5316 13.2564 18.6346 12.9025 18.7606 12.4785L18.9896 11.7077L18.973 11.1983C18.9534 10.594 18.9014 10.348 18.7141 9.97149C18.3229 9.18517 17.5207 8.66026 16.6252 8.60463C16.4473 8.59358 16.3499 8.60033 16.2706 8.62918ZM8.7998 17.3537V21.701H10.4874H12.175V17.3537V13.0065H10.4874H8.7998V17.3537Z" fill="#2ED47A"/>
</svg>
