<svg width="32" height="32" viewBox="0 0 32 32" fill="none" xmlns="http://www.w3.org/2000/svg">
<circle cx="16" cy="16" r="15.5" fill="white" stroke="#FF3C5F"/>
<path fill-rule="evenodd" clip-rule="evenodd" d="M16.2706 21.9414C16.2106 21.9195 16.1121 21.8546 16.0518 21.7973C15.8726 21.6266 15.8596 21.5446 15.8596 20.5881V19.7547L15.7829 19.6536C15.529 19.3192 14.4477 18.1192 13.464 17.0801L13.0188 16.6098L13.0191 13.0071L13.0194 9.40437L13.6871 9.16435C14.4051 8.90622 14.6845 8.81826 15.0158 8.74605C15.6152 8.61538 15.6227 8.61505 18.3335 8.60304C20.1575 8.59495 20.9595 8.60057 21.0899 8.6224C21.7619 8.73488 22.2731 9.32729 22.2721 9.9922C22.2717 10.2469 22.2223 10.4358 22.0987 10.6555L22.0043 10.8233L22.1735 10.9922C22.3586 11.1769 22.4735 11.3795 22.5431 11.6446C22.6281 11.968 22.5549 12.4157 22.3733 12.6833L22.3048 12.7843L22.48 12.9594C22.9261 13.4054 23.0156 14.0433 22.7089 14.5915L22.6149 14.7595L22.7615 14.9006C23.3394 15.4572 23.3466 16.2912 22.7784 16.8541C22.665 16.9664 22.527 17.0692 22.4161 17.1237C22.0894 17.2846 22.0324 17.2888 20.1981 17.2894C19.2815 17.2896 18.5316 17.2969 18.5316 17.3055C18.5316 17.3141 18.6346 17.6681 18.7606 18.092L18.9896 18.8629L18.973 19.3723C18.9534 19.9765 18.9014 20.2226 18.7141 20.5991C18.3229 21.3854 17.5207 21.9103 16.6252 21.9659C16.4473 21.977 16.3499 21.9702 16.2706 21.9414ZM8.7998 13.2168V8.86953H10.4874H12.175V13.2168V17.5641H10.4874H8.7998V13.2168Z" fill="#FF3C5F"/>
</svg>
